<?xml version="1.0" standalone="no"?>
<!DOCTYPE svg PUBLIC "-//W3C//DTD SVG 1.1//EN" "http://www.w3.org/Graphics/SVG/1.1/DTD/svg11.dtd" >
<svg xmlns="http://www.w3.org/2000/svg" xmlns:xlink="http://www.w3.org/1999/xlink" version="1.1">
<metadata>
Created by FontForge 20190801 at Tue Mar  5 22:11:12 2013
 By Jimmy Wärting
Copyright (c) 2013 by Lee Batchelor. All rights reserved.
</metadata>
<defs>
<font id="FrostingforBreakfast" horiz-adv-x="265" >
  <font-face 
    font-family="Frosting for Breakfast"
    font-weight="400"
    font-stretch="normal"
    units-per-em="1000"
    panose-1="2 0 5 7 0 0 0 2 0 2"
    ascent="800"
    descent="-200"
    x-height="362"
    cap-height="858"
    bbox="-92 -411.654 1301 1075"
    underline-thickness="50"
    underline-position="-100"
    unicode-range="U+0020-FB02"
  />
<missing-glyph horiz-adv-x="313" 
d="M264 104h-7c-41 3 -135 10 -168 12c-12 1 -24 2 -35 5v357h7c41 -4 134 -10 168 -12c12 -1 24 -3 35 -5v-357zM89 441v-290c31 -2 97 -7 140 -10v289c-31 2 -97 8 -140 11z" />
    <glyph glyph-name=".notdef" horiz-adv-x="313" 
d="M264 104h-7c-41 3 -135 10 -168 12c-12 1 -24 2 -35 5v357h7c41 -4 134 -10 168 -12c12 -1 24 -3 35 -5v-357zM89 441v-290c31 -2 97 -7 140 -10v289c-31 2 -97 8 -140 11z" />
    <glyph glyph-name=".null" horiz-adv-x="0" 
 />
    <glyph glyph-name="CR" horiz-adv-x="295" 
 />
    <glyph glyph-name="space" unicode=" " horiz-adv-x="238" 
 />
    <glyph glyph-name="E" unicode="E" horiz-adv-x="617" 
d="M599 754c2 -8 3 -16 3 -24c0 -117 -169 -189 -292 -210c30 -26 74 -38 113 -38c14 0 25 2 37 4c2 -9 3 -19 4 -28c-158 -37 -334 -166 -334 -346c0 -99 64 -174 179 -174c112 0 233 85 233 230c0 79 -43 144 -124 144c-50 0 -112 -35 -112 -110c0 -29 11 -58 34 -76
c-10 -10 -18 -21 -26 -34c-29 31 -41 66 -41 101c0 100 82 148 150 148c104 0 160 -83 160 -175c0 -182 -165 -256 -276 -256c-150 0 -221 105 -221 208c0 154 124 294 288 348c-40 6 -78 21 -107 49c-15 -1 -29 -2 -45 -2c-116 0 -251 57 -251 185c0 65 47 115 91 115
c33 0 56 -32 56 -62c0 -17 -7 -33 -23 -43c-4 6 -8 11 -12 18c8 5 11 14 11 23c0 17 -12 37 -32 37c-27 0 -62 -38 -62 -89c0 -114 125 -156 224 -156c7 0 14 1 22 1c-19 27 -28 60 -28 92c0 116 100 220 230 220c74 0 139 -32 151 -100zM491 618c37 28 68 72 68 116
c0 59 -49 92 -109 92c-118 0 -188 -110 -188 -200c0 -29 8 -57 25 -81c73 8 151 33 204 73z" />
    <glyph glyph-name="F" unicode="F" horiz-adv-x="882" 
d="M966 849c16 -8 25 -22 25 -37c0 -65 -134 -86 -205 -96c-15 -26 -24 -94 -27 -123c-8 -67 -12 -135 -19 -245v-4c6 0 14 1 20 2c-1 4 -1 8 -1 12c0 45 29 113 75 113c20 0 40 -19 40 -42c0 -38 -40 -73 -76 -91c8 -22 21 -35 40 -44c-10 -11 -19 -22 -26 -34
c-39 28 -49 66 -49 66c-8 -2 -17 -3 -25 -3c-23 -268 -107 -412 -292 -412c-100 0 -156 66 -156 135c0 61 46 109 88 109c32 0 58 -31 58 -61c0 -18 -7 -34 -23 -44l-12 18c8 6 11 14 11 23c0 18 -14 36 -32 36c-28 0 -62 -36 -62 -81c0 -55 44 -108 127 -108
c189 0 235 195 249 393c-17 7 -32 16 -44 31c6 7 12 15 17 24c7 -13 17 -23 28 -30c3 87 7 255 44 356c-9 -1 -17 -1 -25 -1c-33 0 -71 4 -136 16c-88 16 -187 41 -268 41c-165 0 -258 -116 -258 -242c0 -131 85 -212 195 -212c128 0 215 106 224 226c14 -3 27 -6 42 -6
c-11 -118 -118 -248 -266 -248c-138 0 -237 99 -237 241c0 141 106 277 290 277c127 0 313 -64 415 -64c13 0 25 1 39 2c40 59 107 114 177 114c13 0 25 -2 35 -7zM901 770c14 6 60 26 60 40c0 8 -11 14 -27 14c-36 0 -90 -31 -127 -76c31 5 64 12 94 22zM805 415
c-8 -15 -12 -33 -12 -48c0 -3 1 -5 1 -8c24 14 55 44 55 68c0 7 -4 18 -14 18c-9 0 -22 -14 -30 -30z" />
    <glyph glyph-name="G" unicode="G" horiz-adv-x="806" 
d="M746 363c16 -1 30 -2 44 -5c-2 -40 -12 -83 -24 -120c-7 -131 -8 -253 -37 -361c-33 -119 -111 -226 -256 -226c-83 0 -159 52 -159 134c0 60 45 110 88 110c31 0 57 -30 57 -61c0 -18 -8 -35 -24 -44c-4 5 -8 12 -11 17c7 6 11 15 11 23c0 17 -14 36 -33 36
c-28 0 -60 -37 -60 -82c0 -66 64 -106 129 -106c231 0 236 271 249 458c-50 -86 -124 -151 -225 -151c-174 0 -241 166 -243 321c-133 7 -282 72 -282 229c0 94 72 207 190 207c34 0 70 -10 106 -32c-10 -11 -19 -22 -26 -34c-30 18 -59 28 -89 28c-91 0 -151 -94 -151 -171
c0 -139 137 -192 253 -199c7 202 141 521 376 521c99 0 150 -70 150 -153c1 -103 -81 -223 -170 -291c-91 -69 -201 -104 -310 -106c0 -135 51 -293 206 -293c106 0 179 102 221 199c4 50 10 103 20 152zM333 506c-19 -56 -30 -116 -33 -172c103 4 206 41 286 107
c79 65 154 176 154 277c0 56 -33 108 -102 108c-140 0 -260 -176 -305 -320z" />
    <glyph glyph-name="H" unicode="H" horiz-adv-x="841" 
d="M802 839c49 -33 68 -95 68 -157c0 -181 -162 -328 -318 -404c-2 -43 -4 -87 -4 -130c0 -106 -7 -356 124 -356c32 0 62 14 71 46c15 -4 28 -5 43 -6c-23 -39 -57 -68 -111 -68c-178 0 -173 318 -173 415c0 27 1 53 2 79c-68 -22 -154 -33 -229 -33c-9 0 -19 0 -29 1
l-20 -297c-14 -3 -28 -5 -42 -6l20 306c-94 11 -194 69 -194 181c0 65 46 112 88 112c35 0 57 -32 57 -60c0 -18 -7 -34 -23 -44l-12 18c8 6 11 14 11 23c0 17 -13 37 -31 37c-26 0 -62 -35 -62 -87c0 -94 88 -143 168 -152l36 519c13 4 28 6 42 6l-36 -528
c9 -1 18 -1 28 -1c74 0 164 11 230 35c4 76 11 151 24 226c24 130 82 344 211 344c20 0 41 -6 61 -19zM842 654c1 8 1 16 1 25c0 62 -25 143 -92 143c-105 0 -153 -204 -173 -316c-11 -64 -19 -132 -24 -196c134 66 272 191 288 344z" />
    <glyph glyph-name="I" unicode="I" horiz-adv-x="742" 
d="M801 -162c14 -4 29 -5 44 -6c-28 -46 -81 -68 -132 -68c-132 0 -187 133 -209 245c-62 -67 -139 -99 -217 -99c-152 0 -277 117 -277 272c0 131 96 234 204 234c96 0 165 -82 165 -162c0 -36 -11 -74 -29 -112c-11 10 -21 19 -34 26c20 30 30 62 30 90
c0 72 -60 130 -132 130c-86 0 -163 -84 -163 -206c0 -142 113 -243 241 -243c73 0 148 33 206 102c-13 86 -19 198 -19 285c0 181 19 532 160 532c78 0 88 -101 88 -175c0 -260 -123 -538 -186 -629c13 -106 45 -262 171 -262c42 0 80 19 89 46zM527 326
c0 -71 2 -161 9 -232c70 115 165 355 165 580c0 61 -8 149 -53 149c-102 0 -121 -338 -121 -497z" />
    <glyph glyph-name="J" unicode="J" horiz-adv-x="567" 
d="M509 842c14 0 29 -2 43 -5c-3 -53 -13 -103 -34 -151c-19 -219 -15 -412 -35 -619c-19 -193 -68 -420 -286 -420c-99 0 -156 63 -156 135c0 60 45 108 88 108c31 0 57 -29 57 -61c0 -17 -7 -33 -23 -43c-5 6 -8 12 -12 18c7 6 11 14 11 22c0 18 -13 37 -32 37
c-28 0 -61 -36 -61 -81c0 -55 43 -107 125 -107c179 0 230 167 247 395c11 163 13 349 31 541c-46 -61 -112 -107 -175 -149c-138 -89 -246 -148 -246 -284c0 -90 60 -166 156 -166c67 0 111 42 111 92c0 37 -20 68 -64 68h-5c0 14 2 28 5 42c61 -5 96 -50 96 -103
c0 -69 -55 -127 -144 -127c-114 0 -196 89 -196 198c0 157 126 224 268 311c78 48 156 104 201 182c7 55 17 111 30 167z" />
    <glyph glyph-name="K" unicode="K" horiz-adv-x="870" 
d="M927 -206c30 3 52 15 59 44c14 -4 28 -5 43 -6c-23 -44 -53 -67 -115 -67c-49 0 -98 24 -148 125c-60 121 -88 304 -162 377c-14 -67 -32 -144 -65 -204c-56 -103 -149 -153 -263 -153c-161 0 -266 125 -266 270c0 129 96 235 203 235c83 0 166 -64 166 -165
c0 -43 -12 -75 -29 -108c-10 10 -21 18 -33 25c17 27 29 58 29 91c0 76 -64 129 -132 129c-84 0 -163 -87 -163 -204c0 -130 90 -244 231 -244c181 0 240 150 277 345c-8 0 -17 1 -25 1c0 13 2 26 5 39l27 -6c18 105 35 200 35 319c0 150 -43 189 -90 189
c-95 0 -177 -96 -177 -196c0 -62 34 -120 108 -120c36 0 60 18 60 42c0 20 -14 34 -36 34h-4c-1 8 -2 14 -2 21c4 1 8 1 12 1c31 0 56 -24 56 -58c0 -38 -35 -68 -87 -68c-92 0 -135 72 -135 146c0 112 93 224 204 227c107 0 134 -123 134 -243c0 -104 -13 -204 -31 -300
c126 43 159 261 232 420c30 67 61 122 135 122c34 0 69 -23 82 -68c-15 0 -28 -2 -42 -6v5c0 29 -24 41 -43 41c-55 0 -77 -54 -96 -108c-42 -116 -108 -380 -260 -427c141 -113 149 -498 294 -498c4 0 8 0 12 1z" />
    <glyph glyph-name="L" unicode="L" horiz-adv-x="824" 
d="M833 -71c14 -3 28 -6 42 -6c-20 -67 -77 -99 -138 -99c-103 0 -199 86 -280 143c-34 -34 -76 -56 -127 -56c-45 0 -93 19 -93 69c0 38 38 73 92 73c43 0 85 -23 120 -46c54 74 73 175 84 265c-71 -37 -153 -58 -233 -58c-186 0 -290 113 -290 252c0 112 78 209 175 209
c31 0 65 -10 99 -32c-10 -10 -18 -21 -26 -33c-26 18 -52 26 -76 26c-75 0 -140 -80 -140 -175c0 -116 89 -219 262 -219c77 0 159 21 232 62c6 67 7 160 22 270c13 106 47 280 156 280c65 0 100 -76 100 -147c0 -143 -101 -317 -235 -407c-13 -107 -38 -226 -103 -310
c68 -47 161 -129 257 -129c53 0 91 33 100 68zM604 569c-11 -102 -18 -205 -21 -235c122 89 205 245 205 371c0 55 -24 119 -72 121c-84 0 -102 -166 -112 -257zM344 -60c34 4 63 20 87 46c-30 20 -67 40 -103 40c-39 0 -64 -22 -64 -46c0 -30 33 -41 63 -41c6 0 11 0 17 1z
" />
    <glyph glyph-name="M" unicode="M" horiz-adv-x="1183" 
d="M1206 738c2 -16 4 -32 4 -48c0 -72 -29 -162 -108 -249c-58 -63 -133 -118 -209 -155c-1 -22 -2 -48 -2 -76c0 -98 6 -224 23 -296c21 -91 69 -123 112 -123c33 0 63 21 70 47c14 -4 28 -6 42 -6c-23 -42 -65 -69 -110 -69c-58 0 -118 42 -149 143
c-26 87 -33 211 -33 311v47c-41 -17 -81 -27 -128 -27c-56 0 -109 12 -156 42c-25 -160 -72 -369 -282 -369c-114 0 -270 82 -270 272c0 117 89 236 206 236c91 0 168 -76 168 -166c0 -36 -11 -73 -30 -110c-10 10 -21 19 -33 26c21 31 29 62 29 91c0 75 -61 130 -131 130
c-91 0 -161 -96 -161 -203c0 -181 136 -248 228 -248c188 0 226 209 252 360c-89 74 -125 199 -125 314c0 78 21 186 82 186c96 0 91 -186 91 -256c0 -77 -7 -156 -18 -230c42 -35 95 -49 152 -49c48 0 86 11 127 29c2 82 11 166 26 246c25 136 81 320 204 320
c59 0 113 -40 129 -120zM543 336c10 68 17 149 17 222c0 8 4 204 -56 204c-25 0 -43 -71 -43 -159c0 -84 19 -196 82 -267zM1083 458c73 80 100 161 100 228c0 68 -27 137 -93 137c-105 0 -151 -174 -172 -293c-12 -70 -20 -144 -24 -216c68 36 137 85 189 144z" />
    <glyph glyph-name="N" unicode="N" horiz-adv-x="858" 
d="M986 780c0 28 -19 45 -45 45c-111 0 -130 -253 -139 -367c-6 -74 -20 -276 -25 -351c8 -38 11 -75 11 -113c0 -23 -2 -47 -4 -71c-14 0 -28 3 -42 6c6 28 7 60 9 98c-20 158 -97 281 -181 428c-8 -101 -28 -301 -68 -393c-49 -111 -128 -152 -225 -152
c-155 0 -267 121 -267 272c0 130 102 232 204 232c96 0 168 -74 168 -167c0 -33 -9 -69 -29 -106c-11 9 -22 18 -34 25c19 30 29 60 29 89c0 67 -53 131 -133 131c-77 0 -163 -84 -163 -206c0 -134 93 -241 229 -241c84 0 152 33 196 134c41 94 61 323 68 427
c-45 80 -103 197 -103 278c0 40 11 76 48 77c71 0 88 -83 88 -200c0 -36 -1 -75 -3 -112c65 -120 142 -234 184 -365c9 157 11 220 15 282c11 136 36 395 172 395c40 0 73 -26 82 -69c-14 0 -28 -3 -42 -6zM550 592c0 33 1 60 1 82c0 124 -29 152 -56 152
c-13 0 -19 -12 -19 -30c0 -43 28 -117 74 -204z" />
    <glyph glyph-name="O" unicode="O" horiz-adv-x="891" 
d="M827 590c31 -73 49 -162 49 -254c0 -214 -108 -425 -313 -425c-160 0 -264 121 -276 314c-6 0 -13 -1 -21 -1c-167 0 -256 85 -256 186c0 68 45 115 88 115c32 0 57 -31 57 -62c0 -17 -7 -33 -23 -43c-4 6 -8 11 -11 18c7 5 10 14 10 22c0 18 -13 37 -32 37
c-28 0 -61 -36 -61 -88c0 -83 76 -156 220 -156c9 0 19 0 28 1v17c0 90 17 186 52 276c54 143 173 307 327 307c89 0 160 -84 160 -176c0 -30 -6 -60 -15 -91c5 2 11 3 17 3zM382 530c-34 -90 -50 -186 -50 -272c202 29 451 214 451 424c0 72 -46 144 -117 144
c-128 0 -239 -173 -284 -296zM829 258c5 36 8 74 8 111c0 73 -11 146 -30 213c-65 -188 -277 -330 -475 -353c10 -171 82 -290 231 -290c159 0 240 165 266 319z" />
    <glyph glyph-name="P" unicode="P" horiz-adv-x="742" 
d="M718 742c30 -44 44 -95 44 -148c0 -80 -34 -160 -97 -219c-68 -63 -135 -78 -216 -90c-15 -168 -66 -374 -281 -374c-102 0 -158 67 -158 135c0 48 33 109 88 109c32 0 57 -30 57 -61c0 -20 -9 -35 -22 -44c-5 6 -9 12 -12 18c6 5 11 13 11 22c0 20 -14 37 -33 37
c-38 0 -61 -49 -61 -81c0 -54 47 -108 128 -108c30 0 60 8 85 18c247 106 85 580 231 830c17 0 32 -2 48 -7c-20 -34 -40 -77 -54 -172c-14 -92 -18 -203 -26 -299c133 3 271 123 271 276c0 131 -99 242 -266 242c-185 0 -365 -139 -365 -364c0 -136 63 -181 118 -181
c42 0 71 28 71 59c0 18 -13 34 -33 34c-6 0 -12 -1 -20 -4c-3 6 -7 12 -10 18c11 7 22 10 34 10c30 0 56 -26 56 -61c0 -47 -46 -85 -104 -85c-69 0 -151 52 -151 198c0 221 181 405 425 405c98 0 187 -29 242 -113z" />
    <glyph glyph-name="Q" unicode="Q" horiz-adv-x="655" 
d="M675 -164c15 -4 29 -6 43 -6c-20 -48 -56 -76 -128 -76c-135 0 -267 121 -352 168c-20 -7 -36 -9 -49 -9c-26 0 -84 12 -84 45c0 18 20 24 38 24c27 0 50 -4 103 -31c75 35 148 109 198 175c91 120 155 272 155 432c0 72 -14 141 -56 192c-45 56 -111 76 -181 76
c-176 0 -311 -165 -311 -352c0 -125 64 -266 207 -266c81 0 161 56 161 157c0 47 -21 87 -50 87c-19 0 -36 -14 -36 -34c0 -6 2 -13 6 -20c-5 -4 -11 -8 -17 -12c-8 12 -12 24 -12 36c0 28 26 56 61 56c43 0 77 -49 77 -112c0 -115 -94 -185 -190 -185
c-164 0 -248 158 -248 294c0 184 144 378 352 379c80 0 155 -21 208 -80c55 -60 75 -142 75 -226c0 -256 -163 -512 -371 -611c72 -42 196 -143 313 -143c39 0 73 9 88 42zM128 -44c2 -9 26 -22 57 -22c7 0 15 1 23 3c-22 10 -46 21 -70 21c-4 0 -8 0 -10 -2z" />
    <glyph glyph-name="R" unicode="R" horiz-adv-x="737" 
d="M842 -162c14 -4 28 -6 43 -6c-27 -50 -73 -68 -114 -68c-98 0 -150 118 -182 204c-51 138 -71 266 -143 308c-18 -178 -76 -365 -280 -365c-102 0 -156 69 -156 137c0 48 32 110 87 110c34 0 57 -33 57 -63c0 -17 -6 -33 -23 -42c-4 5 -8 11 -12 17c8 6 11 14 11 24
c0 17 -13 36 -32 36c-36 0 -60 -48 -60 -84c0 -52 44 -108 126 -108c192 0 225 193 237 346c-18 0 -28 1 -30 1c0 13 3 26 6 39c10 -2 16 -3 26 -6c6 86 8 168 18 251c8 71 23 155 59 217c17 0 33 -2 49 -6c-71 -120 -67 -303 -80 -471c205 29 269 160 269 276
c0 135 -101 241 -266 241c-81 0 -166 -28 -234 -82c-103 -83 -128 -229 -128 -280c0 -54 12 -182 111 -182c44 0 75 30 75 61c0 17 -13 35 -33 35c-6 0 -13 -1 -20 -5c-3 5 -7 12 -10 18c11 7 22 10 33 10c31 0 56 -26 56 -60c0 -47 -42 -87 -100 -87
c-108 0 -152 100 -152 198c0 106 55 231 152 312c78 66 172 91 273 91c144 0 284 -82 284 -261c0 -136 -85 -268 -284 -303c85 -59 136 -248 156 -308c32 -97 62 -190 142 -190c29 0 61 11 69 45z" />
    <glyph glyph-name="S" unicode="S" horiz-adv-x="669" 
d="M642 331c2 -17 3 -33 3 -49c0 -216 -154 -371 -339 -371c-180 0 -296 137 -296 299c0 164 132 332 303 332c140 0 226 -120 226 -249c0 -51 -14 -88 -36 -123c-10 9 -21 17 -33 24c22 31 35 70 35 112c0 115 -82 208 -191 208c-129 0 -260 -129 -260 -299
c0 -161 112 -276 251 -276c165 0 292 163 292 339c0 73 -19 144 -52 204c-51 92 -182 217 -182 295c0 45 34 77 75 77c54 0 92 -50 92 -106c0 -28 -8 -56 -19 -82c-7 0 -15 2 -22 4c11 19 19 46 19 72c0 41 -26 84 -65 84c-21 0 -37 -15 -37 -40c0 -27 23 -63 52 -103
c99 -133 170 -216 184 -352z" />
    <glyph glyph-name="T" unicode="T" horiz-adv-x="825" 
d="M966 849c16 -8 25 -22 25 -37c0 -65 -134 -86 -205 -96c-15 -26 -24 -94 -27 -123c-8 -67 -12 -135 -19 -245c-9 -120 -29 -198 -47 -247c-43 -115 -121 -190 -247 -190c-100 0 -156 66 -156 135c0 61 46 109 88 109c32 0 58 -31 58 -61c0 -18 -7 -34 -23 -44l-12 18
c8 6 11 14 11 23c0 18 -14 36 -32 36c-28 0 -62 -36 -62 -81c0 -55 44 -108 127 -108c197 0 238 213 249 412c5 85 7 258 45 362c-9 -1 -17 -1 -25 -1c-33 0 -71 4 -136 16c-88 16 -187 41 -268 41c-165 0 -258 -116 -258 -242c0 -131 85 -212 195 -212
c128 0 215 106 224 226c14 -3 27 -6 42 -6c-11 -118 -118 -248 -266 -248c-138 0 -237 99 -237 241c0 141 106 277 290 277c127 0 313 -64 415 -64c13 0 25 1 39 2c40 59 107 114 177 114c13 0 25 -2 35 -7zM901 770c14 6 60 26 60 40c0 8 -11 14 -27 14
c-36 0 -90 -31 -127 -76c31 5 64 12 94 22z" />
    <glyph glyph-name="U" unicode="U" horiz-adv-x="846" 
d="M911 -158c15 -3 28 -5 43 -5c-25 -47 -65 -71 -108 -71c-125 0 -120 232 -120 374c0 47 4 101 8 159c-42 -158 -121 -388 -260 -388c-88 0 -110 68 -110 140c0 144 90 382 90 542c0 101 -34 177 -163 177c-120 0 -239 -88 -239 -237c0 -103 74 -166 171 -166
c76 0 131 47 131 84c0 18 -15 36 -34 36c-9 0 -18 -3 -26 -10c-4 5 -9 11 -13 17c13 10 26 15 39 15c32 0 57 -31 57 -59c0 -52 -67 -112 -163 -112c-116 0 -204 74 -204 194c0 164 144 267 290 267c150 0 199 -90 199 -217c0 -176 -90 -408 -90 -541c0 -51 16 -97 75 -97
c137 0 226 332 263 518c24 291 20 251 31 373c16 4 31 7 47 7c-36 -372 -56 -483 -56 -716c0 -115 -16 -332 77 -332c35 0 59 24 65 48z" />
    <glyph glyph-name="V" unicode="V" horiz-adv-x="800" 
d="M960 781v5c0 22 -19 40 -42 40c-72 0 -132 -175 -153 -243c-60 -190 -120 -482 -157 -653c-16 -4 -32 -7 -48 -7c-1 160 -3 333 -31 492c-27 148 -84 355 -243 355c-142 0 -235 -115 -235 -238c0 -96 68 -166 173 -166c77 0 130 48 130 84c0 16 -14 36 -35 36
c-8 0 -17 -3 -25 -10c-5 5 -9 10 -13 16c13 10 26 16 39 16c35 0 58 -33 58 -58c0 -52 -64 -114 -165 -114c-123 0 -203 83 -203 194c0 141 116 268 283 268c184 0 253 -208 281 -375c20 -113 27 -247 30 -361c31 161 76 376 130 532c31 86 94 261 187 261
c41 0 77 -33 81 -69c-14 0 -28 -2 -42 -5z" />
    <glyph glyph-name="W" unicode="W" horiz-adv-x="1034" 
d="M1163 780v4c0 22 -17 42 -47 42c-164 0 -114 -324 -132 -592c-9 -130 -36 -324 -181 -324c-102 0 -125 111 -128 198c-49 -158 -105 -198 -173 -198c-82 0 -104 63 -104 135c0 158 76 362 76 519c0 120 -48 206 -186 206c-126 0 -237 -99 -237 -237
c0 -101 73 -167 169 -167c70 0 134 44 134 84c0 16 -14 36 -35 36c-8 0 -17 -3 -25 -10c-4 5 -8 10 -13 16c13 10 26 16 40 16c33 0 56 -31 56 -59c0 -52 -66 -113 -163 -113c-131 0 -204 88 -204 195c0 163 143 267 295 267c154 0 217 -89 217 -241
c0 -182 -80 -381 -80 -527c0 -55 14 -92 63 -92c101 0 149 168 174 290c6 64 31 290 87 528c16 -1 30 -2 45 -6c-37 -158 -90 -444 -90 -612c0 -64 5 -200 85 -200c290 0 -4 917 316 917c56 0 82 -49 83 -69c-14 0 -27 -2 -42 -6z" />
    <glyph glyph-name="X" unicode="X" horiz-adv-x="899" 
d="M1106 -162c13 -4 26 -5 40 -6c-31 -42 -91 -67 -149 -67c-179 0 -245 194 -278 367c-9 50 -25 153 -28 175c-85 -193 -195 -397 -390 -397c-151 0 -266 117 -266 272c0 112 81 232 203 232c92 0 167 -72 167 -164c0 -33 -9 -70 -29 -108c-10 10 -22 18 -34 25
c20 31 30 61 30 90c0 70 -58 129 -132 129c-100 0 -163 -107 -163 -204c0 -135 93 -244 227 -244c191 0 300 228 381 417c-7 54 -13 113 -22 172c-14 92 -45 299 -136 299c-97 0 -167 -119 -167 -196c0 -81 51 -120 107 -120c33 0 61 15 61 41c0 19 -13 35 -36 35h-4
c-2 8 -2 14 -2 21c4 1 8 1 12 1c32 0 56 -26 56 -60c0 -42 -43 -66 -91 -66c-65 0 -131 47 -131 148c0 84 78 225 198 225c115 0 159 -210 177 -321c5 -30 10 -60 14 -91c24 57 47 113 73 168c52 109 132 245 255 245c41 0 73 -26 85 -70c-15 0 -28 -2 -43 -6v3
c0 30 -26 42 -49 42c-106 0 -180 -134 -224 -225c-32 -63 -64 -141 -90 -206c12 -97 30 -211 37 -253c26 -159 75 -348 234 -348c39 0 81 15 107 45z" />
    <glyph glyph-name="Y" unicode="Y" horiz-adv-x="821" 
d="M777 835c16 4 31 7 47 7c-9 -94 -20 -184 -35 -279c-29 -401 -22 -578 -71 -718c-37 -107 -112 -197 -244 -197c-87 0 -159 58 -159 132c0 60 45 111 89 111c35 0 59 -32 59 -63c0 -17 -7 -34 -23 -44c-6 7 -10 15 -15 23c7 5 10 12 10 21c0 15 -13 35 -29 35
c-31 0 -62 -36 -62 -83c0 -62 60 -106 127 -106c121 0 185 86 214 181c30 100 29 218 41 441c-44 -142 -125 -315 -241 -315c-84 0 -107 69 -107 140c0 36 5 74 11 106c23 131 65 227 65 365c0 103 -44 178 -163 178c-144 0 -240 -109 -240 -236c0 -88 60 -165 169 -165
c68 0 134 43 134 82c0 15 -15 36 -35 36c-8 0 -17 -3 -28 -12c-5 6 -9 11 -13 17c14 12 28 17 42 17c34 0 56 -31 56 -59c0 -52 -66 -112 -163 -112c-132 0 -203 90 -203 193c0 147 117 267 289 267c154 0 199 -101 199 -216c1 -146 -40 -240 -63 -364
c-5 -27 -12 -68 -12 -104c0 -56 16 -100 71 -100c127 0 219 308 240 388c18 277 36 383 43 433z" />
    <glyph glyph-name="Z" unicode="Z" horiz-adv-x="764" 
d="M848 798c14 -7 26 -16 38 -27c-105 -125 -236 -254 -381 -330c-99 -122 -207 -264 -296 -367c43 14 94 22 146 22c153 0 323 -70 323 -223c0 -59 -32 -107 -82 -107c-35 0 -62 26 -62 58c0 12 4 25 12 38c6 -4 12 -8 17 -12c-5 -8 -7 -16 -7 -24c0 -16 12 -35 38 -35
c28 0 50 29 50 70c0 108 -132 205 -295 205c-60 0 -123 -12 -186 -41c-36 -38 -97 -98 -147 -107c-8 4 -14 10 -22 16c39 43 84 79 136 107c82 89 186 233 286 361c-48 -17 -98 -27 -147 -27c-156 0 -271 108 -271 254c0 205 159 343 308 343c106 0 213 -78 213 -206
c0 -75 -41 -149 -125 -197c-8 12 -16 23 -25 33c63 40 107 96 107 165c0 107 -90 176 -178 176c-150 0 -257 -162 -257 -317c0 -135 109 -222 235 -222c58 0 117 15 172 38c96 122 266 332 400 356zM553 498c104 66 199 159 279 252c-94 -37 -214 -174 -279 -252z" />
    <glyph glyph-name="a" unicode="a" horiz-adv-x="276" 
d="M193 26c-23 -25 -53 -40 -87 -40c-55 0 -93 36 -96 91c0 85 76 165 209 165c-8 76 -49 105 -87 105c-24 0 -47 -10 -54 -25c11 -5 18 -16 18 -27c0 -16 -13 -29 -29 -29c-20 0 -29 15 -29 34c0 39 32 75 91 75c71 0 133 -68 133 -173c0 -12 -7 -80 -13 -198
c-15 -4 -28 -6 -43 -6c0 16 1 36 2 48c-5 -7 -10 -13 -15 -20zM110 14c101 0 110 154 110 200h-12c-105 0 -156 -76 -156 -136c0 -41 23 -63 58 -64z" />
    <glyph glyph-name="z" unicode="z" horiz-adv-x="267" 
d="M237 377c10 -11 19 -23 26 -35c-19 -32 -134 -230 -192 -311c11 1 22 2 32 2c87 0 138 -65 138 -111c0 -29 -20 -52 -45 -52c-29 0 -42 36 -62 36c-11 0 -17 -14 -17 -26c0 -10 3 -15 10 -15c3 0 4 0 7 1c1 -7 3 -14 4 -20c-4 -1 -7 -2 -11 -2c-21 0 -32 18 -32 38
c0 28 18 49 40 49c33 0 37 -21 51 -21c9 0 16 7 16 20c0 32 -32 76 -90 76c-40 0 -73 -20 -77 -21c-9 10 -17 21 -25 33c52 66 157 244 191 300c-68 -25 -115 -36 -168 -44c-1 10 -3 20 -4 28c92 6 176 45 208 75z" />
    <glyph glyph-name="y" unicode="y" horiz-adv-x="288" 
d="M265 32c8 -5 15 -10 23 -17c-13 -22 -42 -67 -59 -91c-13 -109 -21 -276 -123 -276c-26 0 -49 16 -49 53c0 72 65 129 125 205c9 76 16 150 21 199c-21 -52 -54 -120 -121 -120c-64 0 -72 93 -72 161c0 63 6 145 14 211c10 2 28 5 38 5h4c-5 -86 -15 -191 -15 -264
c0 -48 6 -83 32 -84c79 0 115 144 131 233l8 110c14 4 28 5 42 5c-14 -214 -13 -225 -29 -382c6 10 25 42 30 52zM160 -240c7 26 13 58 18 99c-52 -60 -92 -111 -92 -155c0 -16 4 -23 14 -23c14 0 42 15 60 79z" />
    <glyph glyph-name="x" unicode="x" horiz-adv-x="297" 
d="M315 82c7 -6 15 -11 22 -16c-26 -36 -57 -80 -103 -80c-60 0 -84 92 -96 141c-30 -64 -61 -139 -122 -147c0 0 -1 21 -6 41c3 -1 6 -2 10 -2c38 0 81 85 108 146c-18 78 -38 182 -94 182h-6c-1 9 -2 18 -4 27h12c70 0 102 -80 121 -145c21 43 49 93 93 101
c1 -14 3 -27 6 -40c-30 0 -60 -35 -90 -99c15 -65 29 -177 69 -177c34 0 62 38 80 68z" />
    <glyph glyph-name="w" unicode="w" horiz-adv-x="381" 
d="M333 429c26 -17 33 -54 33 -87c0 -88 -62 -249 -97 -337c-13 -4 -26 -6 -39 -7c-15 82 -36 166 -60 243c-6 -79 -24 -167 -51 -238c-9 -2 -19 -4 -29 -5c-16 112 -50 244 -80 324c9 5 29 22 37 28c32 -86 53 -176 69 -265c18 53 28 109 28 179c0 41 -10 74 -14 93
c14 4 28 5 43 6c20 -49 58 -175 77 -297c32 74 88 209 88 282c0 25 -6 60 -33 60c-15 0 -26 -16 -26 -38c0 -14 4 -29 15 -42c-5 -6 -11 -10 -16 -14c-16 16 -24 38 -24 59c0 36 23 63 53 63c9 0 18 -2 26 -7z" />
    <glyph glyph-name="v" unicode="v" horiz-adv-x="240" 
d="M192 428c26 -17 34 -54 34 -89c0 -87 -61 -241 -98 -334c-14 -3 -26 -6 -39 -7c-15 112 -50 246 -79 324c8 5 29 22 36 28c32 -84 56 -179 71 -265c35 81 80 188 80 262c0 27 -7 61 -32 61c-13 0 -27 -14 -27 -40c0 -14 4 -28 15 -40c-6 -6 -11 -10 -16 -14
c-16 16 -24 38 -24 60c0 38 25 62 53 62c8 0 17 -2 26 -8z" />
    <glyph glyph-name="u" unicode="u" horiz-adv-x="279" 
d="M206 110c-25 -64 -69 -125 -124 -125c-66 0 -72 85 -72 156c0 77 8 148 15 216c14 3 28 5 42 5c-4 -78 -14 -156 -14 -245c0 -79 11 -103 35 -103c74 0 112 152 126 233l8 110c15 4 28 5 43 6l-25 -359c-14 -3 -28 -6 -42 -6z" />
    <glyph glyph-name="t" unicode="t" horiz-adv-x="237" 
d="M97 347c-18 -277 -14 -157 -14 -222c0 -43 4 -109 30 -109c17 0 81 44 81 133c0 13 -2 23 -12 23c-17 0 -47 -36 -52 -48c-7 3 -14 6 -19 12c14 32 47 64 75 64c26 0 37 -26 37 -50c0 -52 -46 -167 -116 -167c-57 0 -68 84 -68 151c0 28 1 42 13 213h-50c1 10 3 19 4 28
h48c5 75 11 159 17 230c14 3 28 5 43 5c-4 -72 -10 -158 -15 -235h95c0 -9 -2 -19 -4 -28h-93z" />
    <glyph glyph-name="r" unicode="r" horiz-adv-x="197" 
d="M157 165c-41 40 -43 141 -53 186c-15 -42 -34 -156 -41 -200l-10 -146c-14 -4 -28 -7 -43 -7l29 420c15 4 28 5 43 6l-8 -103c6 24 12 63 31 63c37 0 21 -152 77 -186c-9 -10 -17 -21 -25 -33z" />
    <glyph glyph-name="q" unicode="q" horiz-adv-x="338" 
d="M406 -69c20 -30 30 -66 30 -102c0 -49 -37 -178 -113 -178c-61 0 -75 139 -79 213c-2 34 -2 66 -2 97c0 34 0 65 1 89c-25 -39 -60 -64 -105 -64c-83 0 -128 56 -128 137c0 113 83 251 159 251c37 0 70 -28 90 -61c1 14 3 29 5 44c14 4 28 5 42 5
c-15 -154 -32 -314 -32 -468c0 -10 1 -20 1 -29c2 -52 13 -186 49 -186c24 0 70 55 70 149c0 77 -44 123 -108 147c2 10 4 19 4 28c48 -9 89 -31 116 -72zM246 127c2 41 4 81 7 120c-7 42 -35 100 -82 100c-63 0 -119 -145 -119 -224c0 -59 22 -109 87 -109
c56 0 92 57 107 113z" />
    <glyph glyph-name="p" unicode="p" horiz-adv-x="315" 
d="M271 321c23 -35 34 -77 34 -119c0 -96 -54 -216 -152 -216c-32 0 -70 14 -93 43l-24 -359c-14 -4 -28 -6 -43 -7l52 755c14 4 28 5 42 5l-9 -137c22 39 61 89 106 89c36 0 67 -24 87 -54zM256 144c6 26 8 49 8 69c0 77 -34 134 -82 134c-49 0 -96 -97 -110 -146l-8 -119
c14 -59 61 -68 86 -68c63 0 93 71 106 130z" />
    <glyph glyph-name="o" unicode="o" horiz-adv-x="301" 
d="M272 284c10 -26 14 -54 14 -82c0 -106 -60 -216 -152 -216c-83 0 -124 61 -124 148c0 16 1 32 4 48c13 -4 27 -6 41 -7c-5 -20 -9 -41 -9 -63c0 -61 33 -98 87 -98c75 0 112 99 112 195c0 106 -48 137 -82 137c-56 0 -82 -80 -82 -128c0 -54 30 -106 89 -134
c-4 -6 -8 -13 -12 -18c-75 36 -114 104 -114 176c0 79 54 133 114 133c56 0 95 -43 114 -91z" />
    <glyph glyph-name="n" unicode="n" horiz-adv-x="314" 
d="M286 341c10 -16 13 -39 13 -62c0 -84 -41 -173 -45 -275c-15 -3 -28 -6 -43 -6c0 129 45 196 45 292c0 36 -8 56 -35 56c-70 0 -133 -116 -155 -208l-9 -134c-15 -3 -28 -6 -43 -6l24 359c15 4 28 5 44 6l-9 -127c27 63 79 139 151 139c26 0 48 -10 62 -34z" />
    <glyph glyph-name="m" unicode="m" horiz-adv-x="437" 
d="M372 334c-6 8 -14 11 -22 11c-25 0 -88 -38 -116 -131c-8 -76 -13 -117 -19 -168c-6 -36 -2 -48 -49 -48c6 66 14 136 22 201c2 18 8 58 8 91c0 32 -5 55 -23 55c-55 0 -92 -121 -104 -178l-11 -163c-15 -3 -28 -6 -44 -6l25 359c15 4 28 5 43 5l-6 -84
c21 45 54 100 102 100c53 0 60 -64 60 -88c29 43 75 88 120 88c49 0 68 -50 68 -98c0 -93 -36 -176 -43 -276c-13 -3 -27 -6 -41 -6c0 127 40 200 40 288c0 19 -1 38 -10 48z" />
    <glyph glyph-name="l" unicode="l" horiz-adv-x="118" 
d="M103 671l-45 -665c-15 -4 -28 -6 -44 -6l47 665c13 4 28 5 42 6z" />
    <glyph glyph-name="k" unicode="k" horiz-adv-x="296" 
d="M259 82c7 -6 15 -12 23 -17c-27 -35 -59 -81 -104 -81c-72 0 -52 151 -96 196c-12 -4 -12 -27 -16 -40l-8 -136c-15 -3 -28 -6 -44 -6l47 665c13 4 28 6 42 7l-28 -411c27 67 83 162 148 162c23 0 43 -16 43 -45c0 -81 -98 -161 -154 -186c46 -45 46 -178 74 -178
c18 0 53 36 73 70zM88 209c66 33 139 127 139 175c0 3 -3 6 -11 6c-54 0 -110 -112 -131 -180c1 0 2 0 3 -1z" />
    <glyph glyph-name="j" unicode="j" horiz-adv-x="147" 
d="M115 31c3 -1 11 -5 23 -17c-14 -24 -40 -66 -58 -91c-12 -97 -22 -274 -122 -274c-36 0 -50 21 -50 53c0 68 65 127 125 203c25 229 22 247 40 452c14 3 28 5 42 5c-13 -234 -22 -323 -29 -382c4 6 11 20 29 51zM-43 -318c53 8 66 134 71 176c-45 -52 -92 -104 -92 -154
c0 -13 5 -23 17 -23c1 0 2 1 4 1zM78 420l4 58c14 4 28 6 43 7l-5 -59c-14 -4 -28 -5 -42 -6z" />
    <glyph glyph-name="i" unicode="i" horiz-adv-x="104" 
d="M39 357c15 4 28 5 43 6l-25 -359c-15 -3 -28 -6 -43 -6zM42 419l4 59c15 4 28 5 44 6l-5 -58c-14 -4 -28 -6 -43 -7z" />
    <glyph glyph-name="h" unicode="h" horiz-adv-x="314" 
d="M227 346h-6c-70 0 -133 -116 -155 -208l-9 -134c-15 -3 -28 -6 -43 -6l46 665c14 4 28 6 42 7l-29 -434c27 63 79 139 151 139c46 0 75 -33 75 -96c0 -84 -41 -173 -45 -275c-15 -3 -28 -6 -43 -6c0 129 45 196 45 292c0 32 -6 53 -29 56z" />
    <glyph glyph-name="g" unicode="g" horiz-adv-x="334" 
d="M335 440c11 -10 22 -18 34 -26c-35 -35 -80 -82 -87 -131c2 -9 4 -17 7 -25c-14 -4 -27 -6 -42 -6c-2 42 -23 95 -67 95c-77 0 -122 -162 -122 -233c0 -33 8 -67 34 -85c36 33 90 84 134 84c20 0 33 -16 33 -36c0 -39 -44 -93 -109 -93c-20 0 -39 4 -56 11
c-8 -11 -25 -31 -25 -45c0 -19 245 15 245 -137c0 -112 -100 -170 -200 -170c-78 0 -154 24 -154 94c0 47 34 109 103 143c1 -10 2 -19 4 -29c-42 -17 -72 -63 -72 -101c0 -56 71 -63 127 -63c81 0 160 30 160 111c0 72 -69 88 -124 92c-73 7 -124 12 -124 50
c0 25 24 54 37 68c-38 27 -54 72 -54 118c0 132 96 249 163 249c29 0 65 -20 81 -48c15 39 46 80 74 113zM180 67c-22 -13 -44 -32 -63 -50c8 -3 16 -3 23 -3c47 0 81 55 82 69h-3c-10 0 -30 -11 -39 -16z" />
    <glyph glyph-name="f" unicode="f" horiz-adv-x="169" 
d="M22 375h18c1 7 2 13 2 19c8 62 16 169 57 213c25 27 60 27 79 -8c13 -28 20 -81 1 -140c-9 8 -18 15 -29 22c16 23 19 79 1 104c-7 12 -15 8 -22 -3c-26 -34 -41 -148 -44 -192l-2 -15h52l-1 -14c-1 -5 -2 -9 -3 -14h-51c-1 -16 -2 -33 -3 -50c-6 -98 -8 -208 -14 -293
c-15 -3 -27 -6 -42 -6c4 83 9 184 13 289c1 21 3 41 4 60h-20c0 9 1 19 4 28z" />
    <glyph glyph-name="d" unicode="d" horiz-adv-x="338" 
d="M238 46c-23 -35 -56 -60 -99 -60c-44 0 -129 28 -129 140c0 92 68 249 158 249c38 0 70 -27 89 -59l24 347c14 4 28 7 42 7l-45 -666c-15 -4 -28 -6 -43 -6zM146 14c51 5 83 59 98 109l9 127c-12 61 -47 95 -82 97c-69 0 -120 -145 -120 -231c0 -70 40 -102 87 -102h8z
" />
    <glyph glyph-name="c" unicode="c" 
d="M228 83c7 -6 14 -12 22 -17c-24 -41 -58 -80 -115 -80c-89 0 -125 70 -125 138c0 94 74 251 160 251c47 0 60 -54 60 -93c0 -30 -7 -75 -20 -104c-12 4 -30 8 -43 10c12 16 31 46 31 104c0 25 -4 55 -30 55c-66 0 -116 -153 -116 -228c0 -54 24 -105 86 -105
c46 0 72 34 90 69z" />
    <glyph glyph-name="b" unicode="b" horiz-adv-x="319" 
d="M295 271c7 -21 10 -44 10 -67c0 -102 -58 -218 -151 -218c-36 0 -72 14 -96 44l-1 -26c-15 -4 -28 -6 -43 -6l46 665c14 4 28 7 42 7l-26 -384c15 47 51 89 104 89c54 0 97 -46 115 -104zM237 83c15 35 25 82 25 127c0 63 -25 137 -84 137c-52 0 -87 -57 -87 -117
c0 -64 37 -120 96 -146c-4 -6 -7 -12 -12 -18c-23 13 -91 52 -105 137l-8 -120c11 -46 46 -69 87 -69s70 31 88 69z" />
    <glyph glyph-name="one" unicode="1" horiz-adv-x="175" 
d="M2 395c0 17 -2 33 -7 50c48 36 102 90 131 150l1 10c15 3 28 5 43 5l-42 -606c-14 -3 -28 -6 -42 -6l36 528c-26 -45 -68 -86 -120 -131z" />
    <glyph glyph-name="zero" unicode="0" horiz-adv-x="430" 
d="M19 215c-1 16 -2 33 -2 50c0 155 59 360 223 360c88 0 177 -80 177 -283c0 -153 -60 -359 -227 -359c-90 0 -158 84 -171 232zM258 29c85 48 112 209 112 321c0 180 -68 243 -136 243c-132 0 -173 -199 -173 -335c0 -183 77 -244 142 -244c20 0 39 6 55 15z" />
    <glyph glyph-name="two" unicode="2" horiz-adv-x="367" 
d="M338 32c-4 -14 -5 -28 -6 -42c-43 13 -87 20 -132 20c-57 0 -114 -12 -173 -36l-23 26c42 90 134 189 162 220c67 74 142 159 142 255c0 55 -34 119 -96 119c-54 0 -106 -56 -106 -127c0 -27 8 -53 19 -81c-15 0 -29 -2 -43 -6c-13 26 -20 54 -20 83c0 95 76 159 151 159
s137 -68 137 -150c0 -161 -186 -289 -290 -452c30 6 87 22 168 22c33 0 69 -3 110 -10z" />
    <glyph glyph-name="three" unicode="3" horiz-adv-x="342" 
d="M337 486c4 -72 -39 -139 -94 -169c43 -21 70 -59 79 -104c12 -69 -15 -149 -76 -195c-80 -58 -207 -37 -238 53c-18 52 2 113 50 151c11 -9 22 -18 35 -25c-34 -31 -58 -67 -45 -114c19 -71 118 -93 178 -39c46 42 63 114 55 162s-41 78 -88 94c-15 -2 -27 -2 -38 -3
c0 13 2 27 6 41c17 -1 36 -4 53 -10c58 26 85 101 81 156c-4 61 -45 103 -92 110c-56 8 -97 -32 -107 -88c-5 -23 1 -58 10 -80c-15 -1 -29 -3 -44 -7c-13 29 -16 65 -8 97c17 76 83 114 153 106c67 -8 126 -60 130 -136z" />
    <glyph glyph-name="four" unicode="4" horiz-adv-x="383" 
d="M374 218c0 -15 2 -29 6 -44c-21 -9 -40 -17 -96 -19l-10 -151c-14 -3 -28 -6 -43 -6l11 157c-35 3 -64 7 -95 11c-34 4 -80 9 -118 -23c-11 11 -19 23 -27 35c78 124 96 255 95 400c14 4 28 5 42 6c2 -139 -13 -266 -79 -390c20 4 46 5 91 0c28 -3 59 -8 93 -8l29 419
c14 3 28 5 42 5l-29 -422c55 6 68 16 88 30z" />
    <glyph glyph-name="five" unicode="5" horiz-adv-x="402" 
d="M262 374c116 -52 117 -225 34 -321c-59 -68 -149 -79 -211 -56c-101 36 -110 159 -28 224c13 -7 24 -15 34 -26c-76 -68 -49 -144 6 -170c38 -19 118 -21 171 50c58 79 62 221 -20 270c-41 24 -110 25 -146 -19c-12 8 -21 15 -30 23c4 5 10 11 17 15c29 78 41 257 42 268
c115 -13 160 -12 257 -2c1 -15 2 -28 6 -42c-70 -7 -129 -12 -225 -2c-8 -60 -24 -148 -43 -205c42 12 96 11 136 -7z" />
    <glyph glyph-name="six" unicode="6" horiz-adv-x="370" 
d="M206 388c99 -2 154 -82 156 -172c2 -120 -84 -227 -200 -230c-107 -3 -160 86 -161 194c-2 186 128 412 351 509c1 -15 2 -27 6 -41c-130 -60 -227 -172 -279 -300c37 27 83 42 127 40zM162 14c98 3 159 102 158 201c0 78 -37 142 -115 146c-55 2 -115 -23 -146 -71
c-34 -124 -25 -280 103 -276z" />
    <glyph glyph-name="seven" unicode="7" horiz-adv-x="335" 
d="M306 624c9 -10 17 -21 24 -32c-41 -45 -100 -137 -152 -279c-36 -99 -67 -207 -86 -315c-14 0 -28 3 -42 6c20 109 51 219 89 322c31 85 71 172 129 252c-34 -8 -63 -14 -106 -17c-55 -5 -110 -2 -166 8c3 13 6 27 6 42c48 -15 96 -23 158 -21c48 2 104 11 146 34z" />
    <glyph glyph-name="eight" unicode="8" horiz-adv-x="334" 
d="M308 572c45 -72 20 -194 -62 -237c21 -11 38 -28 50 -48c42 -69 33 -181 -30 -249c-55 -59 -156 -72 -215 -17c-41 39 -51 101 -43 157c10 70 44 136 110 161c-30 19 -47 52 -52 88c-10 70 21 156 90 185c50 22 117 16 152 -40zM265 269c-32 60 -97 59 -133 45
c-55 -23 -78 -80 -83 -140c-6 -63 9 -105 29 -128c41 -49 121 -40 164 13c45 55 54 151 23 210zM224 361c62 31 80 132 50 191c-25 51 -80 46 -107 34c-58 -25 -65 -110 -60 -153c4 -27 14 -55 37 -71c24 -16 54 -14 80 -1z" />
    <glyph glyph-name="nine" unicode="9" horiz-adv-x="371" 
d="M159 222c-99 2 -154 81 -157 172c-1 120 84 227 200 230c108 2 160 -86 162 -194c2 -186 -128 -412 -351 -509c-1 14 -3 27 -6 41c130 60 227 172 279 300c-37 -28 -83 -42 -127 -40zM203 596c-98 -3 -159 -102 -158 -202c0 -77 37 -141 115 -145c54 -3 114 23 146 70
c34 124 24 280 -103 277z" />
    <glyph glyph-name="D" unicode="D" horiz-adv-x="827" 
d="M398 854h21c248 0 388 -256 388 -498c0 -218 -113 -424 -362 -424c-41 0 -86 6 -134 18c-17 -20 -39 -38 -66 -38c-23 0 -65 4 -65 30c0 31 57 37 78 37c11 0 21 -1 33 -3c17 24 27 56 35 84c72 256 13 554 115 726c17 0 32 -2 48 -7c-12 -21 -28 -46 -43 -106
c-23 -95 -27 -215 -36 -338c-8 -121 -29 -275 -85 -366c38 -10 74 -14 107 -14c224 0 326 197 326 404c0 227 -124 467 -346 467c-213 0 -361 -165 -361 -372c0 -131 63 -174 115 -174c42 0 72 30 72 60c0 22 -17 36 -34 36c-6 0 -13 -2 -19 -6c-3 6 -7 12 -9 19
c11 6 22 9 33 9c30 0 56 -25 56 -60c0 -48 -47 -86 -105 -86c-70 0 -147 50 -150 194c0 213 167 396 388 408zM243 -60c12 2 23 8 32 17c-6 1 -12 1 -18 1c-7 0 -43 0 -54 -14c7 -4 20 -4 30 -4h10z" />
    <glyph glyph-name="breve" unicode="&#x2d8;" horiz-adv-x="237" 
d="M205 502c0 -58 -44 -95 -88 -96c-51 -2 -91 42 -84 92c8 1 16 3 24 4c2 -40 28 -60 59 -60c31 1 58 25 65 56c8 2 16 3 24 4z" />
    <glyph glyph-name="dotaccent" unicode="&#x2d9;" horiz-adv-x="135" 
d="M45 420l4 58c14 4 28 6 43 6l-5 -58c-13 -4 -28 -6 -42 -6z" />
    <glyph glyph-name="ring" unicode="&#x2da;" horiz-adv-x="209" 
d="M176 481c-2 -35 -30 -65 -66 -70c-41 -6 -79 27 -77 69c1 37 30 70 67 74c42 4 79 -31 76 -73v0zM142 483c1 27 -21 47 -47 42c-22 -3 -41 -23 -41 -45c-1 -26 22 -46 48 -42c21 4 38 24 40 45v0z" />
    <glyph glyph-name="degree" unicode="&#xb0;" horiz-adv-x="170" 
d="M154 666c-2 -30 -23 -53 -50 -62c-30 -10 -67 -2 -84 26c-14 23 -11 52 5 73c18 25 53 36 83 27c29 -8 48 -35 46 -64v0zM126 667c2 27 -19 52 -47 47c-23 -4 -39 -27 -41 -50c0 -26 19 -49 46 -46c24 4 41 27 42 49v0z" />
    <glyph glyph-name="hungarumlaut" unicode="&#x2dd;" horiz-adv-x="271" 
d="M150 523l-105 -109c-5 4 -9 10 -13 16l97 122c8 -9 14 -18 21 -29zM239 523l-105 -109c-4 4 -9 10 -13 16l97 122c8 -9 15 -18 21 -29z" />
    <glyph glyph-name="ogonek" unicode="&#x2db;" horiz-adv-x="166" 
d="M149 -198c1 -8 3 -18 4 -27c-51 -11 -155 -37 -143 59c7 54 54 111 96 168c12 3 25 5 39 5c-103 -125 -154 -247 4 -205z" />
    <glyph glyph-name="caron" unicode="&#x2c7;" horiz-adv-x="226" 
d="M180 513c6 -6 10 -12 14 -19c-36 -40 -53 -60 -69 -78c-10 -2 -19 -4 -30 -5c-23 30 -33 45 -63 83c5 7 10 12 15 18c21 -15 45 -41 62 -60c20 20 49 46 71 61z" />
    <glyph glyph-name="dotlessi" unicode="&#x131;" horiz-adv-x="106" 
d="M40 357c14 4 28 5 42 6l-24 -359c-15 -3 -28 -6 -43 -6z" />
    <glyph glyph-name="fraction" unicode="&#x2044;" horiz-adv-x="370" 
d="M318 610c13 0 25 -2 37 -4l-308 -608c-13 1 -25 3 -37 5z" />
    <glyph glyph-name="backslash" unicode="\" horiz-adv-x="234" 
d="M10 726c12 3 24 4 36 5l174 -891c-11 -2 -23 -5 -34 -5z" />
    <glyph glyph-name="slash" unicode="/" horiz-adv-x="364" 
d="M314 726c12 -1 24 -3 36 -5l-304 -886c-12 1 -24 3 -36 5z" />
    <glyph glyph-name="Lslash" unicode="&#x141;" horiz-adv-x="824" 
d="M674 234c7 -7 12 -15 17 -23l-279 -90c-6 7 -12 15 -18 23zM833 -71c14 -3 28 -6 42 -6c-20 -67 -77 -99 -138 -99c-103 0 -199 86 -280 143c-34 -34 -76 -56 -127 -56c-45 0 -93 19 -93 69c0 38 38 73 92 73c43 0 85 -23 120 -46c54 74 73 175 84 265
c-71 -37 -153 -58 -233 -58c-186 0 -290 113 -290 252c0 112 78 209 175 209c31 0 65 -10 99 -32c-10 -10 -18 -21 -26 -33c-26 18 -52 26 -76 26c-75 0 -140 -80 -140 -175c0 -116 89 -219 262 -219c77 0 159 21 232 62c6 67 7 160 22 270c13 106 47 280 156 280
c65 0 100 -76 100 -147c0 -143 -101 -317 -235 -407c-13 -107 -38 -226 -103 -310c68 -47 161 -129 257 -129c53 0 91 33 100 68zM604 569c-11 -102 -18 -205 -21 -235c122 89 205 245 205 371c0 55 -24 119 -72 121c-84 0 -102 -166 -112 -257zM344 -60c34 4 63 20 87 46
c-30 20 -67 40 -103 40c-39 0 -64 -22 -64 -46c0 -30 33 -41 63 -41c6 0 11 0 17 1z" />
    <glyph glyph-name="exclam" unicode="!" horiz-adv-x="177" 
d="M91 663c15 4 28 6 43 7l-45 -550c-10 -2 -19 -3 -29 -4zM45 -2l4 58c14 4 28 6 43 6l-5 -58c-13 -4 -28 -6 -42 -6z" />
    <glyph glyph-name="A" unicode="A" horiz-adv-x="1014" 
d="M1154 -162c15 -4 28 -5 44 -6c-19 -30 -42 -68 -113 -68c-143 0 -185 219 -198 330c-21 -34 -56 -50 -86 -50c-35 0 -65 20 -65 57c0 33 24 62 55 62c5 0 10 0 15 -1c-2 -8 -4 -15 -6 -21c-2 1 -5 1 -6 1c-20 0 -32 -21 -32 -37c0 -21 18 -33 39 -33c37 0 76 32 76 108
c0 110 -35 208 -128 282c-93 -240 -215 -551 -490 -551c-157 0 -249 103 -249 239c0 48 11 99 35 150c81 175 251 275 437 275c86 0 172 -21 244 -65c68 158 135 266 186 332c16 0 31 -2 46 -5c-32 -156 -40 -319 -40 -479c0 -100 4 -200 17 -295c13 -97 43 -270 146 -270
c32 0 63 13 73 45zM606 230c28 58 68 157 110 255c-66 41 -146 63 -226 63c-172 0 -331 -90 -408 -265c-20 -46 -31 -93 -31 -136c0 -114 71 -205 203 -208c161 0 276 138 352 291zM759 488c49 -38 88 -82 114 -139c0 160 8 289 33 437c-36 -43 -87 -144 -147 -298z" />
    <glyph glyph-name="B" unicode="B" horiz-adv-x="808" 
d="M747 343c39 -65 50 -142 35 -214c-16 -75 -59 -140 -124 -179c-53 -32 -116 -43 -177 -39c-67 4 -119 26 -170 38c-17 -21 -39 -36 -66 -38c-27 -1 -69 8 -64 34c3 22 41 31 62 33c16 1 33 0 49 -3c13 20 22 46 30 69c24 78 36 186 42 268c7 113 10 242 32 347
c9 43 22 88 45 127c17 0 33 -3 49 -7c-16 -25 -33 -57 -48 -129c-20 -100 -24 -225 -33 -341c-7 -87 -23 -195 -54 -276c-8 -23 -17 -45 -30 -64c46 -11 99 -28 157 -30c55 -1 110 11 156 42c53 36 88 93 100 157c12 63 4 131 -24 188c-36 73 -100 118 -173 132
c-35 -8 -73 -11 -107 -1c1 9 2 19 4 29c31 3 72 -2 103 -7c33 10 65 32 89 67c49 72 53 168 -20 228c-56 44 -137 55 -208 52c-96 -4 -182 -38 -249 -105c-71 -70 -105 -173 -103 -272c2 -126 54 -169 111 -169c49 0 83 33 73 67c-4 19 -24 34 -52 20c-3 6 -6 12 -8 19
c35 22 74 4 86 -31c18 -57 -33 -104 -100 -104c-70 0 -148 51 -150 195c-2 100 44 213 124 293c68 67 157 109 267 115c76 4 169 -7 231 -50c98 -66 103 -197 24 -280c-22 -22 -48 -41 -77 -53c73 -21 131 -66 168 -128zM243 -61c13 2 23 7 33 17c-38 4 -67 -6 -73 -13
c10 -5 35 -5 40 -4z" />
    <glyph glyph-name="C" unicode="C" horiz-adv-x="846" 
d="M691 305c9 4 17 6 27 6c55 0 112 -76 112 -166c0 -114 -105 -231 -256 -235c-155 0 -260 98 -276 303c-143 1 -288 83 -288 252c0 103 73 209 175 209c31 0 64 -9 97 -31c-9 -10 -17 -21 -24 -33c-26 18 -52 26 -77 26c-80 0 -140 -88 -140 -174
c0 -150 130 -220 256 -221c0 8 -1 16 -1 24c0 66 10 137 28 205c43 163 168 384 357 384c93 0 141 -74 141 -161c0 -133 -109 -287 -180 -350c-80 -72 -188 -118 -296 -128c12 -165 90 -271 228 -276c136 0 228 105 228 205c0 77 -48 139 -87 139c-19 0 -33 -16 -33 -33
c0 -10 4 -20 15 -30c-5 -6 -9 -11 -14 -17c-17 14 -25 31 -25 49c0 22 12 42 33 53zM370 458c-17 -66 -26 -136 -26 -200v-15c101 11 201 57 274 127c64 62 164 210 164 334c0 62 -27 122 -100 122c-102 0 -250 -134 -312 -368z" />
    <glyph glyph-name="exclamdown" unicode="&#xa1;" horiz-adv-x="177" 
d="M87 -68c-14 -4 -28 -6 -42 -6l45 549c9 2 19 3 28 4zM134 598l-4 -59c-15 -4 -28 -5 -44 -6l5 58c14 4 28 6 43 7z" />
    <glyph glyph-name="question" unicode="?" horiz-adv-x="402" 
d="M376 558c29 -88 8 -200 -96 -300c-38 -36 -91 -65 -96 -138c-9 -2 -18 -3 -28 -4c2 78 44 112 98 167c68 68 114 149 81 263c-21 71 -71 117 -145 108c-81 -12 -129 -86 -140 -159c-13 -75 16 -169 92 -173c55 -4 110 40 96 92c12 1 24 3 35 5c9 -74 -63 -125 -131 -121
c-94 6 -143 109 -128 203c16 95 90 163 172 177c92 16 164 -38 190 -120zM146 -2l4 58c14 4 28 6 43 6l-5 -58c-14 -4 -28 -6 -42 -6z" />
    <glyph glyph-name="questiondown" unicode="&#xbf;" horiz-adv-x="402" 
d="M22 37c-28 88 -8 201 96 301c38 35 92 64 96 137c9 2 19 3 28 4c-1 -77 -44 -112 -98 -167c-67 -68 -114 -149 -81 -262c21 -72 71 -118 146 -108c81 11 129 85 140 158c13 75 -16 169 -93 173c-54 4 -110 -39 -96 -92c-12 -1 -23 -3 -34 -5c-9 74 63 126 131 121
c93 -6 142 -109 128 -203c-16 -95 -91 -163 -172 -176c-93 -16 -164 37 -191 119zM254 598l-4 -59c-14 -4 -28 -5 -43 -6l5 58c14 4 28 6 42 7z" />
    <glyph glyph-name="numbersign" unicode="#" horiz-adv-x="456" 
d="M430 261c-1 -9 -3 -19 -4 -28h-125l-12 -174c-12 -3 -24 -5 -36 -5l13 179h-92l-12 -175c-12 -2 -24 -4 -36 -4l12 179h-128c1 9 3 19 4 28h126l10 142h-128c1 10 3 19 4 28h126l12 175c11 2 23 4 35 4l-12 -179h92l12 175c11 2 23 4 35 4l-12 -179h128
c-1 -9 -3 -18 -4 -28h-126l-10 -142h128zM267 261l10 142h-92l-10 -142h92z" />
    <glyph glyph-name="dollar" unicode="$" horiz-adv-x="347" 
d="M278 301c40 -54 63 -112 51 -179c-12 -68 -60 -116 -121 -131l-7 -106c-10 -2 -19 -3 -29 -4l7 106c-6 -1 -13 -1 -19 0c-6 0 -12 1 -18 2l-8 -104c-9 -2 -18 -3 -28 -4l8 115c-57 20 -103 74 -104 169c15 -3 28 -5 43 -6c-11 -64 17 -113 63 -134l25 358
c-21 22 -40 44 -53 67c-42 72 -10 150 55 173c5 2 10 3 15 4l6 95c10 1 18 3 28 4l-6 -94c12 1 25 0 37 -2l7 92c9 1 19 3 28 4l-7 -104c14 -5 27 -12 37 -23c25 -25 31 -53 34 -86c-14 3 -28 5 -42 5c3 22 -1 43 -14 60c-5 5 -11 9 -17 13l-16 -237c16 -17 31 -35 45 -53z
M222 602c-12 3 -25 3 -38 0l-13 -185c11 -12 23 -24 35 -36zM126 472c5 -9 12 -18 19 -26l10 143c-41 -27 -56 -71 -29 -117zM162 15c6 0 12 0 20 1l20 305c-12 12 -24 24 -35 36l-23 -340c6 -1 11 -2 18 -2zM289 129c7 54 -10 98 -46 145c-5 6 -9 12 -15 18l-18 -269
c38 15 71 50 79 106z" />
    <glyph glyph-name="percent" unicode="%" horiz-adv-x="474" 
d="M74 298c55 -18 121 27 128 116c3 43 -8 92 -43 116c-39 28 -113 17 -140 -63c-20 -64 -6 -150 55 -169zM166 418c-6 -52 -39 -107 -84 -92c-39 13 -44 84 -28 130c24 70 67 74 90 55c24 -20 26 -63 22 -93zM330 65c55 -18 121 28 128 117c4 43 -8 92 -43 116
c-39 28 -113 16 -139 -63c-21 -64 -6 -151 54 -170zM423 186c-6 -52 -40 -107 -84 -92c-40 13 -45 83 -29 129c24 71 68 75 91 55s25 -62 22 -92zM370 610c13 0 25 -2 37 -4l-308 -608c-13 1 -25 3 -37 5z" />
    <glyph glyph-name="parenleft" unicode="(" horiz-adv-x="176" 
d="M142 -174c-60 28 -91 104 -107 168c-25 98 -29 222 -21 324c10 121 39 273 98 378c22 38 53 78 93 96c5 -8 11 -16 17 -22c-24 -14 -51 -35 -79 -91c-52 -101 -78 -251 -87 -364c-7 -101 -6 -215 15 -313c12 -54 37 -130 87 -152c-6 -8 -12 -16 -16 -24z" />
    <glyph glyph-name="parenright" unicode=")" horiz-adv-x="182" 
d="M37 792c60 -28 90 -103 106 -167c26 -99 29 -223 21 -325c-10 -121 -38 -273 -98 -378c-22 -38 -52 -78 -92 -96c-6 8 -12 16 -18 23c25 13 51 34 79 90c52 101 79 251 87 364c8 101 7 215 -15 313c-12 54 -37 130 -87 153c6 8 12 15 17 23z" />
    <glyph glyph-name="asterisk" unicode="*" horiz-adv-x="274" 
d="M168 590c25 -3 51 -7 71 -12c-1 -8 -1 -14 -2 -21c-21 -2 -47 -2 -72 0c13 -31 21 -54 25 -69c-7 -2 -13 -6 -20 -7c-8 12 -21 33 -36 61c-20 -26 -36 -44 -47 -55c-5 4 -11 8 -17 13c7 14 19 35 36 62c-32 4 -56 9 -72 12c1 8 2 15 4 22c15 1 40 2 72 0
c-11 22 -20 47 -25 68c6 3 13 6 19 8c12 -17 25 -40 36 -62c15 20 32 40 47 56c6 -4 11 -9 16 -13c-8 -19 -21 -42 -35 -63z" />
    <glyph glyph-name="plus" unicode="+" horiz-adv-x="354" 
d="M319 315c-1 -12 -2 -23 -5 -35h-121l-9 -128c-12 -3 -23 -5 -35 -5l9 133h-124c1 12 3 24 5 35h121l9 128c12 3 23 5 35 6l-9 -134h124z" />
    <glyph glyph-name="comma" unicode="," horiz-adv-x="134" 
d="M90 62c0 -58 -29 -117 -65 -164c-8 5 -16 11 -23 17c49 65 41 90 45 141c14 4 28 6 43 6v0v0z" />
    <glyph glyph-name="hyphen" unicode="-" horiz-adv-x="354" 
d="M319 315c-1 -12 -2 -23 -5 -35h-280c1 12 3 24 5 35h280z" />
    <glyph glyph-name="period" unicode="." horiz-adv-x="135" 
d="M45 -2l4 58c14 4 28 6 43 6l-5 -58c-13 -4 -28 -6 -42 -6z" />
    <glyph glyph-name="colon" unicode=":" horiz-adv-x="154" 
d="M45 -2l4 58c14 4 28 6 43 6l-5 -58c-13 -4 -28 -6 -42 -6zM63 264l4 58c14 4 28 6 43 6l-5 -58c-13 -4 -28 -6 -42 -6z" />
    <glyph glyph-name="semicolon" unicode=";" horiz-adv-x="152" 
d="M62 265l4 58c14 4 28 6 43 6l-5 -58c-13 -4 -28 -6 -42 -6zM90 62c0 -58 -29 -117 -65 -164c-8 5 -16 11 -23 17c49 65 41 90 45 141c14 4 28 6 43 6v0v0z" />
    <glyph glyph-name="less" unicode="&#x3c;" horiz-adv-x="431" 
d="M371 130l-337 149c1 13 4 26 7 39l356 148c-1 -14 -3 -27 -6 -40l-310 -129l295 -131c-1 -13 -2 -24 -5 -36z" />
    <glyph glyph-name="minus" unicode="&#x2212;" horiz-adv-x="354" 
d="M319 315c-1 -12 -2 -23 -5 -35h-280c1 12 3 24 5 35h280z" />
    <glyph glyph-name="copyright" unicode="&#xa9;" horiz-adv-x="407" 
d="M253 384c38 -27 17 -85 -29 -98c-24 -8 -62 -7 -82 21c-11 15 -16 34 -18 51c-16 1 -32 6 -44 16c-27 22 -31 62 -12 88c14 20 39 28 64 12c-4 -5 -10 -13 -14 -20c-12 11 -25 8 -35 -4c-15 -17 -13 -48 7 -64c9 -7 21 -11 32 -12c0 40 12 80 33 109c33 48 80 49 99 33
c15 -13 23 -39 4 -78c-24 -47 -61 -72 -104 -79c1 -17 4 -27 10 -37c13 -22 34 -28 55 -20c35 12 34 57 23 69c-4 6 -10 5 -12 2c0 -3 0 -5 4 -7c-3 -3 -6 -7 -8 -9c-7 5 -9 12 -8 18c3 12 17 22 35 9zM179 468c-17 -27 -25 -62 -26 -92c39 8 66 35 83 72c8 16 14 42 6 55
c-17 21 -48 -10 -63 -35zM188 186c-46 0 -90 18 -122 53c-39 42 -59 103 -55 166c4 58 27 113 66 153c38 42 88 64 139 64c46 0 89 -18 122 -53c39 -42 59 -103 54 -166c-4 -58 -27 -113 -65 -153c-38 -42 -88 -64 -139 -64zM216 594c-90 0 -170 -85 -177 -191
c-4 -56 14 -109 47 -145c28 -28 64 -44 102 -44c90 0 169 85 176 191c4 56 -13 109 -47 145c-27 28 -63 44 -101 44z" />
    <glyph glyph-name="dieresis" unicode="&#xa8;" horiz-adv-x="226" 
d="M35 466c12 4 24 5 36 6l-3 -46c-12 -4 -24 -5 -36 -6zM158 466c12 4 24 5 36 6l-4 -46c-12 -4 -23 -5 -35 -6z" />
    <glyph glyph-name="plusminus" unicode="&#xb1;" horiz-adv-x="368" 
d="M333 384c-1 -12 -2 -23 -5 -35h-121l-9 -128c-12 -3 -23 -5 -35 -5l9 133h-124c1 12 3 24 5 35h121l9 128c12 3 23 5 35 6l-9 -134h124zM319 169c-1 -12 -2 -23 -5 -35h-280c1 12 3 24 5 35h280z" />
    <glyph glyph-name="mu" unicode="&#xb5;" horiz-adv-x="286" 
d="M213 110c-25 -64 -69 -125 -123 -125c-18 0 -31 5 -40 15l-21 -303c-15 -3 -28 -6 -43 -6l32 459c0 73 7 141 14 207c13 2 26 5 39 5h3c-1 -23 -3 -46 -4 -70l-9 -128c-1 -15 -1 -31 -1 -47c0 -79 11 -103 35 -103c74 0 112 152 127 233l8 110c14 4 28 5 42 6l-25 -359
c-14 -3 -28 -6 -42 -6z" />
    <glyph glyph-name="endash" unicode="&#x2013;" horiz-adv-x="354" 
d="M319 315c-1 -12 -2 -23 -5 -35h-280c1 12 3 24 5 35h280z" />
    <glyph glyph-name="greater" unicode="&#x3e;" horiz-adv-x="431" 
d="M60 466l337 -150c-1 -13 -3 -26 -7 -38l-356 -148c1 13 3 26 6 40l310 128l-295 132c1 12 3 24 5 36z" />
    <glyph glyph-name="equal" unicode="=" horiz-adv-x="430" 
d="M396 378c0 -12 -2 -23 -5 -35h-357c1 12 3 24 5 35h357zM396 260c0 -12 -2 -23 -5 -35h-357c1 12 3 24 5 35h357z" />
    <glyph glyph-name="at" unicode="@" horiz-adv-x="675" 
d="M560 546c97 -111 105 -319 30 -427c-46 -65 -106 -73 -136 -51c-18 12 -27 36 -30 65c-2 -7 -6 -13 -10 -19c-4 -7 -9 -13 -15 -19c-21 -25 -49 -40 -81 -41c-58 -3 -99 34 -101 91c-2 56 33 115 101 145c35 16 70 20 108 20c-5 47 -24 78 -45 92c-25 18 -59 16 -81 4
c-8 -5 -13 -10 -15 -16c10 -4 17 -15 17 -27c0 -16 -12 -29 -28 -29c-45 0 -38 78 12 100c31 13 76 15 111 -8c41 -27 73 -84 71 -156c-2 -53 -20 -157 4 -178c17 -15 61 -7 92 44c54 87 46 282 -35 383s-220 114 -322 18c-77 -73 -131 -201 -127 -339
c2 -100 34 -198 118 -256c85 -60 192 -56 283 -7c1 -7 3 -15 3 -22c-105 -63 -219 -59 -307 -2c-96 62 -138 172 -142 286c-5 134 47 283 150 366c121 99 285 86 375 -17zM419 184c3 36 7 82 7 98c-32 3 -67 -2 -96 -18c-48 -27 -72 -79 -72 -118c0 -40 24 -62 59 -63
c24 -1 46 12 63 30c18 18 30 44 39 71z" />
    <glyph glyph-name="bracketleft" unicode="[" horiz-adv-x="161" 
d="M150 -142c-3 -15 -5 -29 -5 -44c-108 58 -123 66 -135 72c8 148 17 293 26 423c8 124 21 297 32 421c18 9 118 61 133 68c0 -14 2 -28 6 -42l-112 -44c-4 -78 -12 -226 -25 -406c-8 -126 -19 -272 -31 -403z" />
    <glyph glyph-name="bracketright" unicode="]" horiz-adv-x="167" 
d="M13 755c3 15 5 29 5 43c108 -57 123 -65 135 -72c-7 -147 -17 -292 -26 -422c-8 -124 -21 -298 -32 -422c-17 -8 -118 -60 -133 -68c0 15 -2 28 -6 43l112 44c4 77 12 226 25 405c9 127 19 272 31 404z" />
    <glyph glyph-name="asciicircum" unicode="^" horiz-adv-x="257" 
d="M242 425c-12 -3 -23 -4 -35 -5l-62 201l-99 -201c-12 1 -24 2 -36 6l117 237c13 3 26 6 39 7z" />
    <glyph glyph-name="underscore" unicode="_" horiz-adv-x="354" 
d="M319 55c-1 -12 -2 -23 -5 -35h-280c1 12 3 24 5 35h280z" />
    <glyph glyph-name="grave" unicode="`" horiz-adv-x="219" 
d="M63 518c30 -43 66 -78 124 -86c-1 -7 -3 -14 -5 -21c-66 6 -112 44 -150 90c10 7 20 13 31 17z" />
    <glyph glyph-name="lslash" unicode="&#x142;" horiz-adv-x="118" 
d="M135 402c9 -6 17 -12 24 -18l-176 -122c-9 5 -17 11 -24 17zM103 671l-45 -665c-15 -4 -28 -6 -44 -6l47 665c13 4 28 5 42 6z" />
    <glyph glyph-name="braceleft" unicode="{" horiz-adv-x="206" 
d="M188 -142c-3 -15 -6 -28 -6 -42c-80 13 -145 45 -162 125c-26 121 67 293 61 326c-4 22 -49 23 -71 23c1 12 3 24 5 36c39 0 70 5 72 39c4 45 -37 163 -17 273c17 100 80 147 176 164c0 -15 3 -28 6 -42c-89 -9 -134 -52 -150 -127c-22 -107 17 -222 13 -271
c-1 -25 -13 -43 -34 -54c14 -8 25 -19 28 -36c8 -47 -83 -210 -55 -323c15 -64 68 -85 134 -91z" />
    <glyph glyph-name="bar" unicode="|" horiz-adv-x="188" 
d="M110 777c11 3 23 5 35 5l-65 -942c-11 -2 -23 -5 -35 -5z" />
    <glyph glyph-name="braceright" unicode="}" horiz-adv-x="212" 
d="M20 760c3 14 6 28 6 42c80 -13 145 -45 162 -125c26 -122 -67 -293 -61 -327c4 -21 49 -22 71 -23c-1 -12 -3 -23 -5 -35c-39 0 -70 -6 -72 -39c-4 -45 37 -163 17 -274c-17 -99 -80 -146 -176 -163c0 14 -3 28 -6 42c89 8 134 52 150 127c22 106 -17 221 -13 270
c1 26 13 43 34 55c-14 8 -25 19 -28 36c-8 47 83 209 55 323c-15 64 -68 85 -134 91z" />
    <glyph glyph-name="asciitilde" unicode="~" horiz-adv-x="443" 
d="M393 307c5 -7 11 -13 16 -21c-32 -38 -75 -45 -125 -32c-39 11 -78 33 -114 47c-45 17 -80 18 -120 -14c-5 7 -11 14 -16 21c41 46 92 47 149 26c47 -16 92 -44 132 -50c32 -5 54 5 78 23z" />
    <glyph glyph-name="Euro" unicode="&#x20ac;" horiz-adv-x="390" 
d="M342 109c14 -4 28 -6 42 -6c-34 -91 -103 -126 -175 -115c-105 18 -139 142 -138 251h-73c1 10 3 19 4 28h70c2 21 4 41 7 61h-74c1 10 1 18 4 28h76c17 77 47 142 84 189c56 73 129 100 174 58c47 -42 36 -127 19 -188c-14 4 -28 6 -43 7c23 49 43 125 5 160
c-37 36 -100 -14 -130 -56c-32 -46 -53 -108 -67 -170h65c0 -10 -2 -18 -4 -28h-66c-4 -21 -6 -41 -8 -61h72c0 -9 -2 -18 -4 -28h-70c-4 -93 13 -208 102 -223c64 -11 117 31 128 93z" />
    <glyph glyph-name="florin" unicode="&#x192;" horiz-adv-x="374" 
d="M370 471c-11 3 -22 4 -34 5c12 64 2 115 -13 118c-18 4 -29 -32 -34 -50c-9 -35 -15 -99 -22 -169h71c-1 -9 -2 -18 -4 -28h-69c-6 -64 -11 -130 -19 -183c-10 -82 -28 -204 -84 -264c-44 -48 -125 -42 -148 26c-20 61 4 154 24 195c16 -3 31 -6 46 -6
c-46 -65 -54 -142 -42 -179c15 -50 71 -50 98 -16c38 46 55 179 63 249c7 69 13 127 18 178h-71c0 10 2 19 4 28h69c8 71 16 128 34 179c13 36 35 76 72 68c46 -11 44 -104 41 -151z" />
    <glyph glyph-name="ellipsis" unicode="&#x2026;" horiz-adv-x="390" 
d="M45 -2l4 58c14 4 28 6 43 6l-5 -58c-13 -4 -28 -6 -42 -6zM172 -2l4 58c14 4 28 6 43 6l-5 -58c-13 -4 -28 -6 -42 -6zM299 -2l4 58c14 4 28 6 43 6l-5 -58c-13 -4 -28 -6 -42 -6z" />
    <glyph glyph-name="dagger" unicode="&#x2020;" horiz-adv-x="223" 
d="M110 663c14 4 28 6 42 7l-62 -780c-8 -2 -18 -4 -28 -4zM13 334h195c0 -10 -1 -18 -3 -28h-195c0 10 2 19 3 28z" />
    <glyph glyph-name="daggerdbl" unicode="&#x2021;" horiz-adv-x="231" 
d="M114 663c14 4 28 6 42 7l-62 -780c-8 -2 -18 -4 -28 -4zM13 273h195c0 -10 -1 -18 -3 -28h-195c0 10 2 19 3 28zM21 396h195c0 -10 -1 -18 -3 -28h-195c0 10 2 19 3 28z" />
    <glyph glyph-name="circumflex" unicode="&#x2c6;" horiz-adv-x="226" 
d="M46 411c-5 6 -10 12 -14 19c37 40 54 60 70 78c9 2 19 4 29 5c23 -30 34 -45 63 -83c-4 -7 -9 -12 -15 -18c-21 15 -45 41 -61 60c-20 -20 -49 -46 -72 -61z" />
    <glyph glyph-name="perthousand" unicode="&#x2030;" horiz-adv-x="670" 
d="M526 65c55 -18 121 28 128 117c4 43 -8 92 -43 116c-39 28 -113 16 -139 -63c-21 -64 -6 -151 54 -170zM619 186c-6 -52 -40 -107 -84 -92c-40 13 -45 83 -29 129c24 71 68 75 91 55s25 -62 22 -92zM74 298c55 -18 121 27 128 116c3 43 -8 92 -43 116
c-39 28 -113 17 -140 -63c-20 -64 -6 -150 55 -169zM166 418c-6 -52 -39 -107 -84 -92c-39 13 -44 84 -28 130c24 70 67 74 90 55c24 -20 26 -63 22 -93zM330 65c55 -18 121 28 128 117c4 43 -8 92 -43 116c-39 28 -113 16 -139 -63c-21 -64 -6 -151 54 -170zM423 186
c-6 -52 -40 -107 -84 -92c-40 13 -45 83 -29 129c24 71 68 75 91 55s25 -62 22 -92zM370 610c13 0 25 -2 37 -4l-308 -608c-13 1 -25 3 -37 5z" />
    <glyph glyph-name="guilsinglleft" unicode="&#x2039;" horiz-adv-x="190" 
d="M150 127l-140 171l165 176c1 -21 -1 -40 -6 -59l-112 -119l100 -122c0 -16 -3 -32 -7 -47z" />
    <glyph glyph-name="guilsinglright" unicode="&#x203a;" horiz-adv-x="190" 
d="M36 468l140 -170l-165 -176c-1 20 2 39 7 58l112 119l-100 122c0 17 2 32 6 47z" />
    <glyph glyph-name="guillemotleft" unicode="&#xab;" horiz-adv-x="304" 
d="M152 127l-140 171l165 176c1 -21 -1 -40 -6 -59l-112 -119l100 -122c0 -16 -3 -32 -7 -47zM266 127l-140 171l165 176c1 -21 -1 -40 -6 -59l-112 -119l100 -122c0 -16 -3 -32 -7 -47z" />
    <glyph glyph-name="guillemotright" unicode="&#xbb;" horiz-adv-x="304" 
d="M33 468l140 -170l-165 -176c-1 20 2 39 7 58l112 119l-100 122c0 17 2 32 6 47zM146 468l140 -170l-165 -176c-1 20 2 39 7 58l112 119l-100 122c0 17 2 32 6 47z" />
    <glyph glyph-name="bullet" unicode="&#x2022;" horiz-adv-x="170" 
d="M154 297c-2 -30 -23 -53 -50 -62c-30 -10 -67 -1 -84 27c-14 22 -11 52 5 72c18 25 53 36 83 28c29 -9 48 -36 46 -65v0z" />
    <glyph glyph-name="emdash" unicode="&#x2014;" horiz-adv-x="481" 
d="M446 315c0 -12 -1 -23 -4 -35h-408c1 12 3 24 5 35h407z" />
    <glyph glyph-name="tilde" unicode="&#x2dc;" horiz-adv-x="277" 
d="M228 480c6 -6 12 -11 17 -17c-20 -25 -51 -51 -82 -55c-60 -6 -81 67 -92 91c-5 -8 -12 -21 -17 -31c-8 2 -15 5 -22 8c6 22 16 59 39 61c18 1 27 -17 35 -33c15 -31 28 -64 54 -62c22 0 51 24 68 38z" />
    <glyph glyph-name="trademark" unicode="&#x2122;" horiz-adv-x="503" 
d="M240 618h3c14 0 21 -8 21 -16c0 -18 -32 -25 -50 -28c-4 -8 -6 -58 -7 -67c-5 -102 -48 -133 -87 -133c-29 0 -42 18 -42 36c0 13 11 34 28 34c11 0 20 -9 20 -19c0 -6 -3 -11 -8 -14c-3 5 -4 7 -7 11c2 0 2 3 2 4c-1 2 -3 4 -4 4c-4 0 -8 -7 -8 -13c0 -14 11 -25 26 -25
c63 0 47 135 60 181c-26 0 -63 12 -94 12c-33 0 -59 -20 -59 -55c0 -30 19 -46 40 -46c24 0 50 18 50 52c8 -2 16 -3 24 -3c-9 -44 -42 -65 -72 -65c-34 0 -64 21 -66 60c0 48 34 78 77 78c30 0 83 -17 102 -17h5c12 16 29 28 46 29zM451 363c8 -2 15 -4 23 -5
c-11 -14 -24 -20 -36 -20c-48 0 -51 79 -51 120c-9 -3 -18 -4 -28 -4c-14 0 -28 2 -39 10c-6 -61 -18 -90 -45 -90c-22 0 -36 18 -36 36c0 16 14 34 30 34c10 0 18 -9 18 -18c0 -6 -2 -12 -8 -15c-2 3 -5 7 -6 11c1 0 1 1 1 2c0 2 -2 6 -4 6c-3 0 -8 -6 -8 -13
c0 -11 8 -25 18 -25c17 0 23 58 25 86c-20 24 -26 56 -26 86c0 27 4 40 14 40c39 0 1 -134 71 -134c8 0 15 2 23 4c3 52 15 144 63 144c24 0 39 -21 39 -45c0 -44 -35 -81 -73 -102c-1 -12 -1 -26 -1 -38c0 -19 -5 -79 25 -79c6 0 11 3 11 9zM439 587
c-15 -23 -21 -72 -22 -99c29 17 57 47 57 82c0 13 -6 30 -17 30c-7 0 -13 -6 -18 -13z" />
    <glyph glyph-name="cent" unicode="&#xa2;" horiz-adv-x="266" 
d="M229 202c7 -7 14 -12 22 -18c-18 -32 -42 -61 -78 -74c-12 -4 -25 -6 -39 -6l-6 -102c-10 -1 -19 -3 -29 -4l8 109c-17 4 -33 11 -45 19c-48 35 -57 99 -48 158c9 53 33 106 64 146c14 20 34 40 55 52l9 124c8 2 18 4 28 4l-8 -117c14 2 28 -1 40 -11
c23 -18 28 -53 28 -82c0 -30 -6 -74 -18 -103c-13 4 -31 7 -44 9c12 16 28 43 31 95c1 18 0 48 -14 59c-7 6 -16 7 -26 4l-22 -332c9 0 18 1 27 4c31 10 50 36 65 66zM82 153c8 -7 16 -12 27 -15l21 307c-10 -10 -20 -22 -26 -33c-25 -38 -42 -91 -48 -134
c-6 -42 -6 -97 26 -125z" />
    <glyph glyph-name="sterling" unicode="&#xa3;" horiz-adv-x="541" 
d="M503 67c7 -6 15 -12 23 -17c-28 -72 -139 -74 -188 -68c-53 8 -110 31 -160 50c-27 -30 -57 -44 -92 -46c-58 -4 -80 31 -75 59c4 19 19 37 45 45c34 10 76 0 110 -11c24 54 36 128 44 205h-69c0 9 1 18 4 28h69c2 26 4 53 7 78c6 62 16 170 70 216c27 23 61 23 86 -1
c49 -49 30 -143 5 -210c-10 11 -21 19 -34 27c34 61 38 132 9 163c-14 13 -31 14 -47 0c-34 -32 -40 -118 -46 -199c-2 -22 -4 -48 -6 -74h70c-1 -10 -2 -19 -4 -28h-69c-8 -78 -22 -161 -53 -217c45 -16 94 -37 142 -45c52 -8 138 -6 159 45zM85 14c24 1 43 12 59 30
c-23 9 -56 18 -80 14c-10 -3 -21 -8 -23 -19c-4 -16 14 -27 44 -25z" />
    <glyph glyph-name="currency" unicode="&#xa4;" horiz-adv-x="346" 
d="M244 308c-1 -10 -4 -21 -10 -30l98 -101c-6 -11 -14 -19 -22 -28l-90 113c-7 -7 -16 -12 -26 -16c-24 -8 -54 -3 -73 15l-89 -112c-8 9 -15 17 -22 28l97 101c-10 22 -7 49 7 68l-96 101c7 11 14 19 22 28l90 -113c20 13 46 18 68 11c8 -3 16 -6 22 -11l90 113
c8 -9 16 -17 22 -28l-97 -101c7 -12 11 -24 9 -38zM174 262c24 3 43 27 43 52s-20 48 -47 43c-24 -4 -40 -27 -41 -50c-1 -25 18 -49 45 -45z" />
    <glyph glyph-name="yen" unicode="&#xa5;" horiz-adv-x="347" 
d="M295 430c-17 -42 -45 -91 -82 -118h79c-1 -10 -2 -19 -4 -28h-113l-4 -61h115c-1 -9 -2 -19 -4 -28h-113l-13 -191c-14 -3 -28 -6 -42 -6l13 197h-117c0 10 2 19 4 28h115l4 61h-117c1 9 2 18 4 28h76c-34 26 -55 74 -66 116c-14 56 -17 119 -12 176c14 4 28 6 42 6
c-2 -57 -2 -116 10 -172c11 -52 36 -124 89 -119c51 4 85 73 101 123c17 54 24 107 30 162c14 4 28 6 43 6c-3 -59 -15 -125 -38 -180z" />
    <glyph glyph-name="brokenbar" unicode="&#xa6;" horiz-adv-x="188" 
d="M74 253c11 3 23 5 35 5l-29 -418c-12 -2 -23 -4 -35 -5zM110 777c11 3 23 5 35 5l-29 -418c-12 -2 -23 -4 -35 -5z" />
    <glyph glyph-name="section" unicode="&#xa7;" horiz-adv-x="244" 
d="M106 630c-16 -35 22 -100 44 -132c26 -40 80 -100 79 -174c-2 -64 -47 -110 -104 -139c27 -46 61 -115 34 -162c-24 -43 -88 -42 -124 -29c0 10 2 20 4 29c28 -14 79 -13 94 15c17 35 -22 100 -43 132c-24 36 -69 86 -78 150c-10 75 36 129 102 163
c-27 46 -60 115 -35 161c24 43 87 44 125 30c0 -10 -2 -20 -4 -29c-29 14 -79 13 -94 -15zM187 325c1 53 -42 110 -57 132c-48 -36 -84 -75 -77 -131c7 -48 41 -94 55 -115c40 29 78 64 79 114z" />
    <glyph glyph-name="ordfeminine" unicode="&#xaa;" horiz-adv-x="192" 
d="M135 315c-15 -17 -33 -28 -56 -29c-38 -2 -66 22 -68 60c-1 37 23 75 67 94c20 9 41 12 64 12c-1 20 -9 42 -25 54s-39 7 -49 0c5 -4 7 -10 7 -17c0 -13 -10 -23 -23 -23c-14 0 -24 12 -23 24c1 16 10 32 29 40c20 9 50 10 72 -5c23 -15 38 -41 44 -69
c7 -30 -1 -126 -4 -155c-12 -3 -24 -4 -36 -5c0 6 0 14 1 19zM78 310c20 -1 44 13 60 54c2 32 4 58 5 66c-18 0 -38 -3 -54 -12c-26 -15 -43 -44 -43 -72c0 -23 12 -36 32 -36z" />
    <glyph glyph-name="logicalnot" unicode="&#xac;" horiz-adv-x="430" 
d="M396 378v-8c-3 -40 -10 -134 -12 -168c-12 -2 -23 -4 -35 -4c1 28 7 99 10 144h-325c1 12 3 24 5 36h357z" />
    <glyph glyph-name="OE" unicode="&#x152;" horiz-adv-x="1180" 
d="M382 530c-34 -90 -50 -186 -50 -272c202 29 451 214 451 424c0 72 -46 144 -117 144c-128 0 -239 -173 -284 -296zM809 542c-4 5 -7 11 -11 17c-74 -176 -276 -308 -466 -330c10 -171 82 -290 231 -290c52 0 95 19 131 47c-31 37 -45 85 -45 132c0 154 125 294 288 348
c-53 8 -92 27 -128 76zM826 626c0 -86 72 -144 160 -144c14 0 25 2 37 4c2 -9 3 -19 4 -28c-158 -37 -334 -166 -334 -346c0 -99 65 -174 179 -174c112 0 233 85 233 230c0 79 -43 144 -123 144c-51 0 -113 -35 -113 -110c0 -29 11 -58 34 -76c-9 -10 -18 -21 -25 -34
c-30 31 -42 66 -42 101c0 100 82 148 150 148c104 0 160 -83 160 -175c0 -182 -165 -256 -276 -256c-65 0 -116 20 -152 51c-43 -31 -95 -50 -155 -50c-160 0 -264 121 -276 314c-6 0 -13 -1 -21 -1c-167 0 -256 85 -256 186c0 68 45 115 88 115c32 0 57 -31 57 -62
c0 -17 -7 -33 -23 -43c-4 6 -8 11 -11 18c7 5 10 14 10 22c0 18 -13 37 -32 37c-28 0 -61 -36 -61 -88c0 -83 76 -156 220 -156c9 0 19 0 28 1v17c0 90 17 186 52 276c54 143 173 307 327 307c67 0 124 -48 148 -111c37 62 105 107 185 111h19c80 0 148 -43 148 -124
c0 -28 -11 -53 -27 -76l-31 41c11 10 19 23 19 39c0 57 -49 89 -107 92h-11c-115 0 -182 -115 -182 -200z" />
    <glyph glyph-name="oe" unicode="&#x153;" horiz-adv-x="495" 
d="M272 284c10 -26 14 -54 14 -82c0 -106 -60 -216 -152 -216c-83 0 -124 61 -124 148c0 16 1 32 4 48c13 -4 27 -6 41 -7c-5 -20 -9 -41 -9 -63c0 -61 33 -98 87 -98c75 0 112 99 112 195c0 106 -48 137 -82 137c-56 0 -82 -80 -82 -128c0 -54 30 -106 89 -134
c-4 -6 -8 -13 -12 -18c-75 36 -114 104 -114 176c0 79 54 133 114 133c56 0 95 -43 114 -91zM458 83c7 -6 14 -12 22 -17c-24 -44 -60 -80 -115 -80s-125 40 -125 139c0 53 55 250 160 250c38 0 72 -29 72 -67c0 -80 -110 -122 -184 -135c-4 -17 -6 -36 -6 -55
c0 -80 48 -104 88 -104c43 0 70 32 88 69zM358 326c-31 -31 -53 -83 -64 -125c74 15 137 64 137 112c0 23 -15 34 -31 34c-12 0 -26 -6 -42 -21z" />
    <glyph glyph-name="registered" unicode="&#xae;" horiz-adv-x="407" 
d="M285 286c6 -2 13 -4 21 -5c-8 -10 -16 -18 -37 -17c-29 2 -42 29 -51 56c-8 21 -14 46 -20 59c-2 -13 -5 -27 -12 -38c-24 -45 -75 -44 -91 -35c-23 12 -26 43 -5 59c13 10 25 5 30 -4c5 -7 4 -19 -5 -23c-1 2 -4 6 -6 9c3 3 1 7 -2 8s-6 -3 -8 -6c-3 -8 1 -19 8 -25
c12 -10 36 -8 49 9c16 19 15 52 18 102c1 23 3 49 10 71c2 7 6 15 10 22c-35 1 -66 -20 -80 -57c-12 -31 -3 -56 9 -65c9 -5 21 -2 24 3c3 4 -1 10 -6 7c-3 3 -5 7 -7 10c17 11 35 -8 26 -24c-6 -13 -28 -24 -47 -16c-24 11 -38 50 -18 93c10 23 27 40 46 51
c27 16 74 20 101 7c26 -12 37 -39 36 -64c-2 -32 -24 -66 -69 -75c17 -18 28 -44 37 -68c12 -32 14 -48 24 -50c4 0 13 0 15 6zM202 409c39 11 51 41 50 65c-2 21 -15 38 -30 47c-4 -7 -8 -18 -10 -23c-6 -24 -8 -60 -10 -89zM188 186c-46 0 -90 18 -122 53
c-39 42 -59 103 -55 166c4 58 27 113 66 153c38 42 88 64 139 64c46 0 89 -18 122 -53c39 -42 59 -103 54 -166c-4 -58 -27 -113 -65 -153c-38 -42 -88 -64 -139 -64zM216 594c-90 0 -170 -85 -177 -191c-4 -56 14 -109 47 -145c28 -28 64 -44 102 -44c90 0 169 85 176 191
c4 56 -13 109 -47 145c-27 28 -63 44 -101 44z" />
    <glyph glyph-name="macron" unicode="&#xaf;" horiz-adv-x="262" 
d="M35 436h195c0 -10 -1 -18 -3 -28h-195c0 10 2 19 3 28z" />
    <glyph glyph-name="twosuperior" unicode="&#xb2;" horiz-adv-x="170" 
d="M142 522c-2 -11 -4 -23 -4 -35c-20 8 -37 11 -56 11c-16 0 -40 -3 -52 -15l-20 23c0 17 73 95 84 109c17 23 34 55 22 83c-9 18 -30 20 -42 2s-9 -37 -1 -57c-12 0 -24 -1 -36 -5c-14 29 -8 64 17 83c25 20 62 21 86 -7c31 -34 10 -83 -20 -120c-25 -31 -45 -47 -64 -75
c8 2 17 3 25 3c21 3 41 2 61 0z" />
    <glyph glyph-name="threesuperior" unicode="&#xb3;" horiz-adv-x="170" 
d="M124 618c20 -14 28 -37 26 -62c-4 -37 -34 -67 -72 -69c-47 -3 -71 27 -67 61c3 15 11 30 23 39c8 -8 18 -14 28 -21c-7 -7 -13 -14 -15 -24c-3 -16 9 -33 31 -32c23 2 34 27 37 50s-9 36 -29 44c-3 -1 -6 -1 -9 -2c1 9 1 19 4 28c5 0 13 0 21 -3c19 15 23 51 12 71
c-10 16 -31 20 -40 6c-9 -12 -12 -28 -4 -46c-13 -1 -24 -3 -36 -6c-12 26 -4 61 22 75c23 13 58 12 80 -9c30 -26 22 -75 -12 -100z" />
    <glyph glyph-name="acute" unicode="&#xb4;" horiz-adv-x="219" 
d="M156 518c11 -4 22 -10 31 -17c-37 -46 -84 -84 -149 -90c-3 7 -4 14 -6 21c58 8 94 43 124 86z" />
    <glyph glyph-name="paragraph" unicode="&#xb6;" horiz-adv-x="505" 
d="M449 462c13 -4 27 -5 41 -6c-16 -94 -80 -158 -162 -186l-18 -267c-12 -2 -24 -4 -36 -5l18 262c-18 -4 -36 -6 -55 -6l-17 -251c-12 -2 -23 -4 -35 -5l17 258c-63 8 -124 36 -160 88c-40 59 -42 148 -1 212c61 99 193 126 316 115c-5 -39 -5 -46 -27 -369
c66 28 114 84 119 160zM294 290l24 356c-16 0 -34 0 -54 -2l-25 -362c17 0 36 3 55 8z" />
    <glyph glyph-name="periodcentered" unicode="&#xb7;" horiz-adv-x="135" 
d="M45 211l4 58c14 4 28 6 43 6l-5 -58c-13 -4 -28 -6 -42 -6z" />
    <glyph glyph-name="cedilla" unicode="&#xb8;" horiz-adv-x="230" 
d="M136 -46c35 0 57 -24 61 -51c13 -82 -119 -137 -165 -28c12 0 24 2 35 5c22 -70 112 -42 97 17c-6 21 -25 25 -46 23c-7 8 -13 16 -19 26c11 15 21 36 23 58c9 -1 18 -2 28 -4c-3 -16 -7 -31 -14 -46z" />
    <glyph glyph-name="onesuperior" unicode="&#xb9;" horiz-adv-x="102" 
d="M52 720c11 3 23 5 35 6l-15 -224c-12 -3 -24 -4 -36 -5l12 168c-11 -13 -19 -21 -32 -33c0 14 -2 28 -6 42c16 12 31 25 41 42z" />
    <glyph glyph-name="ordmasculine" unicode="&#xba;" horiz-adv-x="207" 
d="M171 498c32 -47 25 -112 -1 -158c-21 -39 -57 -63 -102 -50c-34 9 -65 41 -56 122c10 -2 18 -3 28 -4c-22 60 3 109 41 124c33 14 68 -2 90 -34zM144 354c14 35 20 96 4 131c-13 26 -37 34 -54 21c-22 -14 -39 -63 -28 -96c6 -24 23 -44 50 -58c-2 -6 -6 -10 -9 -15
c-30 14 -51 36 -63 61c-9 -34 -6 -75 30 -86c34 -10 56 10 70 42z" />
    <glyph glyph-name="onequarter" unicode="&#xbc;" horiz-adv-x="390" 
d="M319 610c13 0 25 -2 37 -4l-308 -608c-13 1 -25 3 -37 5zM52 519c11 3 23 5 35 6l-15 -224c-12 -3 -24 -4 -36 -5l12 168c-11 -13 -19 -21 -32 -33c0 14 -2 28 -6 42c16 12 31 25 41 42zM375 129c-10 -3 -18 -4 -27 -5l-4 -48c-12 -3 -24 -4 -36 -5l4 55
c-15 2 -30 5 -40 5c-9 -1 -16 -4 -22 -11c-8 10 -15 19 -22 29c12 19 20 39 25 63c6 24 7 49 7 74c12 2 23 4 35 4c0 -14 -1 -33 -2 -43c-1 -15 -2 -29 -5 -43c-4 -18 -10 -35 -17 -50c17 0 28 -2 43 -3l10 144c12 2 24 4 36 5l-11 -146c7 2 10 5 21 13c0 -13 2 -25 5 -38z
" />
    <glyph glyph-name="onehalf" unicode="&#xbd;" horiz-adv-x="398" 
d="M320 610c13 0 25 -2 37 -4l-308 -608c-13 1 -25 3 -37 5zM52 519c11 3 23 5 35 6l-15 -224c-12 -3 -24 -4 -36 -5l12 168c-11 -13 -19 -21 -32 -33c0 14 -2 28 -6 42c16 12 31 25 41 42zM369 97c-2 -11 -4 -23 -4 -35c-20 8 -37 11 -56 11c-16 0 -40 -3 -52 -15l-20 23
c0 17 73 95 84 109c17 23 34 55 22 83c-9 18 -30 20 -42 2s-9 -37 -1 -57c-12 0 -24 -1 -36 -5c-14 29 -8 64 17 83c25 20 62 21 86 -7c31 -34 10 -83 -20 -120c-25 -31 -45 -47 -64 -75c8 2 17 3 25 3c21 3 41 2 61 0z" />
    <glyph glyph-name="threequarters" unicode="&#xbe;" horiz-adv-x="414" 
d="M344 610c13 0 25 -2 37 -4l-308 -608c-13 1 -25 3 -37 5zM124 417c20 -14 28 -37 26 -62c-4 -37 -34 -67 -72 -69c-47 -3 -71 27 -67 61c3 15 11 30 23 39c8 -8 18 -14 28 -21c-7 -7 -13 -14 -15 -24c-3 -16 9 -33 31 -32c23 2 34 27 37 50s-9 36 -29 44
c-3 -1 -6 -1 -9 -2c1 9 1 19 4 28c5 0 13 0 21 -3c19 15 23 51 12 71c-10 16 -31 20 -40 6c-9 -12 -12 -28 -4 -46c-13 -1 -24 -3 -36 -6c-12 26 -4 61 22 75c23 13 58 12 80 -9c30 -26 22 -75 -12 -100zM399 129c-10 -3 -18 -4 -27 -5l-4 -48c-12 -3 -24 -4 -36 -5l4 55
c-15 2 -30 5 -40 5c-9 -1 -16 -4 -22 -11c-8 10 -15 19 -22 29c12 19 20 39 25 63c6 24 7 49 7 74c12 2 23 4 35 4c0 -14 -1 -33 -2 -43c-1 -15 -2 -29 -5 -43c-4 -18 -10 -35 -17 -50c17 0 28 -2 43 -3l10 144c12 2 24 4 36 5l-11 -146c7 2 10 5 21 13c0 -13 2 -25 5 -38z
" />
    <glyph glyph-name="multiply" unicode="&#xd7;" horiz-adv-x="321" 
d="M47 389c9 8 19 14 28 21l87 -86l96 85c11 -7 20 -14 28 -22l-100 -88l88 -87c-9 -8 -19 -15 -28 -22l-86 86l-97 -84c-11 6 -20 13 -29 21l101 88z" />
    <glyph glyph-name="Oslash" unicode="&#xd8;" horiz-adv-x="891" 
d="M741 831l22 -21l-296 -862c-10 -1 -21 0 -30 0zM827 590c31 -73 49 -162 49 -254c0 -214 -108 -425 -313 -425c-160 0 -264 121 -276 314c-6 0 -13 -1 -21 -1c-167 0 -256 85 -256 186c0 68 45 115 88 115c32 0 57 -31 57 -62c0 -17 -7 -33 -23 -43c-4 6 -8 11 -11 18
c7 5 10 14 10 22c0 18 -13 37 -32 37c-28 0 -61 -36 -61 -88c0 -83 76 -156 220 -156c9 0 19 0 28 1v17c0 90 17 186 52 276c54 143 173 307 327 307c89 0 160 -84 160 -176c0 -30 -6 -60 -15 -91c5 2 11 3 17 3zM382 530c-34 -90 -50 -186 -50 -272c202 29 451 214 451 424
c0 72 -46 144 -117 144c-128 0 -239 -173 -284 -296zM829 258c5 36 8 74 8 111c0 73 -11 146 -30 213c-65 -188 -277 -330 -475 -353c10 -171 82 -290 231 -290c159 0 240 165 266 319z" />
    <glyph glyph-name="oslash" unicode="&#xf8;" horiz-adv-x="301" 
d="M219 344l19 -24l-151 -297c-10 1 -20 3 -29 4zM272 284c10 -26 14 -54 14 -82c0 -106 -60 -216 -152 -216c-83 0 -124 61 -124 148c0 16 1 32 4 48c13 -4 27 -6 41 -7c-5 -20 -9 -41 -9 -63c0 -61 33 -98 87 -98c75 0 112 99 112 195c0 106 -48 137 -82 137
c-56 0 -82 -80 -82 -128c0 -54 30 -106 89 -134c-4 -6 -8 -13 -12 -18c-75 36 -114 104 -114 176c0 79 54 133 114 133c56 0 95 -43 114 -91z" />
    <glyph glyph-name="AE" unicode="&#xc6;" horiz-adv-x="1316" 
d="M1298 754c2 -8 3 -16 3 -24c0 -117 -169 -189 -292 -210c30 -26 74 -38 113 -38c14 0 25 2 37 4c2 -9 3 -19 4 -28c-158 -37 -334 -166 -334 -346c0 -99 65 -174 179 -174c112 0 233 85 233 230c0 79 -43 144 -123 144c-51 0 -113 -35 -113 -110c0 -29 11 -58 34 -76
c-9 -10 -18 -21 -25 -34c-30 31 -42 66 -42 101c0 100 82 148 150 148c104 0 160 -83 160 -175c0 -182 -165 -256 -276 -256c-150 0 -221 105 -221 208c0 94 46 182 119 249c0 51 1 99 3 146c-33 1 -68 7 -100 18c-97 -234 -202 -587 -479 -617h-3c-15 -3 -30 -4 -45 -4
c-114 0 -270 82 -270 272c0 117 89 236 206 236c91 0 168 -76 168 -166c0 -36 -11 -73 -30 -110c-10 10 -21 19 -33 26c21 31 29 62 29 91c0 75 -61 130 -131 130c-91 0 -161 -96 -161 -203c0 -179 129 -247 227 -247c161 0 277 138 352 291c33 68 92 206 136 316
c-59 29 -103 79 -103 152c0 65 48 115 91 115c33 0 57 -32 57 -62c0 -17 -8 -33 -24 -43c-4 6 -8 11 -12 18c8 5 12 14 12 23c0 17 -13 37 -32 37c-28 0 -63 -38 -63 -89c0 -62 36 -102 85 -127c58 126 114 215 159 272c16 0 31 -2 46 -5c-4 -19 -7 -36 -11 -55
c42 44 101 72 169 72c75 0 139 -32 151 -100zM1190 618c37 28 68 72 68 116c0 59 -49 92 -108 92c-119 0 -188 -110 -188 -200c0 -29 8 -57 24 -81c73 8 151 33 204 73zM938 786c-32 -36 -72 -114 -120 -229c29 -10 60 -15 91 -16c3 79 12 154 29 245zM952 514
c-2 -37 -3 -74 -3 -111c37 27 79 47 124 63c-40 6 -78 21 -107 49c-4 -1 -9 -1 -14 -1z" />
    <glyph glyph-name="ae" unicode="&#xe6;" horiz-adv-x="472" 
d="M193 26c-23 -25 -53 -40 -87 -40c-55 0 -93 36 -96 91c0 85 76 165 209 165c-8 76 -49 105 -87 105c-24 0 -47 -10 -54 -25c11 -5 18 -16 18 -27c0 -16 -13 -29 -29 -29c-20 0 -29 15 -29 34c0 39 32 75 91 75c71 0 133 -68 133 -173c0 -12 -7 -80 -13 -198
c-15 -4 -28 -6 -43 -6c0 16 1 36 2 48c-5 -7 -10 -13 -15 -20zM110 14c101 0 110 154 110 200h-12c-105 0 -156 -76 -156 -136c0 -41 23 -63 58 -64zM435 83c7 -6 14 -12 22 -17c-24 -44 -60 -80 -115 -80s-125 40 -125 139c0 53 55 250 160 250c38 0 72 -29 72 -67
c0 -80 -110 -122 -184 -135c-4 -17 -6 -36 -6 -55c0 -80 48 -104 88 -104c43 0 70 32 88 69zM335 326c-31 -31 -53 -83 -64 -125c74 15 137 64 137 112c0 23 -15 34 -31 34c-12 0 -26 -6 -42 -21z" />
    <glyph glyph-name="germandbls" unicode="&#xdf;" horiz-adv-x="344" 
d="M312 140c35 -63 16 -123 -60 -146c-37 -12 -94 -12 -130 8c-38 20 -51 59 -24 94c28 37 65 26 99 -8c-8 -5 -15 -10 -23 -17c-18 21 -39 32 -56 10c-18 -23 -8 -45 16 -57c30 -16 79 -15 109 -5c39 15 55 57 31 99c-31 51 -93 93 -122 132c-17 23 -28 49 -18 76
s35 38 76 68c36 26 52 44 64 86c15 55 5 122 -25 155c-26 29 -65 22 -86 -5c-34 -44 -55 -167 -64 -222c-25 -162 -39 -361 -46 -479c-15 -3 -28 -5 -43 -6c6 156 20 339 45 492c12 73 31 188 83 239c35 32 92 40 132 3c42 -39 68 -117 43 -189c-19 -53 -51 -73 -87 -98
c-18 -11 -42 -27 -52 -47c-4 -11 -5 -25 12 -46c25 -31 93 -79 126 -137z" />
    <glyph glyph-name="Thorn" unicode="&#xde;" horiz-adv-x="774" 
d="M718 597c30 -44 44 -95 44 -148c0 -80 -34 -160 -97 -219c-68 -64 -135 -79 -216 -91c-15 -168 -66 -373 -281 -373c-102 0 -158 67 -158 134c0 48 33 110 88 110c32 0 57 -31 57 -62c0 -19 -9 -34 -22 -43c-5 5 -9 11 -12 17c6 5 11 13 11 23c0 19 -14 37 -33 37
c-38 0 -61 -50 -61 -82c0 -54 47 -107 128 -107c30 0 60 7 85 17c122 52 144 193 153 352c6 97 26 411 42 517c-182 -4 -356 -141 -356 -362c0 -137 63 -182 118 -182c42 0 78 26 78 57c0 18 -12 34 -32 34c-7 0 -13 -1 -20 -4c-4 6 -8 12 -11 18c11 7 23 10 34 10
c30 0 56 -26 56 -61c0 -47 -53 -83 -111 -83c-69 0 -151 52 -151 198c0 214 168 392 399 405c11 55 28 107 54 152c17 0 32 -2 48 -7c-19 -31 -36 -68 -50 -145c88 -5 166 -36 216 -112zM721 438c0 120 -83 223 -224 240c-15 -99 -39 -421 -47 -516c133 4 271 124 271 276z
" />
    <glyph glyph-name="thorn" unicode="&#xfe;" horiz-adv-x="315" 
d="M271 321c23 -35 34 -77 34 -119c0 -96 -54 -216 -152 -216c-32 0 -70 14 -93 43l-24 -359c-14 -4 -28 -6 -43 -7l69 1004c14 4 28 6 42 6l-26 -387c22 39 61 89 106 89c36 0 67 -24 87 -54zM256 144c6 26 8 49 8 69c0 77 -34 134 -82 134c-49 0 -96 -97 -110 -146
l-8 -119c14 -59 61 -68 86 -68c63 0 93 71 106 130z" />
    <glyph glyph-name="divide" unicode="&#xf7;" horiz-adv-x="354" 
d="M166 418c12 3 24 4 36 5l-4 -46c-12 -3 -24 -5 -36 -6zM152 217c12 3 24 5 36 5l-3 -46c-12 -3 -24 -5 -36 -6zM319 315c-1 -12 -2 -23 -5 -35h-280c1 12 3 24 5 35h280z" />
    <glyph glyph-name="pi" unicode="&#x3c0;" horiz-adv-x="374" 
d="M318 -14c-95 3 -77 207 -65 301c-54 0 -107 -4 -154 -13c15 -66 6 -199 -34 -280c-8 6 -15 12 -23 18c29 67 34 193 17 254c-1 0 -34 -10 -47 -20c-8 13 -16 24 -26 35c50 30 131 34 190 34c72 2 142 -3 183 -5c-1 -10 -1 -19 -4 -28c-20 3 -41 4 -61 4
c-13 -69 -39 -275 28 -271c0 -9 -1 -19 -4 -29z" />
    <glyph glyph-name="approxequal" unicode="&#x2248;" horiz-adv-x="443" 
d="M393 377c5 -7 11 -13 16 -21c-32 -38 -75 -45 -125 -32c-39 11 -78 33 -114 47c-45 17 -80 18 -120 -14c-5 7 -11 14 -16 21c41 46 92 47 149 26c47 -16 92 -44 132 -50c32 -5 54 5 78 23zM393 241c5 -7 11 -13 16 -21c-32 -38 -75 -45 -125 -32c-39 11 -78 33 -114 47
c-45 17 -80 18 -120 -14c-5 7 -11 14 -16 21c41 46 92 47 149 26c47 -16 92 -44 132 -50c32 -5 54 5 78 23z" />
    <glyph glyph-name="notequal" unicode="&#x2260;" horiz-adv-x="430" 
d="M289 373c9 -6 17 -11 24 -18l-176 -122c-9 5 -17 11 -24 17zM396 379c0 -12 -2 -23 -5 -35h-357c1 12 3 24 5 35h357zM396 261c0 -12 -2 -23 -5 -35h-357c1 12 3 24 5 35h357z" />
    <glyph glyph-name="lessequal" unicode="&#x2264;" horiz-adv-x="445" 
d="M396 135c0 -12 -2 -23 -5 -35h-357c1 12 3 24 5 35h357zM385 192l-337 149c1 13 4 26 7 39l356 148c-1 -14 -3 -27 -6 -40l-310 -129l295 -131c-1 -13 -2 -24 -5 -36z" />
    <glyph glyph-name="greaterequal" unicode="&#x2265;" horiz-adv-x="447" 
d="M396 136c0 -12 -2 -23 -5 -35h-357c1 12 3 24 5 35h357zM76 527l337 -150c-1 -13 -3 -26 -7 -38l-356 -148c1 13 3 26 6 40l310 128l-295 132c1 12 3 24 5 36z" />
    <glyph glyph-name="overline" unicode="&#x203e;" horiz-adv-x="354" 
d="M319 681c-1 -12 -2 -23 -5 -35h-280c1 12 3 24 5 35h280z" />
    <glyph glyph-name="ampersand" unicode="&#x26;" horiz-adv-x="640" 
d="M635 408c11 -22 19 -46 19 -71c0 -65 -60 -114 -148 -114c-40 0 -81 9 -117 19c15 -24 22 -52 22 -79c0 -122 -110 -177 -210 -177c-99 0 -191 63 -191 169c0 109 98 200 206 240c-93 15 -132 75 -132 135c0 83 70 157 170 157c75 0 127 -49 127 -113
c0 -24 -9 -47 -29 -68c-8 12 -16 23 -26 33c12 8 20 24 20 43c0 44 -36 76 -89 76c-75 0 -132 -61 -132 -132c0 -69 63 -114 131 -114c10 0 22 1 33 3c1 -9 3 -18 4 -27c-115 -17 -241 -102 -241 -234c0 -85 67 -140 150 -140c103 0 167 68 167 152c0 60 -34 115 -99 115
c-45 0 -84 -32 -84 -75c0 -24 10 -43 34 -53c-10 -11 -18 -22 -26 -35c-28 20 -44 48 -44 80c0 61 54 111 113 111c40 0 79 -20 111 -31c36 -11 80 -20 123 -20c59 0 117 23 117 77c0 16 -5 32 -12 47c12 8 23 16 33 26z" />
    <glyph glyph-name="congruent" unicode="&#x2245;" horiz-adv-x="430" 
d="M396 329c0 -12 -2 -23 -5 -35h-357c1 12 3 24 5 35h357zM396 211c0 -12 -2 -23 -5 -35h-357c1 12 3 24 5 35h357zM393 442c5 -7 11 -13 16 -21c-32 -38 -75 -45 -125 -32c-39 11 -78 33 -114 47c-45 17 -80 18 -120 -14c-5 7 -11 14 -16 21c41 46 92 47 149 26
c47 -16 92 -44 132 -50c32 -5 54 5 78 23z" />
    <glyph glyph-name="Zcaron" unicode="&#x17d;" horiz-adv-x="792" 
d="M848 798c14 -7 26 -16 38 -27c-105 -125 -236 -254 -381 -330c-99 -122 -207 -264 -296 -367c43 14 94 22 146 22c153 0 323 -70 323 -223c0 -59 -32 -107 -82 -107c-35 0 -62 26 -62 58c0 12 4 25 12 38c6 -4 12 -8 17 -12c-5 -8 -7 -16 -7 -24c0 -16 12 -35 38 -35
c28 0 50 29 50 70c0 108 -132 205 -295 205c-60 0 -123 -12 -186 -41c-36 -38 -97 -98 -147 -107c-8 4 -14 10 -22 16c39 43 84 79 136 107c82 89 186 233 286 361c-48 -17 -98 -27 -147 -27c-156 0 -271 108 -271 254c0 205 159 343 308 343c106 0 213 -78 213 -206
c0 -75 -41 -149 -125 -197c-8 12 -16 23 -25 33c63 40 107 96 107 165c0 107 -90 176 -178 176c-150 0 -257 -162 -257 -317c0 -135 109 -222 235 -222c58 0 117 15 172 38c96 122 266 332 400 356zM553 498c104 66 199 159 279 252c-94 -37 -214 -174 -279 -252zM376 815
c6 -6 10 -12 14 -19c-36 -40 -53 -60 -69 -78c-10 -2 -19 -4 -30 -5c-23 30 -33 45 -63 83c5 7 10 12 15 18c21 -15 45 -41 62 -60c20 20 49 46 71 61z" />
    <glyph glyph-name="zcaron" unicode="&#x17e;" horiz-adv-x="278" 
d="M237 377c10 -11 19 -23 26 -35c-19 -32 -134 -230 -192 -311c11 1 22 2 32 2c87 0 138 -65 138 -111c0 -29 -20 -52 -45 -52c-29 0 -42 36 -62 36c-11 0 -17 -14 -17 -26c0 -10 3 -15 10 -15c3 0 4 0 7 1c1 -7 3 -14 4 -20c-4 -1 -7 -2 -11 -2c-21 0 -32 18 -32 38
c0 28 18 49 40 49c33 0 37 -21 51 -21c9 0 16 7 16 20c0 32 -32 76 -90 76c-40 0 -73 -20 -77 -21c-9 10 -17 21 -25 33c52 66 157 244 191 300c-68 -25 -115 -36 -168 -44c-1 10 -3 20 -4 28c92 6 176 45 208 75zM209 483c6 -6 10 -12 14 -19c-36 -40 -53 -60 -69 -78
c-10 -2 -19 -4 -30 -5c-23 30 -33 45 -63 83c5 7 10 12 15 18c21 -15 45 -41 62 -60c20 20 49 46 71 61z" />
    <glyph glyph-name="scaron" unicode="&#x161;" horiz-adv-x="268" 
d="M220 168c18 -26 33 -57 33 -88c0 -84 -105 -94 -134 -94c-49 0 -109 20 -109 73c0 30 23 60 57 60c21 0 41 -13 54 -29c-8 -6 -16 -12 -22 -17c-9 10 -21 21 -34 21c-17 0 -30 -19 -30 -35c0 -35 46 -46 82 -46s93 13 93 65c0 96 -154 137 -154 224c0 46 41 72 81 72
c47 0 63 -33 74 -52c-8 -6 -16 -12 -23 -18c-9 26 -20 44 -47 44s-44 -17 -44 -38c0 -48 76 -76 123 -142zM210 513c6 -6 10 -12 14 -19c-36 -40 -53 -60 -69 -78c-10 -2 -19 -4 -30 -5c-23 30 -33 45 -63 83c5 7 10 12 15 18c21 -15 45 -41 62 -60c20 20 49 46 71 61z" />
    <glyph glyph-name="Scaron" unicode="&#x160;" horiz-adv-x="660" 
d="M642 331c2 -17 3 -33 3 -49c0 -216 -154 -371 -339 -371c-180 0 -296 137 -296 299c0 164 132 332 303 332c140 0 226 -120 226 -249c0 -51 -14 -88 -36 -123c-10 9 -21 17 -33 24c22 31 35 70 35 112c0 115 -82 208 -191 208c-129 0 -260 -129 -260 -299
c0 -161 112 -276 251 -276c165 0 292 163 292 339c0 73 -19 144 -52 204c-51 92 -182 217 -182 295c0 45 34 77 75 77c54 0 92 -50 92 -106c0 -28 -8 -56 -19 -82c-7 0 -15 2 -22 4c11 19 19 46 19 72c0 41 -26 84 -65 84c-21 0 -37 -15 -37 -40c0 -27 23 -63 52 -103
c99 -133 170 -216 184 -352zM534 998c6 -6 10 -12 14 -19c-36 -40 -53 -60 -69 -78c-10 -2 -19 -4 -30 -5c-23 30 -33 45 -63 83c5 7 10 12 15 18c21 -15 45 -41 62 -60c20 20 49 46 71 61z" />
    <glyph glyph-name="Agrave" unicode="&#xc0;" horiz-adv-x="1014" 
d="M1154 -162c15 -4 28 -5 44 -6c-19 -30 -42 -68 -113 -68c-143 0 -185 219 -198 330c-21 -34 -56 -50 -86 -50c-35 0 -65 20 -65 57c0 33 24 62 55 62c5 0 10 0 15 -1c-2 -8 -4 -15 -6 -21c-2 1 -5 1 -6 1c-20 0 -32 -21 -32 -37c0 -21 18 -33 39 -33c37 0 76 32 76 108
c0 110 -35 208 -128 282c-93 -240 -215 -551 -490 -551c-157 0 -249 103 -249 239c0 48 11 99 35 150c81 175 251 275 437 275c86 0 172 -21 244 -65c68 158 135 266 186 332c16 0 31 -2 46 -5c-32 -156 -40 -319 -40 -479c0 -100 4 -200 17 -295c13 -97 43 -270 146 -270
c32 0 63 13 73 45zM606 230c28 58 68 157 110 255c-66 41 -146 63 -226 63c-172 0 -331 -90 -408 -265c-20 -46 -31 -93 -31 -136c0 -114 71 -205 203 -208c161 0 276 138 352 291zM759 488c49 -38 88 -82 114 -139c0 160 8 289 33 437c-36 -43 -87 -144 -147 -298z
M861 1004c30 -43 66 -78 124 -86c-1 -7 -3 -14 -5 -21c-66 6 -112 44 -150 90c10 7 20 13 31 17z" />
    <glyph glyph-name="Aacute" unicode="&#xc1;" horiz-adv-x="1014" 
d="M1154 -162c15 -4 28 -5 44 -6c-19 -30 -42 -68 -113 -68c-143 0 -185 219 -198 330c-21 -34 -56 -50 -86 -50c-35 0 -65 20 -65 57c0 33 24 62 55 62c5 0 10 0 15 -1c-2 -8 -4 -15 -6 -21c-2 1 -5 1 -6 1c-20 0 -32 -21 -32 -37c0 -21 18 -33 39 -33c37 0 76 32 76 108
c0 110 -35 208 -128 282c-93 -240 -215 -551 -490 -551c-157 0 -249 103 -249 239c0 48 11 99 35 150c81 175 251 275 437 275c86 0 172 -21 244 -65c68 158 135 266 186 332c16 0 31 -2 46 -5c-32 -156 -40 -319 -40 -479c0 -100 4 -200 17 -295c13 -97 43 -270 146 -270
c32 0 63 13 73 45zM606 230c28 58 68 157 110 255c-66 41 -146 63 -226 63c-172 0 -331 -90 -408 -265c-20 -46 -31 -93 -31 -136c0 -114 71 -205 203 -208c161 0 276 138 352 291zM759 488c49 -38 88 -82 114 -139c0 160 8 289 33 437c-36 -43 -87 -144 -147 -298z
M948 1005c11 -4 22 -10 31 -17c-37 -46 -84 -84 -149 -90c-3 7 -4 14 -6 21c58 8 94 43 124 86z" />
    <glyph glyph-name="Acircumflex" unicode="&#xc2;" horiz-adv-x="1014" 
d="M1154 -162c15 -4 28 -5 44 -6c-19 -30 -42 -68 -113 -68c-143 0 -185 219 -198 330c-21 -34 -56 -50 -86 -50c-35 0 -65 20 -65 57c0 33 24 62 55 62c5 0 10 0 15 -1c-2 -8 -4 -15 -6 -21c-2 1 -5 1 -6 1c-20 0 -32 -21 -32 -37c0 -21 18 -33 39 -33c37 0 76 32 76 108
c0 110 -35 208 -128 282c-93 -240 -215 -551 -490 -551c-157 0 -249 103 -249 239c0 48 11 99 35 150c81 175 251 275 437 275c86 0 172 -21 244 -65c68 158 135 266 186 332c16 0 31 -2 46 -5c-32 -156 -40 -319 -40 -479c0 -100 4 -200 17 -295c13 -97 43 -270 146 -270
c32 0 63 13 73 45zM606 230c28 58 68 157 110 255c-66 41 -146 63 -226 63c-172 0 -331 -90 -408 -265c-20 -46 -31 -93 -31 -136c0 -114 71 -205 203 -208c161 0 276 138 352 291zM759 488c49 -38 88 -82 114 -139c0 160 8 289 33 437c-36 -43 -87 -144 -147 -298zM840 899
c-5 6 -10 12 -14 19c37 40 54 60 70 78c9 2 19 4 29 5c23 -30 34 -45 63 -83c-4 -7 -9 -12 -15 -18c-21 15 -45 41 -61 60c-20 -20 -49 -46 -72 -61z" />
    <glyph glyph-name="Atilde" unicode="&#xc3;" horiz-adv-x="1014" 
d="M1154 -162c15 -4 28 -5 44 -6c-19 -30 -42 -68 -113 -68c-143 0 -185 219 -198 330c-21 -34 -56 -50 -86 -50c-35 0 -65 20 -65 57c0 33 24 62 55 62c5 0 10 0 15 -1c-2 -8 -4 -15 -6 -21c-2 1 -5 1 -6 1c-20 0 -32 -21 -32 -37c0 -21 18 -33 39 -33c37 0 76 32 76 108
c0 110 -35 208 -128 282c-93 -240 -215 -551 -490 -551c-157 0 -249 103 -249 239c0 48 11 99 35 150c81 175 251 275 437 275c86 0 172 -21 244 -65c68 158 135 266 186 332c16 0 31 -2 46 -5c-32 -156 -40 -319 -40 -479c0 -100 4 -200 17 -295c13 -97 43 -270 146 -270
c32 0 63 13 73 45zM606 230c28 58 68 157 110 255c-66 41 -146 63 -226 63c-172 0 -331 -90 -408 -265c-20 -46 -31 -93 -31 -136c0 -114 71 -205 203 -208c161 0 276 138 352 291zM759 488c49 -38 88 -82 114 -139c0 160 8 289 33 437c-36 -43 -87 -144 -147 -298zM993 962
c6 -6 12 -11 17 -17c-20 -25 -51 -51 -82 -55c-60 -6 -81 67 -92 91c-5 -8 -12 -21 -17 -31c-8 2 -15 5 -22 8c6 22 16 59 39 61c18 1 27 -17 35 -33c15 -31 28 -64 54 -62c22 0 51 24 68 38z" />
    <glyph glyph-name="Adieresis" unicode="&#xc4;" horiz-adv-x="1014" 
d="M1154 -162c15 -4 28 -5 44 -6c-19 -30 -42 -68 -113 -68c-143 0 -185 219 -198 330c-21 -34 -56 -50 -86 -50c-35 0 -65 20 -65 57c0 33 24 62 55 62c5 0 10 0 15 -1c-2 -8 -4 -15 -6 -21c-2 1 -5 1 -6 1c-20 0 -32 -21 -32 -37c0 -21 18 -33 39 -33c37 0 76 32 76 108
c0 110 -35 208 -128 282c-93 -240 -215 -551 -490 -551c-157 0 -249 103 -249 239c0 48 11 99 35 150c81 175 251 275 437 275c86 0 172 -21 244 -65c68 158 135 266 186 332c16 0 31 -2 46 -5c-32 -156 -40 -319 -40 -479c0 -100 4 -200 17 -295c13 -97 43 -270 146 -270
c32 0 63 13 73 45zM606 230c28 58 68 157 110 255c-66 41 -146 63 -226 63c-172 0 -331 -90 -408 -265c-20 -46 -31 -93 -31 -136c0 -114 71 -205 203 -208c161 0 276 138 352 291zM759 488c49 -38 88 -82 114 -139c0 160 8 289 33 437c-36 -43 -87 -144 -147 -298zM829 951
c12 4 24 5 36 6l-3 -46c-12 -4 -24 -5 -36 -6zM952 951c12 4 24 5 36 6l-4 -46c-12 -4 -23 -5 -35 -6z" />
    <glyph glyph-name="Aring" unicode="&#xc5;" horiz-adv-x="1014" 
d="M1154 -162c15 -4 28 -5 44 -6c-19 -30 -42 -68 -113 -68c-143 0 -185 219 -198 330c-21 -34 -56 -50 -86 -50c-35 0 -65 20 -65 57c0 33 24 62 55 62c5 0 10 0 15 -1c-2 -8 -4 -15 -6 -21c-2 1 -5 1 -6 1c-20 0 -32 -21 -32 -37c0 -21 18 -33 39 -33c37 0 76 32 76 108
c0 110 -35 208 -128 282c-93 -240 -215 -551 -490 -551c-157 0 -249 103 -249 239c0 48 11 99 35 150c81 175 251 275 437 275c86 0 172 -21 244 -65c68 158 135 266 186 332c16 0 31 -2 46 -5c-32 -156 -40 -319 -40 -479c0 -100 4 -200 17 -295c13 -97 43 -270 146 -270
c32 0 63 13 73 45zM606 230c28 58 68 157 110 255c-66 41 -146 63 -226 63c-172 0 -331 -90 -408 -265c-20 -46 -31 -93 -31 -136c0 -114 71 -205 203 -208c161 0 276 138 352 291zM759 488c49 -38 88 -82 114 -139c0 160 8 289 33 437c-36 -43 -87 -144 -147 -298zM976 964
c-2 -35 -30 -65 -66 -70c-41 -6 -79 27 -77 69c1 37 30 70 67 74c42 4 79 -31 76 -73v0zM942 966c1 27 -21 47 -47 42c-22 -3 -41 -23 -41 -45c-1 -26 22 -46 48 -42c21 4 38 24 40 45v0z" />
    <glyph glyph-name="Ccedilla" unicode="&#xc7;" horiz-adv-x="846" 
d="M691 305c9 4 17 6 27 6c55 0 112 -76 112 -166c0 -114 -105 -231 -256 -235c-155 0 -260 98 -276 303c-143 1 -288 83 -288 252c0 103 73 209 175 209c31 0 64 -9 97 -31c-9 -10 -17 -21 -24 -33c-26 18 -52 26 -77 26c-80 0 -140 -88 -140 -174
c0 -150 130 -220 256 -221c0 8 -1 16 -1 24c0 66 10 137 28 205c43 163 168 384 357 384c93 0 141 -74 141 -161c0 -133 -109 -287 -180 -350c-80 -72 -188 -118 -296 -128c12 -165 90 -271 228 -276c136 0 228 105 228 205c0 77 -48 139 -87 139c-19 0 -33 -16 -33 -33
c0 -10 4 -20 15 -30c-5 -6 -9 -11 -14 -17c-17 14 -25 31 -25 49c0 22 12 42 33 53zM370 458c-17 -66 -26 -136 -26 -200v-15c101 11 201 57 274 127c64 62 164 210 164 334c0 62 -27 122 -100 122c-102 0 -250 -134 -312 -368zM581 -124c35 0 57 -24 61 -51
c13 -82 -119 -137 -165 -28c12 0 24 2 35 5c22 -70 112 -42 97 17c-6 21 -25 25 -46 23c-7 8 -13 16 -19 26c11 15 21 36 23 58c9 -1 18 -2 28 -4c-3 -16 -7 -31 -14 -46z" />
    <glyph glyph-name="Egrave" unicode="&#xc8;" horiz-adv-x="617" 
d="M599 754c2 -8 3 -16 3 -24c0 -117 -169 -189 -292 -210c30 -26 74 -38 113 -38c14 0 25 2 37 4c2 -9 3 -19 4 -28c-158 -37 -334 -166 -334 -346c0 -99 64 -174 179 -174c112 0 233 85 233 230c0 79 -43 144 -124 144c-50 0 -112 -35 -112 -110c0 -29 11 -58 34 -76
c-10 -10 -18 -21 -26 -34c-29 31 -41 66 -41 101c0 100 82 148 150 148c104 0 160 -83 160 -175c0 -182 -165 -256 -276 -256c-150 0 -221 105 -221 208c0 154 124 294 288 348c-40 6 -78 21 -107 49c-15 -1 -29 -2 -45 -2c-116 0 -251 57 -251 185c0 65 47 115 91 115
c33 0 56 -32 56 -62c0 -17 -7 -33 -23 -43c-4 6 -8 11 -12 18c8 5 11 14 11 23c0 17 -12 37 -32 37c-27 0 -62 -38 -62 -89c0 -114 125 -156 224 -156c7 0 14 1 22 1c-19 27 -28 60 -28 92c0 116 100 220 230 220c74 0 139 -32 151 -100zM491 618c37 28 68 72 68 116
c0 59 -49 92 -109 92c-118 0 -188 -110 -188 -200c0 -29 8 -57 25 -81c73 8 151 33 204 73zM397 1004c30 -43 66 -78 124 -86c-1 -7 -3 -14 -5 -21c-66 6 -112 44 -150 90c10 7 20 13 31 17z" />
    <glyph glyph-name="Eacute" unicode="&#xc9;" horiz-adv-x="617" 
d="M599 754c2 -8 3 -16 3 -24c0 -117 -169 -189 -292 -210c30 -26 74 -38 113 -38c14 0 25 2 37 4c2 -9 3 -19 4 -28c-158 -37 -334 -166 -334 -346c0 -99 64 -174 179 -174c112 0 233 85 233 230c0 79 -43 144 -124 144c-50 0 -112 -35 -112 -110c0 -29 11 -58 34 -76
c-10 -10 -18 -21 -26 -34c-29 31 -41 66 -41 101c0 100 82 148 150 148c104 0 160 -83 160 -175c0 -182 -165 -256 -276 -256c-150 0 -221 105 -221 208c0 154 124 294 288 348c-40 6 -78 21 -107 49c-15 -1 -29 -2 -45 -2c-116 0 -251 57 -251 185c0 65 47 115 91 115
c33 0 56 -32 56 -62c0 -17 -7 -33 -23 -43c-4 6 -8 11 -12 18c8 5 11 14 11 23c0 17 -12 37 -32 37c-27 0 -62 -38 -62 -89c0 -114 125 -156 224 -156c7 0 14 1 22 1c-19 27 -28 60 -28 92c0 116 100 220 230 220c74 0 139 -32 151 -100zM491 618c37 28 68 72 68 116
c0 59 -49 92 -109 92c-118 0 -188 -110 -188 -200c0 -29 8 -57 25 -81c73 8 151 33 204 73zM491 1004c11 -4 22 -10 31 -17c-37 -46 -84 -84 -149 -90c-3 7 -4 14 -6 21c58 8 94 43 124 86z" />
    <glyph glyph-name="Ecircumflex" unicode="&#xca;" horiz-adv-x="617" 
d="M599 754c2 -8 3 -16 3 -24c0 -117 -169 -189 -292 -210c30 -26 74 -38 113 -38c14 0 25 2 37 4c2 -9 3 -19 4 -28c-158 -37 -334 -166 -334 -346c0 -99 64 -174 179 -174c112 0 233 85 233 230c0 79 -43 144 -124 144c-50 0 -112 -35 -112 -110c0 -29 11 -58 34 -76
c-10 -10 -18 -21 -26 -34c-29 31 -41 66 -41 101c0 100 82 148 150 148c104 0 160 -83 160 -175c0 -182 -165 -256 -276 -256c-150 0 -221 105 -221 208c0 154 124 294 288 348c-40 6 -78 21 -107 49c-15 -1 -29 -2 -45 -2c-116 0 -251 57 -251 185c0 65 47 115 91 115
c33 0 56 -32 56 -62c0 -17 -7 -33 -23 -43c-4 6 -8 11 -12 18c8 5 11 14 11 23c0 17 -12 37 -32 37c-27 0 -62 -38 -62 -89c0 -114 125 -156 224 -156c7 0 14 1 22 1c-19 27 -28 60 -28 92c0 116 100 220 230 220c74 0 139 -32 151 -100zM491 618c37 28 68 72 68 116
c0 59 -49 92 -109 92c-118 0 -188 -110 -188 -200c0 -29 8 -57 25 -81c73 8 151 33 204 73zM375 898c-5 6 -10 12 -14 19c37 40 54 60 70 78c9 2 19 4 29 5c23 -30 34 -45 63 -83c-4 -7 -9 -12 -15 -18c-21 15 -45 41 -61 60c-20 -20 -49 -46 -72 -61z" />
    <glyph glyph-name="Edieresis" unicode="&#xcb;" horiz-adv-x="617" 
d="M599 754c2 -8 3 -16 3 -24c0 -117 -169 -189 -292 -210c30 -26 74 -38 113 -38c14 0 25 2 37 4c2 -9 3 -19 4 -28c-158 -37 -334 -166 -334 -346c0 -99 64 -174 179 -174c112 0 233 85 233 230c0 79 -43 144 -124 144c-50 0 -112 -35 -112 -110c0 -29 11 -58 34 -76
c-10 -10 -18 -21 -26 -34c-29 31 -41 66 -41 101c0 100 82 148 150 148c104 0 160 -83 160 -175c0 -182 -165 -256 -276 -256c-150 0 -221 105 -221 208c0 154 124 294 288 348c-40 6 -78 21 -107 49c-15 -1 -29 -2 -45 -2c-116 0 -251 57 -251 185c0 65 47 115 91 115
c33 0 56 -32 56 -62c0 -17 -7 -33 -23 -43c-4 6 -8 11 -12 18c8 5 11 14 11 23c0 17 -12 37 -32 37c-27 0 -62 -38 -62 -89c0 -114 125 -156 224 -156c7 0 14 1 22 1c-19 27 -28 60 -28 92c0 116 100 220 230 220c74 0 139 -32 151 -100zM491 618c37 28 68 72 68 116
c0 59 -49 92 -109 92c-118 0 -188 -110 -188 -200c0 -29 8 -57 25 -81c73 8 151 33 204 73zM365 951c12 4 24 5 36 6l-3 -46c-12 -4 -24 -5 -36 -6zM488 951c12 4 24 5 36 6l-4 -46c-12 -4 -23 -5 -35 -6z" />
    <glyph glyph-name="Igrave" unicode="&#xcc;" horiz-adv-x="742" 
d="M801 -162c14 -4 29 -5 44 -6c-28 -46 -81 -68 -132 -68c-132 0 -187 133 -209 245c-62 -67 -139 -99 -217 -99c-152 0 -277 117 -277 272c0 131 96 234 204 234c96 0 165 -82 165 -162c0 -36 -11 -74 -29 -112c-11 10 -21 19 -34 26c20 30 30 62 30 90
c0 72 -60 130 -132 130c-86 0 -163 -84 -163 -206c0 -142 113 -243 241 -243c73 0 148 33 206 102c-13 86 -19 198 -19 285c0 181 19 532 160 532c78 0 88 -101 88 -175c0 -260 -123 -538 -186 -629c13 -106 45 -262 171 -262c42 0 80 19 89 46zM527 326
c0 -71 2 -161 9 -232c70 115 165 355 165 580c0 61 -8 149 -53 149c-102 0 -121 -338 -121 -497zM598 1004c30 -43 66 -78 124 -86c-1 -7 -3 -14 -5 -21c-66 6 -112 44 -150 90c10 7 20 13 31 17z" />
    <glyph glyph-name="Iacute" unicode="&#xcd;" horiz-adv-x="742" 
d="M801 -162c14 -4 29 -5 44 -6c-28 -46 -81 -68 -132 -68c-132 0 -187 133 -209 245c-62 -67 -139 -99 -217 -99c-152 0 -277 117 -277 272c0 131 96 234 204 234c96 0 165 -82 165 -162c0 -36 -11 -74 -29 -112c-11 10 -21 19 -34 26c20 30 30 62 30 90
c0 72 -60 130 -132 130c-86 0 -163 -84 -163 -206c0 -142 113 -243 241 -243c73 0 148 33 206 102c-13 86 -19 198 -19 285c0 181 19 532 160 532c78 0 88 -101 88 -175c0 -260 -123 -538 -186 -629c13 -106 45 -262 171 -262c42 0 80 19 89 46zM527 326
c0 -71 2 -161 9 -232c70 115 165 355 165 580c0 61 -8 149 -53 149c-102 0 -121 -338 -121 -497zM694 1004c11 -4 22 -10 31 -17c-37 -46 -84 -84 -149 -90c-3 7 -4 14 -6 21c58 8 94 43 124 86z" />
    <glyph glyph-name="Icircumflex" unicode="&#xce;" horiz-adv-x="742" 
d="M801 -162c14 -4 29 -5 44 -6c-28 -46 -81 -68 -132 -68c-132 0 -187 133 -209 245c-62 -67 -139 -99 -217 -99c-152 0 -277 117 -277 272c0 131 96 234 204 234c96 0 165 -82 165 -162c0 -36 -11 -74 -29 -112c-11 10 -21 19 -34 26c20 30 30 62 30 90
c0 72 -60 130 -132 130c-86 0 -163 -84 -163 -206c0 -142 113 -243 241 -243c73 0 148 33 206 102c-13 86 -19 198 -19 285c0 181 19 532 160 532c78 0 88 -101 88 -175c0 -260 -123 -538 -186 -629c13 -106 45 -262 171 -262c42 0 80 19 89 46zM527 326
c0 -71 2 -161 9 -232c70 115 165 355 165 580c0 61 -8 149 -53 149c-102 0 -121 -338 -121 -497zM580 898c-5 6 -10 12 -14 19c37 40 54 60 70 78c9 2 19 4 29 5c23 -30 34 -45 63 -83c-4 -7 -9 -12 -15 -18c-21 15 -45 41 -61 60c-20 -20 -49 -46 -72 -61z" />
    <glyph glyph-name="Idieresis" unicode="&#xcf;" horiz-adv-x="742" 
d="M801 -162c14 -4 29 -5 44 -6c-28 -46 -81 -68 -132 -68c-132 0 -187 133 -209 245c-62 -67 -139 -99 -217 -99c-152 0 -277 117 -277 272c0 131 96 234 204 234c96 0 165 -82 165 -162c0 -36 -11 -74 -29 -112c-11 10 -21 19 -34 26c20 30 30 62 30 90
c0 72 -60 130 -132 130c-86 0 -163 -84 -163 -206c0 -142 113 -243 241 -243c73 0 148 33 206 102c-13 86 -19 198 -19 285c0 181 19 532 160 532c78 0 88 -101 88 -175c0 -260 -123 -538 -186 -629c13 -106 45 -262 171 -262c42 0 80 19 89 46zM527 326
c0 -71 2 -161 9 -232c70 115 165 355 165 580c0 61 -8 149 -53 149c-102 0 -121 -338 -121 -497zM567 951c12 4 24 5 36 6l-3 -46c-12 -4 -24 -5 -36 -6zM690 951c12 4 24 5 36 6l-4 -46c-12 -4 -23 -5 -35 -6z" />
    <glyph glyph-name="Eth" unicode="&#xd0;" horiz-adv-x="822" 
d="M398 854h21c248 0 388 -256 388 -498c0 -218 -113 -424 -362 -424c-41 0 -86 6 -134 18c-17 -20 -39 -38 -66 -38c-23 0 -65 4 -65 30c0 31 57 37 78 37c11 0 21 -1 33 -3c17 24 27 56 35 84c72 256 13 554 115 726c17 0 32 -2 48 -7c-12 -21 -28 -46 -43 -106
c-23 -95 -27 -215 -36 -338c-8 -121 -29 -275 -85 -366c38 -10 74 -14 107 -14c224 0 326 197 326 404c0 227 -124 467 -346 467c-213 0 -361 -165 -361 -372c0 -131 63 -174 115 -174c42 0 72 30 72 60c0 22 -17 36 -34 36c-6 0 -13 -2 -19 -6c-3 6 -7 12 -9 19
c11 6 22 9 33 9c30 0 56 -25 56 -60c0 -48 -47 -86 -105 -86c-70 0 -147 50 -150 194c0 213 167 396 388 408zM243 -60c12 2 23 8 32 17c-6 1 -12 1 -18 1c-7 0 -43 0 -54 -14c7 -4 20 -4 30 -4h10zM293 374h195c0 -10 -1 -18 -3 -28h-195c0 10 2 19 3 28z" />
    <glyph glyph-name="eth" unicode="&#xf0;" horiz-adv-x="321" 
d="M242 554c46 -94 48 -207 48 -300c0 -72 -4 -133 -12 -250c-14 -3 -28 -6 -43 -6c1 15 3 35 3 47c-22 -33 -56 -59 -100 -59c-80 0 -128 56 -128 141c0 107 82 250 159 250c30 0 58 -19 77 -44c-2 65 -11 138 -40 197l-65 -40c-5 8 -8 16 -11 25l63 40
c-30 50 -68 75 -94 80c12 12 25 22 39 31c39 -21 68 -52 91 -88l65 41c5 -8 8 -17 12 -25zM243 122c3 43 5 85 5 128c0 48 -37 99 -76 99c-10 0 -22 -4 -32 -12c-63 -49 -89 -170 -89 -219c0 -52 22 -104 87 -104c56 0 90 56 105 108z" />
    <glyph glyph-name="Ntilde" unicode="&#xd1;" horiz-adv-x="1003" 
d="M986 780c0 28 -19 45 -45 45c-111 0 -130 -253 -139 -367c-6 -74 -20 -276 -25 -351c8 -38 11 -75 11 -113c0 -23 -2 -47 -4 -71c-14 0 -28 3 -42 6c6 28 7 60 9 98c-20 158 -97 281 -181 428c-8 -101 -28 -301 -68 -393c-49 -111 -128 -152 -225 -152
c-155 0 -267 121 -267 272c0 130 102 232 204 232c96 0 168 -74 168 -167c0 -33 -9 -69 -29 -106c-11 9 -22 18 -34 25c19 30 29 60 29 89c0 67 -53 131 -133 131c-77 0 -163 -84 -163 -206c0 -134 93 -241 229 -241c84 0 152 33 196 134c41 94 61 323 68 427
c-45 80 -103 197 -103 278c0 40 11 76 48 77c71 0 88 -83 88 -200c0 -36 -1 -75 -3 -112c65 -120 142 -234 184 -365c9 157 11 220 15 282c11 136 36 395 172 395c40 0 73 -26 82 -69c-14 0 -28 -3 -42 -6zM550 592c0 33 1 60 1 82c0 124 -29 152 -56 152
c-13 0 -19 -12 -19 -30c0 -43 28 -117 74 -204zM791 915c6 -6 12 -11 17 -17c-20 -25 -51 -51 -82 -55c-60 -6 -81 67 -92 91c-5 -8 -12 -21 -17 -31c-8 2 -15 5 -22 8c6 22 16 59 39 61c18 1 27 -17 35 -33c15 -31 28 -64 54 -62c22 0 51 24 68 38z" />
    <glyph glyph-name="Ograve" unicode="&#xd2;" horiz-adv-x="891" 
d="M827 590c31 -73 49 -162 49 -254c0 -214 -108 -425 -313 -425c-160 0 -264 121 -276 314c-6 0 -13 -1 -21 -1c-167 0 -256 85 -256 186c0 68 45 115 88 115c32 0 57 -31 57 -62c0 -17 -7 -33 -23 -43c-4 6 -8 11 -11 18c7 5 10 14 10 22c0 18 -13 37 -32 37
c-28 0 -61 -36 -61 -88c0 -83 76 -156 220 -156c9 0 19 0 28 1v17c0 90 17 186 52 276c54 143 173 307 327 307c89 0 160 -84 160 -176c0 -30 -6 -60 -15 -91c5 2 11 3 17 3zM382 530c-34 -90 -50 -186 -50 -272c202 29 451 214 451 424c0 72 -46 144 -117 144
c-128 0 -239 -173 -284 -296zM829 258c5 36 8 74 8 111c0 73 -11 146 -30 213c-65 -188 -277 -330 -475 -353c10 -171 82 -290 231 -290c159 0 240 165 266 319zM621 1004c30 -43 66 -78 124 -86c-1 -7 -3 -14 -5 -21c-66 6 -112 44 -150 90c10 7 20 13 31 17z" />
    <glyph glyph-name="Oacute" unicode="&#xd3;" horiz-adv-x="891" 
d="M827 590c31 -73 49 -162 49 -254c0 -214 -108 -425 -313 -425c-160 0 -264 121 -276 314c-6 0 -13 -1 -21 -1c-167 0 -256 85 -256 186c0 68 45 115 88 115c32 0 57 -31 57 -62c0 -17 -7 -33 -23 -43c-4 6 -8 11 -11 18c7 5 10 14 10 22c0 18 -13 37 -32 37
c-28 0 -61 -36 -61 -88c0 -83 76 -156 220 -156c9 0 19 0 28 1v17c0 90 17 186 52 276c54 143 173 307 327 307c89 0 160 -84 160 -176c0 -30 -6 -60 -15 -91c5 2 11 3 17 3zM382 530c-34 -90 -50 -186 -50 -272c202 29 451 214 451 424c0 72 -46 144 -117 144
c-128 0 -239 -173 -284 -296zM829 258c5 36 8 74 8 111c0 73 -11 146 -30 213c-65 -188 -277 -330 -475 -353c10 -171 82 -290 231 -290c159 0 240 165 266 319zM710 1004c11 -4 22 -10 31 -17c-37 -46 -84 -84 -149 -90c-3 7 -4 14 -6 21c58 8 94 43 124 86z" />
    <glyph glyph-name="Ocircumflex" unicode="&#xd4;" horiz-adv-x="891" 
d="M827 590c31 -73 49 -162 49 -254c0 -214 -108 -425 -313 -425c-160 0 -264 121 -276 314c-6 0 -13 -1 -21 -1c-167 0 -256 85 -256 186c0 68 45 115 88 115c32 0 57 -31 57 -62c0 -17 -7 -33 -23 -43c-4 6 -8 11 -11 18c7 5 10 14 10 22c0 18 -13 37 -32 37
c-28 0 -61 -36 -61 -88c0 -83 76 -156 220 -156c9 0 19 0 28 1v17c0 90 17 186 52 276c54 143 173 307 327 307c89 0 160 -84 160 -176c0 -30 -6 -60 -15 -91c5 2 11 3 17 3zM382 530c-34 -90 -50 -186 -50 -272c202 29 451 214 451 424c0 72 -46 144 -117 144
c-128 0 -239 -173 -284 -296zM829 258c5 36 8 74 8 111c0 73 -11 146 -30 213c-65 -188 -277 -330 -475 -353c10 -171 82 -290 231 -290c159 0 240 165 266 319zM599 898c-5 6 -10 12 -14 19c37 40 54 60 70 78c9 2 19 4 29 5c23 -30 34 -45 63 -83c-4 -7 -9 -12 -15 -18
c-21 15 -45 41 -61 60c-20 -20 -49 -46 -72 -61z" />
    <glyph glyph-name="Otilde" unicode="&#xd5;" horiz-adv-x="891" 
d="M827 590c31 -73 49 -162 49 -254c0 -214 -108 -425 -313 -425c-160 0 -264 121 -276 314c-6 0 -13 -1 -21 -1c-167 0 -256 85 -256 186c0 68 45 115 88 115c32 0 57 -31 57 -62c0 -17 -7 -33 -23 -43c-4 6 -8 11 -11 18c7 5 10 14 10 22c0 18 -13 37 -32 37
c-28 0 -61 -36 -61 -88c0 -83 76 -156 220 -156c9 0 19 0 28 1v17c0 90 17 186 52 276c54 143 173 307 327 307c89 0 160 -84 160 -176c0 -30 -6 -60 -15 -91c5 2 11 3 17 3zM382 530c-34 -90 -50 -186 -50 -272c202 29 451 214 451 424c0 72 -46 144 -117 144
c-128 0 -239 -173 -284 -296zM829 258c5 36 8 74 8 111c0 73 -11 146 -30 213c-65 -188 -277 -330 -475 -353c10 -171 82 -290 231 -290c159 0 240 165 266 319zM753 962c6 -6 12 -11 17 -17c-20 -25 -51 -51 -82 -55c-60 -6 -81 67 -92 91c-5 -8 -12 -21 -17 -31
c-8 2 -15 5 -22 8c6 22 16 59 39 61c18 1 27 -17 35 -33c15 -31 28 -64 54 -62c22 0 51 24 68 38z" />
    <glyph glyph-name="Odieresis" unicode="&#xd6;" horiz-adv-x="891" 
d="M827 590c31 -73 49 -162 49 -254c0 -214 -108 -425 -313 -425c-160 0 -264 121 -276 314c-6 0 -13 -1 -21 -1c-167 0 -256 85 -256 186c0 68 45 115 88 115c32 0 57 -31 57 -62c0 -17 -7 -33 -23 -43c-4 6 -8 11 -11 18c7 5 10 14 10 22c0 18 -13 37 -32 37
c-28 0 -61 -36 -61 -88c0 -83 76 -156 220 -156c9 0 19 0 28 1v17c0 90 17 186 52 276c54 143 173 307 327 307c89 0 160 -84 160 -176c0 -30 -6 -60 -15 -91c5 2 11 3 17 3zM382 530c-34 -90 -50 -186 -50 -272c202 29 451 214 451 424c0 72 -46 144 -117 144
c-128 0 -239 -173 -284 -296zM829 258c5 36 8 74 8 111c0 73 -11 146 -30 213c-65 -188 -277 -330 -475 -353c10 -171 82 -290 231 -290c159 0 240 165 266 319zM584 951c12 4 24 5 36 6l-3 -46c-12 -4 -24 -5 -36 -6zM707 951c12 4 24 5 36 6l-4 -46c-12 -4 -23 -5 -35 -6z
" />
    <glyph glyph-name="Ugrave" unicode="&#xd9;" horiz-adv-x="889" 
d="M911 -158c15 -3 28 -5 43 -5c-25 -47 -65 -71 -108 -71c-125 0 -120 232 -120 374c0 47 4 101 8 159c-42 -158 -121 -388 -260 -388c-88 0 -110 68 -110 140c0 144 90 382 90 542c0 101 -34 177 -163 177c-120 0 -239 -88 -239 -237c0 -103 74 -166 171 -166
c76 0 131 47 131 84c0 18 -15 36 -34 36c-9 0 -18 -3 -26 -10c-4 5 -9 11 -13 17c13 10 26 15 39 15c32 0 57 -31 57 -59c0 -52 -67 -112 -163 -112c-116 0 -204 74 -204 194c0 164 144 267 290 267c150 0 199 -90 199 -217c0 -176 -90 -408 -90 -541c0 -51 16 -97 75 -97
c137 0 226 332 263 518c24 291 20 251 31 373c16 4 31 7 47 7c-36 -372 -56 -483 -56 -716c0 -115 -16 -332 77 -332c35 0 59 24 65 48zM590 912c30 -43 66 -78 124 -86c-1 -7 -3 -14 -5 -21c-66 6 -112 44 -150 90c10 7 20 13 31 17z" />
    <glyph glyph-name="Uacute" unicode="&#xda;" horiz-adv-x="889" 
d="M911 -158c15 -3 28 -5 43 -5c-25 -47 -65 -71 -108 -71c-125 0 -120 232 -120 374c0 47 4 101 8 159c-42 -158 -121 -388 -260 -388c-88 0 -110 68 -110 140c0 144 90 382 90 542c0 101 -34 177 -163 177c-120 0 -239 -88 -239 -237c0 -103 74 -166 171 -166
c76 0 131 47 131 84c0 18 -15 36 -34 36c-9 0 -18 -3 -26 -10c-4 5 -9 11 -13 17c13 10 26 15 39 15c32 0 57 -31 57 -59c0 -52 -67 -112 -163 -112c-116 0 -204 74 -204 194c0 164 144 267 290 267c150 0 199 -90 199 -217c0 -176 -90 -408 -90 -541c0 -51 16 -97 75 -97
c137 0 226 332 263 518c24 291 20 251 31 373c16 4 31 7 47 7c-36 -372 -56 -483 -56 -716c0 -115 -16 -332 77 -332c35 0 59 24 65 48zM676 912c11 -4 22 -10 31 -17c-37 -46 -84 -84 -149 -90c-3 7 -4 14 -6 21c58 8 94 43 124 86z" />
    <glyph glyph-name="Ucircumflex" unicode="&#xdb;" horiz-adv-x="889" 
d="M911 -158c15 -3 28 -5 43 -5c-25 -47 -65 -71 -108 -71c-125 0 -120 232 -120 374c0 47 4 101 8 159c-42 -158 -121 -388 -260 -388c-88 0 -110 68 -110 140c0 144 90 382 90 542c0 101 -34 177 -163 177c-120 0 -239 -88 -239 -237c0 -103 74 -166 171 -166
c76 0 131 47 131 84c0 18 -15 36 -34 36c-9 0 -18 -3 -26 -10c-4 5 -9 11 -13 17c13 10 26 15 39 15c32 0 57 -31 57 -59c0 -52 -67 -112 -163 -112c-116 0 -204 74 -204 194c0 164 144 267 290 267c150 0 199 -90 199 -217c0 -176 -90 -408 -90 -541c0 -51 16 -97 75 -97
c137 0 226 332 263 518c24 291 20 251 31 373c16 4 31 7 47 7c-36 -372 -56 -483 -56 -716c0 -115 -16 -332 77 -332c35 0 59 24 65 48zM567 807c-5 6 -10 12 -14 19c37 40 54 60 70 78c9 2 19 4 29 5c23 -30 34 -45 63 -83c-4 -7 -9 -12 -15 -18c-21 15 -45 41 -61 60
c-20 -20 -49 -46 -72 -61z" />
    <glyph glyph-name="Udieresis" unicode="&#xdc;" horiz-adv-x="889" 
d="M911 -158c15 -3 28 -5 43 -5c-25 -47 -65 -71 -108 -71c-125 0 -120 232 -120 374c0 47 4 101 8 159c-42 -158 -121 -388 -260 -388c-88 0 -110 68 -110 140c0 144 90 382 90 542c0 101 -34 177 -163 177c-120 0 -239 -88 -239 -237c0 -103 74 -166 171 -166
c76 0 131 47 131 84c0 18 -15 36 -34 36c-9 0 -18 -3 -26 -10c-4 5 -9 11 -13 17c13 10 26 15 39 15c32 0 57 -31 57 -59c0 -52 -67 -112 -163 -112c-116 0 -204 74 -204 194c0 164 144 267 290 267c150 0 199 -90 199 -217c0 -176 -90 -408 -90 -541c0 -51 16 -97 75 -97
c137 0 226 332 263 518c24 291 20 251 31 373c16 4 31 7 47 7c-36 -372 -56 -483 -56 -716c0 -115 -16 -332 77 -332c35 0 59 24 65 48zM557 856c12 4 24 5 36 6l-3 -46c-12 -4 -24 -5 -36 -6zM680 856c12 4 24 5 36 6l-4 -46c-12 -4 -23 -5 -35 -6z" />
    <glyph glyph-name="Yacute" unicode="&#xdd;" horiz-adv-x="868" 
d="M777 835c16 4 31 7 47 7c-9 -94 -20 -184 -35 -279c-29 -401 -22 -578 -71 -718c-37 -107 -112 -197 -244 -197c-87 0 -159 58 -159 132c0 60 45 111 89 111c35 0 59 -32 59 -63c0 -17 -7 -34 -23 -44c-6 7 -10 15 -15 23c7 5 10 12 10 21c0 15 -13 35 -29 35
c-31 0 -62 -36 -62 -83c0 -62 60 -106 127 -106c121 0 185 86 214 181c30 100 29 218 41 441c-44 -142 -125 -315 -241 -315c-84 0 -107 69 -107 140c0 36 5 74 11 106c23 131 65 227 65 365c0 103 -44 178 -163 178c-144 0 -240 -109 -240 -236c0 -88 60 -165 169 -165
c68 0 134 43 134 82c0 15 -15 36 -35 36c-8 0 -17 -3 -28 -12c-5 6 -9 11 -13 17c14 12 28 17 42 17c34 0 56 -31 56 -59c0 -52 -66 -112 -163 -112c-132 0 -203 90 -203 193c0 147 117 267 289 267c154 0 199 -101 199 -216c1 -146 -40 -240 -63 -364
c-5 -27 -12 -68 -12 -104c0 -56 16 -100 71 -100c127 0 219 308 240 388c18 277 36 383 43 433zM673 912c11 -4 22 -10 31 -17c-37 -46 -84 -84 -149 -90c-3 7 -4 14 -6 21c58 8 94 43 124 86z" />
    <glyph glyph-name="agrave" unicode="&#xe0;" horiz-adv-x="276" 
d="M193 26c-23 -25 -53 -40 -87 -40c-55 0 -93 36 -96 91c0 85 76 165 209 165c-8 76 -49 105 -87 105c-24 0 -47 -10 -54 -25c11 -5 18 -16 18 -27c0 -16 -13 -29 -29 -29c-20 0 -29 15 -29 34c0 39 32 75 91 75c71 0 133 -68 133 -173c0 -12 -7 -80 -13 -198
c-15 -4 -28 -6 -43 -6c0 16 1 36 2 48c-5 -7 -10 -13 -15 -20zM110 14c101 0 110 154 110 200h-12c-105 0 -156 -76 -156 -136c0 -41 23 -63 58 -64zM107 518c30 -43 66 -78 124 -86c-1 -7 -3 -14 -5 -21c-66 6 -112 44 -150 90c10 7 20 13 31 17z" />
    <glyph glyph-name="aacute" unicode="&#xe1;" horiz-adv-x="276" 
d="M193 26c-23 -25 -53 -40 -87 -40c-55 0 -93 36 -96 91c0 85 76 165 209 165c-8 76 -49 105 -87 105c-24 0 -47 -10 -54 -25c11 -5 18 -16 18 -27c0 -16 -13 -29 -29 -29c-20 0 -29 15 -29 34c0 39 32 75 91 75c71 0 133 -68 133 -173c0 -12 -7 -80 -13 -198
c-15 -4 -28 -6 -43 -6c0 16 1 36 2 48c-5 -7 -10 -13 -15 -20zM110 14c101 0 110 154 110 200h-12c-105 0 -156 -76 -156 -136c0 -41 23 -63 58 -64zM205 518c11 -4 22 -10 31 -17c-37 -46 -84 -84 -149 -90c-3 7 -4 14 -6 21c58 8 94 43 124 86z" />
    <glyph glyph-name="acircumflex" unicode="&#xe2;" horiz-adv-x="276" 
d="M193 26c-23 -25 -53 -40 -87 -40c-55 0 -93 36 -96 91c0 85 76 165 209 165c-8 76 -49 105 -87 105c-24 0 -47 -10 -54 -25c11 -5 18 -16 18 -27c0 -16 -13 -29 -29 -29c-20 0 -29 15 -29 34c0 39 32 75 91 75c71 0 133 -68 133 -173c0 -12 -7 -80 -13 -198
c-15 -4 -28 -6 -43 -6c0 16 1 36 2 48c-5 -7 -10 -13 -15 -20zM110 14c101 0 110 154 110 200h-12c-105 0 -156 -76 -156 -136c0 -41 23 -63 58 -64zM99 411c-5 6 -10 12 -14 19c37 40 54 60 70 78c9 2 19 4 29 5c23 -30 34 -45 63 -83c-4 -7 -9 -12 -15 -18
c-21 15 -45 41 -61 60c-20 -20 -49 -46 -72 -61z" />
    <glyph glyph-name="atilde" unicode="&#xe3;" horiz-adv-x="300" 
d="M193 26c-23 -25 -53 -40 -87 -40c-55 0 -93 36 -96 91c0 85 76 165 209 165c-8 76 -49 105 -87 105c-24 0 -47 -10 -54 -25c11 -5 18 -16 18 -27c0 -16 -13 -29 -29 -29c-20 0 -29 15 -29 34c0 39 32 75 91 75c71 0 133 -68 133 -173c0 -12 -7 -80 -13 -198
c-15 -4 -28 -6 -43 -6c0 16 1 36 2 48c-5 -7 -10 -13 -15 -20zM110 14c101 0 110 154 110 200h-12c-105 0 -156 -76 -156 -136c0 -41 23 -63 58 -64zM256 480c6 -6 12 -11 17 -17c-20 -25 -51 -51 -82 -55c-60 -6 -81 67 -92 91c-5 -8 -12 -21 -17 -31c-8 2 -15 5 -22 8
c6 22 16 59 39 61c18 1 27 -17 35 -33c15 -31 28 -64 54 -62c22 0 51 24 68 38z" />
    <glyph glyph-name="adieresis" unicode="&#xe4;" horiz-adv-x="276" 
d="M193 26c-23 -25 -53 -40 -87 -40c-55 0 -93 36 -96 91c0 85 76 165 209 165c-8 76 -49 105 -87 105c-24 0 -47 -10 -54 -25c11 -5 18 -16 18 -27c0 -16 -13 -29 -29 -29c-20 0 -29 15 -29 34c0 39 32 75 91 75c71 0 133 -68 133 -173c0 -12 -7 -80 -13 -198
c-15 -4 -28 -6 -43 -6c0 16 1 36 2 48c-5 -7 -10 -13 -15 -20zM110 14c101 0 110 154 110 200h-12c-105 0 -156 -76 -156 -136c0 -41 23 -63 58 -64zM84 466c12 4 24 5 36 6l-3 -46c-12 -4 -24 -5 -36 -6zM207 466c12 4 24 5 36 6l-4 -46c-12 -4 -23 -5 -35 -6z" />
    <glyph glyph-name="aring" unicode="&#xe5;" horiz-adv-x="276" 
d="M193 26c-23 -25 -53 -40 -87 -40c-55 0 -93 36 -96 91c0 85 76 165 209 165c-8 76 -49 105 -87 105c-24 0 -47 -10 -54 -25c11 -5 18 -16 18 -27c0 -16 -13 -29 -29 -29c-20 0 -29 15 -29 34c0 39 32 75 91 75c71 0 133 -68 133 -173c0 -12 -7 -80 -13 -198
c-15 -4 -28 -6 -43 -6c0 16 1 36 2 48c-5 -7 -10 -13 -15 -20zM110 14c101 0 110 154 110 200h-12c-105 0 -156 -76 -156 -136c0 -41 23 -63 58 -64zM235 481c-2 -35 -30 -65 -66 -70c-41 -6 -79 27 -77 69c1 37 30 70 67 74c42 4 79 -31 76 -73v0zM201 483
c1 27 -21 47 -47 42c-22 -3 -41 -23 -41 -45c-1 -26 22 -46 48 -42c21 4 38 24 40 45v0z" />
    <glyph glyph-name="ccedilla" unicode="&#xe7;" 
d="M228 83c7 -6 14 -12 22 -17c-24 -41 -58 -80 -115 -80c-89 0 -125 70 -125 138c0 94 74 251 160 251c47 0 60 -54 60 -93c0 -30 -7 -75 -20 -104c-12 4 -30 8 -43 10c12 16 31 46 31 104c0 25 -4 55 -30 55c-66 0 -116 -153 -116 -228c0 -54 24 -105 86 -105
c46 0 72 34 90 69zM136 -46c35 0 57 -24 61 -51c13 -82 -119 -137 -165 -28c12 0 24 2 35 5c22 -70 112 -42 97 17c-6 21 -25 25 -46 23c-7 8 -13 16 -19 26c11 15 21 36 23 58c9 -1 18 -2 28 -4c-3 -16 -7 -31 -14 -46z" />
    <glyph glyph-name="egrave" unicode="&#xe8;" 
d="M228 83c7 -6 14 -12 22 -17c-24 -44 -60 -80 -115 -80s-125 40 -125 139c0 53 55 250 160 250c38 0 72 -29 72 -67c0 -80 -110 -122 -184 -135c-4 -17 -6 -36 -6 -55c0 -80 48 -104 88 -104c43 0 70 32 88 69zM128 326c-31 -31 -53 -83 -64 -125c74 15 137 64 137 112
c0 23 -15 34 -31 34c-12 0 -26 -6 -42 -21zM114 518c30 -43 66 -78 124 -86c-1 -7 -3 -14 -5 -21c-66 6 -112 44 -150 90c10 7 20 13 31 17z" />
    <glyph glyph-name="eacute" unicode="&#xe9;" horiz-adv-x="274" 
d="M228 83c7 -6 14 -12 22 -17c-24 -44 -60 -80 -115 -80s-125 40 -125 139c0 53 55 250 160 250c38 0 72 -29 72 -67c0 -80 -110 -122 -184 -135c-4 -17 -6 -36 -6 -55c0 -80 48 -104 88 -104c43 0 70 32 88 69zM128 326c-31 -31 -53 -83 -64 -125c74 15 137 64 137 112
c0 23 -15 34 -31 34c-12 0 -26 -6 -42 -21zM211 518c11 -4 22 -10 31 -17c-37 -46 -84 -84 -149 -90c-3 7 -4 14 -6 21c58 8 94 43 124 86z" />
    <glyph glyph-name="ecircumflex" unicode="&#xea;" horiz-adv-x="280" 
d="M228 83c7 -6 14 -12 22 -17c-24 -44 -60 -80 -115 -80s-125 40 -125 139c0 53 55 250 160 250c38 0 72 -29 72 -67c0 -80 -110 -122 -184 -135c-4 -17 -6 -36 -6 -55c0 -80 48 -104 88 -104c43 0 70 32 88 69zM128 326c-31 -31 -53 -83 -64 -125c74 15 137 64 137 112
c0 23 -15 34 -31 34c-12 0 -26 -6 -42 -21zM94 411c-5 6 -10 12 -14 19c37 40 54 60 70 78c9 2 19 4 29 5c23 -30 34 -45 63 -83c-4 -7 -9 -12 -15 -18c-21 15 -45 41 -61 60c-20 -20 -49 -46 -72 -61z" />
    <glyph glyph-name="edieresis" unicode="&#xeb;" horiz-adv-x="274" 
d="M228 83c7 -6 14 -12 22 -17c-24 -44 -60 -80 -115 -80s-125 40 -125 139c0 53 55 250 160 250c38 0 72 -29 72 -67c0 -80 -110 -122 -184 -135c-4 -17 -6 -36 -6 -55c0 -80 48 -104 88 -104c43 0 70 32 88 69zM128 326c-31 -31 -53 -83 -64 -125c74 15 137 64 137 112
c0 23 -15 34 -31 34c-12 0 -26 -6 -42 -21zM85 466c12 4 24 5 36 6l-3 -46c-12 -4 -24 -5 -36 -6zM208 466c12 4 24 5 36 6l-4 -46c-12 -4 -23 -5 -35 -6z" />
    <glyph glyph-name="igrave" unicode="&#xec;" horiz-adv-x="184" 
d="M64 357c14 4 28 5 42 6l-24 -359c-15 -3 -28 -6 -43 -6zM45 518c30 -43 66 -78 124 -86c-1 -7 -3 -14 -5 -21c-66 6 -112 44 -150 90c10 7 20 13 31 17z" />
    <glyph glyph-name="iacute" unicode="&#xed;" horiz-adv-x="184" 
d="M62 357c14 4 28 5 42 6l-24 -359c-15 -3 -28 -6 -43 -6zM138 518c11 -4 22 -10 31 -17c-37 -46 -84 -84 -149 -90c-3 7 -4 14 -6 21c58 8 94 43 124 86z" />
    <glyph glyph-name="icircumflex" unicode="&#xee;" horiz-adv-x="191" 
d="M67 357c14 4 28 5 42 6l-24 -359c-15 -3 -28 -6 -43 -6zM28 411c-5 6 -10 12 -14 19c37 40 54 60 70 78c9 2 19 4 29 5c23 -30 34 -45 63 -83c-4 -7 -9 -12 -15 -18c-21 15 -45 41 -61 60c-20 -20 -49 -46 -72 -61z" />
    <glyph glyph-name="idieresis" unicode="&#xef;" horiz-adv-x="190" 
d="M70 357c14 4 28 5 42 6l-24 -359c-15 -3 -28 -6 -43 -6zM17 466c12 4 24 5 36 6l-3 -46c-12 -4 -24 -5 -36 -6zM140 466c12 4 24 5 36 6l-4 -46c-12 -4 -23 -5 -35 -6z" />
    <glyph glyph-name="ntilde" unicode="&#xf1;" horiz-adv-x="329" 
d="M282 341c10 -16 13 -39 13 -62c0 -84 -41 -173 -45 -275c-15 -3 -28 -6 -43 -6c0 129 45 196 45 292c0 36 -8 56 -35 56c-70 0 -133 -116 -155 -208l-9 -134c-15 -3 -28 -6 -43 -6l24 359c15 4 28 5 44 6l-9 -127c27 63 79 139 151 139c26 0 48 -10 62 -34zM270 480
c6 -6 12 -11 17 -17c-20 -25 -51 -51 -82 -55c-60 -6 -81 67 -92 91c-5 -8 -12 -21 -17 -31c-8 2 -15 5 -22 8c6 22 16 59 39 61c18 1 27 -17 35 -33c15 -31 28 -64 54 -62c22 0 51 24 68 38z" />
    <glyph glyph-name="ograve" unicode="&#xf2;" horiz-adv-x="301" 
d="M272 284c10 -26 14 -54 14 -82c0 -106 -60 -216 -152 -216c-83 0 -124 61 -124 148c0 16 1 32 4 48c13 -4 27 -6 41 -7c-5 -20 -9 -41 -9 -63c0 -61 33 -98 87 -98c75 0 112 99 112 195c0 106 -48 137 -82 137c-56 0 -82 -80 -82 -128c0 -54 30 -106 89 -134
c-4 -6 -8 -13 -12 -18c-75 36 -114 104 -114 176c0 79 54 133 114 133c56 0 95 -43 114 -91zM121 518c30 -43 66 -78 124 -86c-1 -7 -3 -14 -5 -21c-66 6 -112 44 -150 90c10 7 20 13 31 17z" />
    <glyph glyph-name="oacute" unicode="&#xf3;" horiz-adv-x="301" 
d="M272 284c10 -26 14 -54 14 -82c0 -106 -60 -216 -152 -216c-83 0 -124 61 -124 148c0 16 1 32 4 48c13 -4 27 -6 41 -7c-5 -20 -9 -41 -9 -63c0 -61 33 -98 87 -98c75 0 112 99 112 195c0 106 -48 137 -82 137c-56 0 -82 -80 -82 -128c0 -54 30 -106 89 -134
c-4 -6 -8 -13 -12 -18c-75 36 -114 104 -114 176c0 79 54 133 114 133c56 0 95 -43 114 -91zM214 518c11 -4 22 -10 31 -17c-37 -46 -84 -84 -149 -90c-3 7 -4 14 -6 21c58 8 94 43 124 86z" />
    <glyph glyph-name="ocircumflex" unicode="&#xf4;" horiz-adv-x="301" 
d="M272 284c10 -26 14 -54 14 -82c0 -106 -60 -216 -152 -216c-83 0 -124 61 -124 148c0 16 1 32 4 48c13 -4 27 -6 41 -7c-5 -20 -9 -41 -9 -63c0 -61 33 -98 87 -98c75 0 112 99 112 195c0 106 -48 137 -82 137c-56 0 -82 -80 -82 -128c0 -54 30 -106 89 -134
c-4 -6 -8 -13 -12 -18c-75 36 -114 104 -114 176c0 79 54 133 114 133c56 0 95 -43 114 -91zM97 411c-5 6 -10 12 -14 19c37 40 54 60 70 78c9 2 19 4 29 5c23 -30 34 -45 63 -83c-4 -7 -9 -12 -15 -18c-21 15 -45 41 -61 60c-20 -20 -49 -46 -72 -61z" />
    <glyph glyph-name="otilde" unicode="&#xf5;" horiz-adv-x="302" 
d="M272 284c10 -26 14 -54 14 -82c0 -106 -60 -216 -152 -216c-83 0 -124 61 -124 148c0 16 1 32 4 48c13 -4 27 -6 41 -7c-5 -20 -9 -41 -9 -63c0 -61 33 -98 87 -98c75 0 112 99 112 195c0 106 -48 137 -82 137c-56 0 -82 -80 -82 -128c0 -54 30 -106 89 -134
c-4 -6 -8 -13 -12 -18c-75 36 -114 104 -114 176c0 79 54 133 114 133c56 0 95 -43 114 -91zM258 480c6 -6 12 -11 17 -17c-20 -25 -51 -51 -82 -55c-60 -6 -81 67 -92 91c-5 -8 -12 -21 -17 -31c-8 2 -15 5 -22 8c6 22 16 59 39 61c18 1 27 -17 35 -33
c15 -31 28 -64 54 -62c22 0 51 24 68 38z" />
    <glyph glyph-name="odieresis" unicode="&#xf6;" horiz-adv-x="301" 
d="M272 284c10 -26 14 -54 14 -82c0 -106 -60 -216 -152 -216c-83 0 -124 61 -124 148c0 16 1 32 4 48c13 -4 27 -6 41 -7c-5 -20 -9 -41 -9 -63c0 -61 33 -98 87 -98c75 0 112 99 112 195c0 106 -48 137 -82 137c-56 0 -82 -80 -82 -128c0 -54 30 -106 89 -134
c-4 -6 -8 -13 -12 -18c-75 36 -114 104 -114 176c0 79 54 133 114 133c56 0 95 -43 114 -91zM89 466c12 4 24 5 36 6l-3 -46c-12 -4 -24 -5 -36 -6zM212 466c12 4 24 5 36 6l-4 -46c-12 -4 -23 -5 -35 -6z" />
    <glyph glyph-name="ugrave" unicode="&#xf9;" horiz-adv-x="279" 
d="M206 110c-25 -64 -69 -125 -124 -125c-66 0 -72 85 -72 156c0 77 8 148 15 216c14 3 28 5 42 5c-4 -78 -14 -156 -14 -245c0 -79 11 -103 35 -103c74 0 112 152 126 233l8 110c15 4 28 5 43 6l-25 -359c-14 -3 -28 -6 -42 -6zM102 518c30 -43 66 -78 124 -86
c-1 -7 -3 -14 -5 -21c-66 6 -112 44 -150 90c10 7 20 13 31 17z" />
    <glyph glyph-name="uacute" unicode="&#xfa;" horiz-adv-x="279" 
d="M206 110c-25 -64 -69 -125 -124 -125c-66 0 -72 85 -72 156c0 77 8 148 15 216c14 3 28 5 42 5c-4 -78 -14 -156 -14 -245c0 -79 11 -103 35 -103c74 0 112 152 126 233l8 110c15 4 28 5 43 6l-25 -359c-14 -3 -28 -6 -42 -6zM196 518c11 -4 22 -10 31 -17
c-37 -46 -84 -84 -149 -90c-3 7 -4 14 -6 21c58 8 94 43 124 86z" />
    <glyph glyph-name="ucircumflex" unicode="&#xfb;" horiz-adv-x="279" 
d="M206 110c-25 -64 -69 -125 -124 -125c-66 0 -72 85 -72 156c0 77 8 148 15 216c14 3 28 5 42 5c-4 -78 -14 -156 -14 -245c0 -79 11 -103 35 -103c74 0 112 152 126 233l8 110c15 4 28 5 43 6l-25 -359c-14 -3 -28 -6 -42 -6zM84 411c-5 6 -10 12 -14 19
c37 40 54 60 70 78c9 2 19 4 29 5c23 -30 34 -45 63 -83c-4 -7 -9 -12 -15 -18c-21 15 -45 41 -61 60c-20 -20 -49 -46 -72 -61z" />
    <glyph glyph-name="udieresis" unicode="&#xfc;" horiz-adv-x="279" 
d="M206 110c-25 -64 -69 -125 -124 -125c-66 0 -72 85 -72 156c0 77 8 148 15 216c14 3 28 5 42 5c-4 -78 -14 -156 -14 -245c0 -79 11 -103 35 -103c74 0 112 152 126 233l8 110c15 4 28 5 43 6l-25 -359c-14 -3 -28 -6 -42 -6zM71 466c12 4 24 5 36 6l-3 -46
c-12 -4 -24 -5 -36 -6zM194 466c12 4 24 5 36 6l-4 -46c-12 -4 -23 -5 -35 -6z" />
    <glyph glyph-name="yacute" unicode="&#xfd;" horiz-adv-x="288" 
d="M265 32c8 -5 15 -10 23 -17c-13 -22 -42 -67 -59 -91c-13 -109 -21 -276 -123 -276c-26 0 -49 16 -49 53c0 72 65 129 125 205c9 76 16 150 21 199c-21 -52 -54 -120 -121 -120c-64 0 -72 93 -72 161c0 63 6 145 14 211c10 2 28 5 38 5h4c-5 -86 -15 -191 -15 -264
c0 -48 6 -83 32 -84c79 0 115 144 131 233l8 110c14 4 28 5 42 5c-14 -214 -13 -225 -29 -382c6 10 25 42 30 52zM160 -240c7 26 13 58 18 99c-52 -60 -92 -111 -92 -155c0 -16 4 -23 14 -23c14 0 42 15 60 79zM194 518c11 -4 22 -10 31 -17c-37 -46 -84 -84 -149 -90
c-3 7 -4 14 -6 21c58 8 94 43 124 86z" />
    <glyph glyph-name="Aogonek" unicode="&#x104;" horiz-adv-x="1022" 
d="M1154 -162c15 -4 28 -5 44 -6c-19 -30 -42 -68 -113 -68c-143 0 -185 219 -198 330c-21 -34 -56 -50 -86 -50c-35 0 -65 20 -65 57c0 33 24 62 55 62c5 0 10 0 15 -1c-2 -8 -4 -15 -6 -21c-2 1 -5 1 -6 1c-20 0 -32 -21 -32 -37c0 -21 18 -33 39 -33c37 0 76 32 76 108
c0 110 -35 208 -128 282c-93 -240 -215 -551 -490 -551c-157 0 -249 103 -249 239c0 48 11 99 35 150c81 175 251 275 437 275c86 0 172 -21 244 -65c68 158 135 266 186 332c16 0 31 -2 46 -5c-32 -156 -40 -319 -40 -479c0 -100 4 -200 17 -295c13 -97 43 -270 146 -270
c32 0 63 13 73 45zM606 230c28 58 68 157 110 255c-66 41 -146 63 -226 63c-172 0 -331 -90 -408 -265c-20 -46 -31 -93 -31 -136c0 -114 71 -205 203 -208c161 0 276 138 352 291zM759 488c49 -38 88 -82 114 -139c0 160 8 289 33 437c-36 -43 -87 -144 -147 -298z
M1203 -373c1 -8 3 -18 4 -27c-51 -11 -155 -37 -143 59c7 54 54 111 96 168c12 3 25 5 39 5c-103 -125 -154 -247 4 -205z" />
    <glyph glyph-name="aogonek" unicode="&#x105;" horiz-adv-x="276" 
d="M193 26c-23 -25 -53 -40 -87 -40c-55 0 -93 36 -96 91c0 85 76 165 209 165c-8 76 -49 105 -87 105c-24 0 -47 -10 -54 -25c11 -5 18 -16 18 -27c0 -16 -13 -29 -29 -29c-20 0 -29 15 -29 34c0 39 32 75 91 75c71 0 133 -68 133 -173c0 -12 -7 -80 -13 -198
c-15 -4 -28 -6 -43 -6c0 16 1 36 2 48c-5 -7 -10 -13 -15 -20zM110 14c101 0 110 154 110 200h-12c-105 0 -156 -76 -156 -136c0 -41 23 -63 58 -64zM249 -201c1 -8 3 -18 4 -27c-51 -11 -155 -37 -143 59c7 54 54 111 96 168c12 3 25 5 39 5c-103 -125 -154 -247 4 -205z
" />
    <glyph glyph-name="Ebreve" unicode="&#x114;" horiz-adv-x="617" 
d="M599 754c2 -8 3 -16 3 -24c0 -117 -169 -189 -292 -210c30 -26 74 -38 113 -38c14 0 25 2 37 4c2 -9 3 -19 4 -28c-158 -37 -334 -166 -334 -346c0 -99 64 -174 179 -174c112 0 233 85 233 230c0 79 -43 144 -124 144c-50 0 -112 -35 -112 -110c0 -29 11 -58 34 -76
c-10 -10 -18 -21 -26 -34c-29 31 -41 66 -41 101c0 100 82 148 150 148c104 0 160 -83 160 -175c0 -182 -165 -256 -276 -256c-150 0 -221 105 -221 208c0 154 124 294 288 348c-40 6 -78 21 -107 49c-15 -1 -29 -2 -45 -2c-116 0 -251 57 -251 185c0 65 47 115 91 115
c33 0 56 -32 56 -62c0 -17 -7 -33 -23 -43c-4 6 -8 11 -12 18c8 5 11 14 11 23c0 17 -12 37 -32 37c-27 0 -62 -38 -62 -89c0 -114 125 -156 224 -156c7 0 14 1 22 1c-19 27 -28 60 -28 92c0 116 100 220 230 220c74 0 139 -32 151 -100zM491 618c37 28 68 72 68 116
c0 59 -49 92 -109 92c-118 0 -188 -110 -188 -200c0 -29 8 -57 25 -81c73 8 151 33 204 73zM535 985c0 -58 -44 -95 -88 -96c-51 -2 -91 42 -84 92c8 1 16 3 24 4c2 -40 28 -60 59 -60c31 1 58 25 65 56c8 2 16 3 24 4z" />
    <glyph glyph-name="eogonek" unicode="&#x119;" 
d="M228 83c7 -6 14 -12 22 -17c-24 -44 -60 -80 -115 -80s-125 40 -125 139c0 53 55 250 160 250c38 0 72 -29 72 -67c0 -80 -110 -122 -184 -135c-4 -17 -6 -36 -6 -55c0 -80 48 -104 88 -104c43 0 70 32 88 69zM128 326c-31 -31 -53 -83 -64 -125c74 15 137 64 137 112
c0 23 -15 34 -31 34c-12 0 -26 -6 -42 -21zM204 -198c1 -8 3 -18 4 -27c-51 -11 -155 -37 -143 59c7 54 54 111 96 168c12 3 25 5 39 5c-103 -125 -154 -247 4 -205z" />
    <glyph glyph-name="Hcircumflex" unicode="&#x124;" horiz-adv-x="841" 
d="M802 839c49 -33 68 -95 68 -157c0 -181 -162 -328 -318 -404c-2 -43 -4 -87 -4 -130c0 -106 -7 -356 124 -356c32 0 62 14 71 46c15 -4 28 -5 43 -6c-23 -39 -57 -68 -111 -68c-178 0 -173 318 -173 415c0 27 1 53 2 79c-68 -22 -154 -33 -229 -33c-9 0 -19 0 -29 1
l-20 -297c-14 -3 -28 -5 -42 -6l20 306c-94 11 -194 69 -194 181c0 65 46 112 88 112c35 0 57 -32 57 -60c0 -18 -7 -34 -23 -44l-12 18c8 6 11 14 11 23c0 17 -13 37 -31 37c-26 0 -62 -35 -62 -87c0 -94 88 -143 168 -152l36 519c13 4 28 6 42 6l-36 -528
c9 -1 18 -1 28 -1c74 0 164 11 230 35c4 76 11 151 24 226c24 130 82 344 211 344c20 0 41 -6 61 -19zM842 654c1 8 1 16 1 25c0 62 -25 143 -92 143c-105 0 -153 -204 -173 -316c-11 -64 -19 -132 -24 -196c134 66 272 191 288 344zM371 808c-5 6 -10 12 -14 19
c37 40 54 60 70 78c9 2 19 4 29 5c23 -30 34 -45 63 -83c-4 -7 -9 -12 -15 -18c-21 15 -45 41 -61 60c-20 -20 -49 -46 -72 -61z" />
    <glyph glyph-name="hcircumflex" unicode="&#x125;" horiz-adv-x="314" 
d="M227 346h-6c-70 0 -133 -116 -155 -208l-9 -134c-15 -3 -28 -6 -43 -6l46 665c14 4 28 6 42 7l-29 -434c27 63 79 139 151 139c46 0 75 -33 75 -96c0 -84 -41 -173 -45 -275c-15 -3 -28 -6 -43 -6c0 129 45 196 45 292c0 32 -6 53 -29 56zM137 712c-5 6 -10 12 -14 19
c37 40 54 60 70 78c9 2 19 4 29 5c23 -30 34 -45 63 -83c-4 -7 -9 -12 -15 -18c-21 15 -45 41 -61 60c-20 -20 -49 -46 -72 -61z" />
    <glyph glyph-name="Jcircumflex" unicode="&#x134;" horiz-adv-x="626" 
d="M509 842c14 0 29 -2 43 -5c-3 -53 -13 -103 -34 -151c-19 -219 -15 -412 -35 -619c-19 -193 -68 -420 -286 -420c-99 0 -156 63 -156 135c0 60 45 108 88 108c31 0 57 -29 57 -61c0 -17 -7 -33 -23 -43c-5 6 -8 12 -12 18c7 6 11 14 11 22c0 18 -13 37 -32 37
c-28 0 -61 -36 -61 -81c0 -55 43 -107 125 -107c179 0 230 167 247 395c11 163 13 349 31 541c-46 -61 -112 -107 -175 -149c-138 -89 -246 -148 -246 -284c0 -90 60 -166 156 -166c67 0 111 42 111 92c0 37 -20 68 -64 68h-5c0 14 2 28 5 42c61 -5 96 -50 96 -103
c0 -69 -55 -127 -144 -127c-114 0 -196 89 -196 198c0 157 126 224 268 311c78 48 156 104 201 182c7 55 17 111 30 167zM463 884c-5 6 -10 12 -14 19c37 40 54 60 70 78c9 2 19 4 29 5c23 -30 34 -45 63 -83c-4 -7 -9 -12 -15 -18c-21 15 -45 41 -61 60
c-20 -20 -49 -46 -72 -61z" />
    <glyph glyph-name="jcircumflex" unicode="&#x135;" horiz-adv-x="150" 
d="M115 31c3 -1 11 -5 23 -17c-14 -24 -40 -66 -58 -91c-12 -97 -22 -274 -122 -274c-36 0 -50 21 -50 53c0 68 65 127 125 203c25 229 22 247 40 452c14 3 28 5 42 5c-13 -234 -22 -323 -29 -382c4 6 24 42 29 51zM-43 -318c53 8 66 134 71 176c-45 -52 -92 -104 -92 -154
c0 -13 5 -23 17 -23c1 0 2 1 4 1zM31 411c-5 6 -10 12 -14 19c37 40 54 60 70 78c9 2 19 4 29 5c23 -30 34 -45 63 -83c-4 -7 -9 -12 -15 -18c-21 15 -45 41 -61 60c-20 -20 -49 -46 -72 -61z" />
    <glyph glyph-name="Nacute" unicode="&#x143;" horiz-adv-x="993" 
d="M986 780c0 28 -19 45 -45 45c-111 0 -130 -253 -139 -367c-6 -74 -20 -276 -25 -351c8 -38 11 -75 11 -113c0 -23 -2 -47 -4 -71c-14 0 -28 3 -42 6c6 28 7 60 9 98c-20 158 -97 281 -181 428c-8 -101 -28 -301 -68 -393c-49 -111 -128 -152 -225 -152
c-155 0 -267 121 -267 272c0 130 102 232 204 232c96 0 168 -74 168 -167c0 -33 -9 -69 -29 -106c-11 9 -22 18 -34 25c19 30 29 60 29 89c0 67 -53 131 -133 131c-77 0 -163 -84 -163 -206c0 -134 93 -241 229 -241c84 0 152 33 196 134c41 94 61 323 68 427
c-45 80 -103 197 -103 278c0 40 11 76 48 77c71 0 88 -83 88 -200c0 -36 -1 -75 -3 -112c65 -120 142 -234 184 -365c9 157 11 220 15 282c11 136 36 395 172 395c40 0 73 -26 82 -69c-14 0 -28 -3 -42 -6zM550 592c0 33 1 60 1 82c0 124 -29 152 -56 152
c-13 0 -19 -12 -19 -30c0 -43 28 -117 74 -204zM744 912c11 -4 22 -10 31 -17c-37 -46 -84 -84 -149 -90c-3 7 -4 14 -6 21c58 8 94 43 124 86z" />
    <glyph glyph-name="nacute" unicode="&#x144;" horiz-adv-x="310" 
d="M282 341c10 -16 13 -39 13 -62c0 -84 -41 -173 -45 -275c-15 -3 -28 -6 -43 -6c0 129 45 196 45 292c0 36 -8 56 -35 56c-70 0 -133 -116 -155 -208l-9 -134c-15 -3 -28 -6 -43 -6l24 359c15 4 28 5 44 6l-9 -127c27 63 79 139 151 139c26 0 48 -10 62 -34zM224 518
c11 -4 22 -10 31 -17c-37 -46 -84 -84 -149 -90c-3 7 -4 14 -6 21c58 8 94 43 124 86z" />
    <glyph glyph-name="Ohungarumlaut" unicode="&#x150;" horiz-adv-x="891" 
d="M827 590c31 -73 49 -162 49 -254c0 -214 -108 -425 -313 -425c-160 0 -264 121 -276 314c-6 0 -13 -1 -21 -1c-167 0 -256 85 -256 186c0 68 45 115 88 115c32 0 57 -31 57 -62c0 -17 -7 -33 -23 -43c-4 6 -8 11 -11 18c7 5 10 14 10 22c0 18 -13 37 -32 37
c-28 0 -61 -36 -61 -88c0 -83 76 -156 220 -156c9 0 19 0 28 1v17c0 90 17 186 52 276c54 143 173 307 327 307c89 0 160 -84 160 -176c0 -30 -6 -60 -15 -91c5 2 11 3 17 3zM382 530c-34 -90 -50 -186 -50 -272c202 29 451 214 451 424c0 72 -46 144 -117 144
c-128 0 -239 -173 -284 -296zM829 258c5 36 8 74 8 111c0 73 -11 146 -30 213c-65 -188 -277 -330 -475 -353c10 -171 82 -290 231 -290c159 0 240 165 266 319zM677 1009l-105 -109c-5 4 -9 10 -13 16l97 122c8 -9 14 -18 21 -29zM766 1009l-105 -109c-4 4 -9 10 -13 16
l97 122c8 -9 15 -18 21 -29z" />
    <glyph glyph-name="ohungarumlaut" unicode="&#x151;" horiz-adv-x="301" 
d="M272 284c10 -26 14 -54 14 -82c0 -106 -60 -216 -152 -216c-83 0 -124 61 -124 148c0 16 1 32 4 48c13 -4 27 -6 41 -7c-5 -20 -9 -41 -9 -63c0 -61 33 -98 87 -98c75 0 112 99 112 195c0 106 -48 137 -82 137c-56 0 -82 -80 -82 -128c0 -54 30 -106 89 -134
c-4 -6 -8 -13 -12 -18c-75 36 -114 104 -114 176c0 79 54 133 114 133c56 0 95 -43 114 -91zM182 523l-105 -109c-5 4 -9 10 -13 16l97 122c8 -9 14 -18 21 -29zM271 523l-105 -109c-4 4 -9 10 -13 16l97 122c8 -9 15 -18 21 -29z" />
    <glyph glyph-name="Scircumflex" unicode="&#x15c;" horiz-adv-x="660" 
d="M642 331c2 -17 3 -33 3 -49c0 -216 -154 -371 -339 -371c-180 0 -296 137 -296 299c0 164 132 332 303 332c140 0 226 -120 226 -249c0 -51 -14 -88 -36 -123c-10 9 -21 17 -33 24c22 31 35 70 35 112c0 115 -82 208 -191 208c-129 0 -260 -129 -260 -299
c0 -161 112 -276 251 -276c165 0 292 163 292 339c0 73 -19 144 -52 204c-51 92 -182 217 -182 295c0 45 34 77 75 77c54 0 92 -50 92 -106c0 -28 -8 -56 -19 -82c-7 0 -15 2 -22 4c11 19 19 46 19 72c0 41 -26 84 -65 84c-21 0 -37 -15 -37 -40c0 -27 23 -63 52 -103
c99 -133 170 -216 184 -352zM396 898c-5 6 -10 12 -14 19c37 40 54 60 70 78c9 2 19 4 29 5c23 -30 34 -45 63 -83c-4 -7 -9 -12 -15 -18c-21 15 -45 41 -61 60c-20 -20 -49 -46 -72 -61z" />
    <glyph glyph-name="scircumflex" unicode="&#x15d;" horiz-adv-x="268" 
d="M220 168c18 -26 33 -57 33 -88c0 -84 -105 -94 -134 -94c-49 0 -109 20 -109 73c0 30 23 60 57 60c21 0 41 -13 54 -29c-8 -6 -16 -12 -22 -17c-9 10 -21 21 -34 21c-17 0 -30 -19 -30 -35c0 -35 46 -46 82 -46s93 13 93 65c0 96 -154 137 -154 224c0 46 41 72 81 72
c47 0 63 -33 74 -52c-8 -6 -16 -12 -23 -18c-9 26 -20 44 -47 44s-44 -17 -44 -38c0 -48 76 -76 123 -142zM80 411c-5 6 -10 12 -14 19c37 40 54 60 70 78c9 2 19 4 29 5c23 -30 34 -45 63 -83c-4 -7 -9 -12 -15 -18c-21 15 -45 41 -61 60c-20 -20 -49 -46 -72 -61z" />
    <glyph glyph-name="Sacute" unicode="&#x15a;" horiz-adv-x="660" 
d="M642 331c2 -17 3 -33 3 -49c0 -216 -154 -371 -339 -371c-180 0 -296 137 -296 299c0 164 132 332 303 332c140 0 226 -120 226 -249c0 -51 -14 -88 -36 -123c-10 9 -21 17 -33 24c22 31 35 70 35 112c0 115 -82 208 -191 208c-129 0 -260 -129 -260 -299
c0 -161 112 -276 251 -276c165 0 292 163 292 339c0 73 -19 144 -52 204c-51 92 -182 217 -182 295c0 45 34 77 75 77c54 0 92 -50 92 -106c0 -28 -8 -56 -19 -82c-7 0 -15 2 -22 4c11 19 19 46 19 72c0 41 -26 84 -65 84c-21 0 -37 -15 -37 -40c0 -27 23 -63 52 -103
c99 -133 170 -216 184 -352zM502 1004c11 -4 22 -10 31 -17c-37 -46 -84 -84 -149 -90c-3 7 -4 14 -6 21c58 8 94 43 124 86z" />
    <glyph glyph-name="sacute" unicode="&#x15b;" horiz-adv-x="268" 
d="M220 168c18 -26 33 -57 33 -88c0 -84 -105 -94 -134 -94c-49 0 -109 20 -109 73c0 30 23 60 57 60c21 0 41 -13 54 -29c-8 -6 -16 -12 -22 -17c-9 10 -21 21 -34 21c-17 0 -30 -19 -30 -35c0 -35 46 -46 82 -46s93 13 93 65c0 96 -154 137 -154 224c0 46 41 72 81 72
c47 0 63 -33 74 -52c-8 -6 -16 -12 -23 -18c-9 26 -20 44 -47 44s-44 -17 -44 -38c0 -48 76 -76 123 -142zM195 518c11 -4 22 -10 31 -17c-37 -46 -84 -84 -149 -90c-3 7 -4 14 -6 21c58 8 94 43 124 86z" />
    <glyph glyph-name="Ubreve" unicode="&#x16c;" horiz-adv-x="889" 
d="M911 -158c15 -3 28 -5 43 -5c-25 -47 -65 -71 -108 -71c-125 0 -120 232 -120 374c0 47 4 101 8 159c-42 -158 -121 -388 -260 -388c-88 0 -110 68 -110 140c0 144 90 382 90 542c0 101 -34 177 -163 177c-120 0 -239 -88 -239 -237c0 -103 74 -166 171 -166
c76 0 131 47 131 84c0 18 -15 36 -34 36c-9 0 -18 -3 -26 -10c-4 5 -9 11 -13 17c13 10 26 15 39 15c32 0 57 -31 57 -59c0 -52 -67 -112 -163 -112c-116 0 -204 74 -204 194c0 164 144 267 290 267c150 0 199 -90 199 -217c0 -176 -90 -408 -90 -541c0 -51 16 -97 75 -97
c137 0 226 332 263 518c24 291 20 251 31 373c16 4 31 7 47 7c-36 -372 -56 -483 -56 -716c0 -115 -16 -332 77 -332c35 0 59 24 65 48zM719 908c0 -58 -44 -95 -88 -96c-51 -2 -91 42 -84 92c8 1 16 3 24 4c2 -40 28 -60 59 -60c31 1 58 25 65 56c8 2 16 3 24 4z" />
    <glyph glyph-name="Uhungarumlaut" unicode="&#x170;" horiz-adv-x="889" 
d="M911 -158c15 -3 28 -5 43 -5c-25 -47 -65 -71 -108 -71c-125 0 -120 232 -120 374c0 47 4 101 8 159c-42 -158 -121 -388 -260 -388c-88 0 -110 68 -110 140c0 144 90 382 90 542c0 101 -34 177 -163 177c-120 0 -239 -88 -239 -237c0 -103 74 -166 171 -166
c76 0 131 47 131 84c0 18 -15 36 -34 36c-9 0 -18 -3 -26 -10c-4 5 -9 11 -13 17c13 10 26 15 39 15c32 0 57 -31 57 -59c0 -52 -67 -112 -163 -112c-116 0 -204 74 -204 194c0 164 144 267 290 267c150 0 199 -90 199 -217c0 -176 -90 -408 -90 -541c0 -51 16 -97 75 -97
c137 0 226 332 263 518c24 291 20 251 31 373c16 4 31 7 47 7c-36 -372 -56 -483 -56 -716c0 -115 -16 -332 77 -332c35 0 59 24 65 48zM644 900l-105 -109c-5 4 -9 10 -13 16l97 122c8 -9 14 -18 21 -29zM733 900l-105 -109c-4 4 -9 10 -13 16l97 122c8 -9 15 -18 21 -29z
" />
    <glyph glyph-name="ubreve" unicode="&#x16d;" horiz-adv-x="279" 
d="M206 110c-25 -64 -69 -125 -124 -125c-66 0 -72 85 -72 156c0 77 8 148 15 216c14 3 28 5 42 5c-4 -78 -14 -156 -14 -245c0 -79 11 -103 35 -103c74 0 112 152 126 233l8 110c15 4 28 5 43 6l-25 -359c-14 -3 -28 -6 -42 -6zM241 502c0 -58 -44 -95 -88 -96
c-51 -2 -91 42 -84 92c8 1 16 3 24 4c2 -40 28 -60 59 -60c31 1 58 25 65 56c8 2 16 3 24 4z" />
    <glyph glyph-name="uhungarumlaut" unicode="&#x171;" horiz-adv-x="279" 
d="M206 110c-25 -64 -69 -125 -124 -125c-66 0 -72 85 -72 156c0 77 8 148 15 216c14 3 28 5 42 5c-4 -78 -14 -156 -14 -245c0 -79 11 -103 35 -103c74 0 112 152 126 233l8 110c15 4 28 5 43 6l-25 -359c-14 -3 -28 -6 -42 -6zM162 520l-105 -109c-5 4 -9 10 -13 16
l97 122c8 -9 14 -18 21 -29zM251 520l-105 -109c-4 4 -9 10 -13 16l97 122c8 -9 15 -18 21 -29z" />
    <glyph glyph-name="Ydieresis" unicode="&#x178;" horiz-adv-x="868" 
d="M777 835c16 4 31 7 47 7c-9 -94 -20 -184 -35 -279c-29 -401 -22 -578 -71 -718c-37 -107 -112 -197 -244 -197c-87 0 -159 58 -159 132c0 60 45 111 89 111c35 0 59 -32 59 -63c0 -17 -7 -34 -23 -44c-6 7 -10 15 -15 23c7 5 10 12 10 21c0 15 -13 35 -29 35
c-31 0 -62 -36 -62 -83c0 -62 60 -106 127 -106c121 0 185 86 214 181c30 100 29 218 41 441c-44 -142 -125 -315 -241 -315c-84 0 -107 69 -107 140c0 36 5 74 11 106c23 131 65 227 65 365c0 103 -44 178 -163 178c-144 0 -240 -109 -240 -236c0 -88 60 -165 169 -165
c68 0 134 43 134 82c0 15 -15 36 -35 36c-8 0 -17 -3 -28 -12c-5 6 -9 11 -13 17c14 12 28 17 42 17c34 0 56 -31 56 -59c0 -52 -66 -112 -163 -112c-132 0 -203 90 -203 193c0 147 117 267 289 267c154 0 199 -101 199 -216c1 -146 -40 -240 -63 -364
c-5 -27 -12 -68 -12 -104c0 -56 16 -100 71 -100c127 0 219 308 240 388c18 277 36 383 43 433zM553 879c12 4 24 5 36 6l-3 -46c-12 -4 -24 -5 -36 -6zM676 879c12 4 24 5 36 6l-4 -46c-12 -4 -23 -5 -35 -6z" />
    <glyph glyph-name="ydieresis" unicode="&#xff;" horiz-adv-x="288" 
d="M265 32c8 -5 15 -10 23 -17c-13 -22 -42 -67 -59 -91c-13 -109 -21 -276 -123 -276c-26 0 -49 16 -49 53c0 72 65 129 125 205c9 76 16 150 21 199c-21 -52 -54 -120 -121 -120c-64 0 -72 93 -72 161c0 63 6 145 14 211c10 2 28 5 38 5h4c-5 -86 -15 -191 -15 -264
c0 -48 6 -83 32 -84c79 0 115 144 131 233l8 110c14 4 28 5 42 5c-14 -214 -13 -225 -29 -382c6 10 25 42 30 52zM160 -240c7 26 13 58 18 99c-52 -60 -92 -111 -92 -155c0 -16 4 -23 14 -23c14 0 42 15 60 79zM74 466c12 4 24 5 36 6l-3 -46c-12 -4 -24 -5 -36 -6zM197 466
c12 4 24 5 36 6l-4 -46c-12 -4 -23 -5 -35 -6z" />
    <glyph glyph-name="Zdotaccent" unicode="&#x17b;" horiz-adv-x="792" 
d="M848 798c14 -7 26 -16 38 -27c-105 -125 -236 -254 -381 -330c-99 -122 -207 -264 -296 -367c43 14 94 22 146 22c153 0 323 -70 323 -223c0 -59 -32 -107 -82 -107c-35 0 -62 26 -62 58c0 12 4 25 12 38c6 -4 12 -8 17 -12c-5 -8 -7 -16 -7 -24c0 -16 12 -35 38 -35
c28 0 50 29 50 70c0 108 -132 205 -295 205c-60 0 -123 -12 -186 -41c-36 -38 -97 -98 -147 -107c-8 4 -14 10 -22 16c39 43 84 79 136 107c82 89 186 233 286 361c-48 -17 -98 -27 -147 -27c-156 0 -271 108 -271 254c0 205 159 343 308 343c106 0 213 -78 213 -206
c0 -75 -41 -149 -125 -197c-8 12 -16 23 -25 33c63 40 107 96 107 165c0 107 -90 176 -178 176c-150 0 -257 -162 -257 -317c0 -135 109 -222 235 -222c58 0 117 15 172 38c96 122 266 332 400 356zM553 498c104 66 199 159 279 252c-94 -37 -214 -174 -279 -252zM257 720
l4 58c14 4 28 6 43 6l-5 -58c-13 -4 -28 -6 -42 -6z" />
    <glyph glyph-name="Zacute" unicode="&#x179;" horiz-adv-x="792" 
d="M848 798c14 -7 26 -16 38 -27c-105 -125 -236 -254 -381 -330c-99 -122 -207 -264 -296 -367c43 14 94 22 146 22c153 0 323 -70 323 -223c0 -59 -32 -107 -82 -107c-35 0 -62 26 -62 58c0 12 4 25 12 38c6 -4 12 -8 17 -12c-5 -8 -7 -16 -7 -24c0 -16 12 -35 38 -35
c28 0 50 29 50 70c0 108 -132 205 -295 205c-60 0 -123 -12 -186 -41c-36 -38 -97 -98 -147 -107c-8 4 -14 10 -22 16c39 43 84 79 136 107c82 89 186 233 286 361c-48 -17 -98 -27 -147 -27c-156 0 -271 108 -271 254c0 205 159 343 308 343c106 0 213 -78 213 -206
c0 -75 -41 -149 -125 -197c-8 12 -16 23 -25 33c63 40 107 96 107 165c0 107 -90 176 -178 176c-150 0 -257 -162 -257 -317c0 -135 109 -222 235 -222c58 0 117 15 172 38c96 122 266 332 400 356zM553 498c104 66 199 159 279 252c-94 -37 -214 -174 -279 -252zM346 819
c11 -4 22 -10 31 -17c-37 -46 -84 -84 -149 -90c-3 7 -4 14 -6 21c58 8 94 43 124 86z" />
    <glyph glyph-name="zdotaccent" unicode="&#x17c;" horiz-adv-x="278" 
d="M237 377c10 -11 19 -23 26 -35c-19 -32 -134 -230 -192 -311c11 1 22 2 32 2c87 0 138 -65 138 -111c0 -29 -20 -52 -45 -52c-29 0 -42 36 -62 36c-11 0 -17 -14 -17 -26c0 -10 3 -15 10 -15c3 0 4 0 7 1c1 -7 3 -14 4 -20c-4 -1 -7 -2 -11 -2c-21 0 -32 18 -32 38
c0 28 18 49 40 49c33 0 37 -21 51 -21c9 0 16 7 16 20c0 32 -32 76 -90 76c-40 0 -73 -20 -77 -21c-9 10 -17 21 -25 33c52 66 157 244 191 300c-68 -25 -115 -36 -168 -44c-1 10 -3 20 -4 28c92 6 176 45 208 75zM145 386l4 58c14 4 28 6 43 6l-5 -58c-13 -4 -28 -6 -42 -6
z" />
    <glyph glyph-name="zacute" unicode="&#x17a;" horiz-adv-x="278" 
d="M237 377c10 -11 19 -23 26 -35c-19 -32 -134 -230 -192 -311c11 1 22 2 32 2c87 0 138 -65 138 -111c0 -29 -20 -52 -45 -52c-29 0 -42 36 -62 36c-11 0 -17 -14 -17 -26c0 -10 3 -15 10 -15c3 0 4 0 7 1c1 -7 3 -14 4 -20c-4 -1 -7 -2 -11 -2c-21 0 -32 18 -32 38
c0 28 18 49 40 49c33 0 37 -21 51 -21c9 0 16 7 16 20c0 32 -32 76 -90 76c-40 0 -73 -20 -77 -21c-9 10 -17 21 -25 33c52 66 157 244 191 300c-68 -25 -115 -36 -168 -44c-1 10 -3 20 -4 28c92 6 176 45 208 75zM186 484c11 -4 22 -10 31 -17c-37 -46 -84 -84 -149 -90
c-3 7 -4 14 -6 21c58 8 94 43 124 86z" />
    <glyph glyph-name="uni0025" horiz-adv-x="474" 
d="M74 298c55 -18 121 27 128 116c3 43 -8 92 -43 116c-39 28 -113 17 -140 -63c-20 -64 -6 -150 55 -169zM166 418c-6 -52 -39 -107 -84 -92c-39 13 -44 84 -28 130c24 70 67 74 90 55c24 -20 26 -63 22 -93zM330 65c55 -18 121 28 128 117c4 43 -8 92 -43 116
c-39 28 -113 16 -139 -63c-21 -64 -6 -151 54 -170zM423 186c-6 -52 -40 -107 -84 -92c-40 13 -45 83 -29 129c24 71 68 75 91 55s25 -62 22 -92zM370 610c13 0 25 -2 37 -4l-308 -608c-13 1 -25 3 -37 5z" />
    <glyph glyph-name="e" unicode="e" 
d="M228 83c7 -6 14 -12 22 -17c-24 -44 -60 -80 -115 -80s-125 40 -125 139c0 53 55 250 160 250c38 0 72 -29 72 -67c0 -80 -110 -122 -184 -135c-4 -17 -6 -36 -6 -55c0 -80 48 -104 88 -104c43 0 70 32 88 69zM128 326c-31 -31 -53 -83 -64 -125c74 15 137 64 137 112
c0 23 -15 34 -31 34c-12 0 -26 -6 -42 -21z" />
    <glyph glyph-name="s" unicode="s" horiz-adv-x="269" 
d="M221 168c18 -26 33 -57 33 -88c0 -84 -105 -94 -134 -94c-49 0 -109 20 -109 73c0 30 23 60 57 60c21 0 41 -13 54 -29c-8 -6 -16 -12 -22 -17c-9 10 -21 21 -34 21c-17 0 -30 -19 -30 -35c0 -35 46 -46 82 -46s93 13 93 65c0 96 -154 137 -154 224c0 46 41 72 81 72
c47 0 63 -33 74 -52c-8 -6 -16 -12 -23 -18c-9 26 -20 44 -47 44s-44 -17 -44 -38c0 -48 76 -76 123 -142z" />
    <glyph glyph-name="foursuperior" unicode="&#x2074;" horiz-adv-x="171" 
d="M157 555c-10 -3 -18 -4 -27 -5l-4 -48c-12 -3 -24 -4 -36 -5l4 55c-15 2 -30 5 -40 5c-9 -1 -16 -4 -22 -11c-8 10 -15 19 -22 29c12 19 20 39 25 63c6 24 7 49 7 74c12 2 23 4 35 4c0 -14 -1 -33 -2 -43c-1 -15 -2 -29 -5 -43c-4 -18 -10 -35 -17 -50c17 0 28 -2 43 -3
l10 144c12 2 24 4 36 5l-11 -146c7 2 10 5 21 13c0 -13 2 -25 5 -38z" />
    <glyph glyph-name="fl" unicode="&#xfb02;" horiz-adv-x="288" 
d="M22 375c-3 -9 -4 -19 -4 -28h20c-1 -19 -3 -39 -4 -60c-4 -105 -9 -206 -13 -289c15 0 27 3 42 6c6 85 8 195 14 293c1 17 2 34 3 50h51c1 5 2 9 3 14l1 14h-52l2 15c3 44 18 158 44 192c7 11 15 15 22 3c18 -25 15 -81 -1 -104c11 -7 20 -14 29 -22c19 59 12 112 -1 140
c-19 35 -54 35 -79 8c-41 -44 -49 -151 -57 -213c0 -6 -1 -12 -2 -19h-18zM273 671l-45 -665c-15 -4 -28 -6 -44 -6l47 665c13 4 28 5 42 6z" />
    <glyph glyph-name="fi" unicode="&#xfb01;" horiz-adv-x="267" 
d="M22 375h18c1 7 2 13 2 19c8 62 16 169 57 213c25 27 60 27 79 -8c13 -28 20 -81 1 -140c-9 8 -18 15 -29 22c16 23 19 79 1 104c-7 12 -15 8 -22 -3c-26 -34 -41 -148 -44 -192l-2 -15h52l-1 -14c-1 -5 -2 -9 -3 -14h-51c-1 -16 -2 -33 -3 -50c-6 -98 -8 -208 -14 -293
c-15 -3 -27 -6 -42 -6c4 83 9 184 13 289c1 21 3 41 4 60h-20c0 9 1 19 4 28zM202 357c15 4 28 5 43 6l-25 -359c-15 -3 -28 -6 -43 -6zM205 419l4 59c15 4 28 5 44 6l-5 -58c-14 -4 -28 -6 -43 -7z" />
    <glyph glyph-name="quotesingle" unicode="'" horiz-adv-x="64" 
d="M10 731c15 4 28 6 43 7l-18 -155c-9 -1 -19 -3 -29 -4z" />
    <glyph glyph-name="quotedbl" unicode="&#x22;" horiz-adv-x="126" 
d="M10 731c15 4 28 6 43 7l-18 -155c-9 -1 -19 -3 -29 -4zM72 731c15 4 28 6 43 7l-18 -155c-9 -1 -19 -3 -29 -4z" />
    <glyph glyph-name="quoteleft" unicode="&#x2018;" horiz-adv-x="76" 
d="M42 570c-31 49 -36 116 -28 173c8 0 19 0 28 -1c-10 -82 10 -100 32 -145c-8 -11 -20 -19 -32 -27v0z" />
    <glyph glyph-name="quoteright" unicode="&#x2019;" horiz-adv-x="78" 
d="M33 749c30 -50 35 -116 28 -174c-9 0 -19 0 -29 2c10 81 -10 99 -32 145c9 10 21 19 33 27v0z" />
    <glyph glyph-name="quotedblleft" unicode="&#x201c;" horiz-adv-x="182" 
d="M42 570c-31 49 -36 116 -28 173c8 0 19 0 28 -1c-10 -82 10 -100 32 -145c-8 -11 -20 -19 -32 -27v0zM124 570c-31 49 -36 116 -28 173c8 0 19 0 28 -1c-10 -82 10 -100 32 -145c-8 -11 -20 -19 -32 -27v0z" />
    <glyph glyph-name="quotedblright" unicode="&#x201d;" horiz-adv-x="182" 
d="M40 749c30 -50 35 -116 28 -174c-9 0 -19 0 -29 2c10 81 -10 99 -32 145c9 10 21 19 33 27v0zM123 749c30 -50 35 -116 28 -174c-9 0 -19 0 -29 2c10 81 -10 99 -32 145c9 10 21 19 33 27v0z" />
    <glyph glyph-name="arrowright" unicode="&#x2192;" horiz-adv-x="691" 
d="M517 468l140 -170l-165 -176c-1 20 2 39 6 58l94 100h-558c1 12 3 24 5 35h558l-87 106c0 17 3 32 7 47z" />
    <glyph glyph-name="arrowleft" unicode="&#x2190;" horiz-adv-x="692" 
d="M658 315c0 -12 -2 -23 -5 -35h-559l87 -106c0 -16 -3 -32 -7 -47l-140 171l165 176c1 -21 -1 -40 -6 -59l-95 -100h560z" />
    <glyph glyph-name="arrowdown" unicode="&#x2193;" horiz-adv-x="415" 
d="M381 121l-171 -140l-176 165c21 0 40 -2 59 -7l101 -96v563c12 -1 24 -3 36 -5v-559l104 85c16 0 32 -2 47 -6z" />
    <glyph glyph-name="arrowup" unicode="&#x2191;" horiz-adv-x="415" 
d="M220 -2c-12 0 -23 2 -35 5v558l-103 -85c-17 0 -32 2 -48 6l171 140l176 -164c-21 -1 -39 1 -59 6l-102 96v-562z" />
    <glyph glyph-name="quotesingbase" horiz-adv-x="64" 
d="M10 100c15 4 28 6 43 7l-18 -155c-9 -1 -19 -3 -29 -4z" />
    <glyph glyph-name="quotedblbase" unicode="&#x201e;" horiz-adv-x="142" 
d="M13 108c15 4 28 6 43 7l-18 -155c-9 -1 -19 -3 -29 -4zM75 108c15 4 28 6 43 7l-18 -155c-9 -1 -19 -3 -29 -4z" />
    <glyph glyph-name="Amacron" unicode="&#x100;" horiz-adv-x="1014" 
d="M1154 -162c15 -4 28 -5 44 -6c-19 -30 -42 -68 -113 -68c-143 0 -185 219 -198 330c-21 -34 -56 -50 -86 -50c-35 0 -65 20 -65 57c0 33 24 62 55 62c5 0 10 0 15 -1c-2 -8 -4 -15 -6 -21c-2 1 -5 1 -6 1c-20 0 -32 -21 -32 -37c0 -21 18 -33 39 -33c37 0 76 32 76 108
c0 110 -35 208 -128 282c-93 -240 -215 -551 -490 -551c-157 0 -249 103 -249 239c0 48 11 99 35 150c81 175 251 275 437 275c86 0 172 -21 244 -65c68 158 135 266 186 332c16 0 31 -2 46 -5c-32 -156 -40 -319 -40 -479c0 -100 4 -200 17 -295c13 -97 43 -270 146 -270
c32 0 63 13 73 45zM606 230c28 58 68 157 110 255c-66 41 -146 63 -226 63c-172 0 -331 -90 -408 -265c-20 -46 -31 -93 -31 -136c0 -114 71 -205 203 -208c161 0 276 138 352 291zM759 488c49 -38 88 -82 114 -139c0 160 8 289 33 437c-36 -43 -87 -144 -147 -298zM811 922
h195c0 -10 -1 -18 -3 -28h-195c0 10 2 19 3 28z" />
    <glyph glyph-name="Abreve" unicode="&#x102;" horiz-adv-x="1014" 
d="M1154 -162c15 -4 28 -5 44 -6c-19 -30 -42 -68 -113 -68c-143 0 -185 219 -198 330c-21 -34 -56 -50 -86 -50c-35 0 -65 20 -65 57c0 33 24 62 55 62c5 0 10 0 15 -1c-2 -8 -4 -15 -6 -21c-2 1 -5 1 -6 1c-20 0 -32 -21 -32 -37c0 -21 18 -33 39 -33c37 0 76 32 76 108
c0 110 -35 208 -128 282c-93 -240 -215 -551 -490 -551c-157 0 -249 103 -249 239c0 48 11 99 35 150c81 175 251 275 437 275c86 0 172 -21 244 -65c68 158 135 266 186 332c16 0 31 -2 46 -5c-32 -156 -40 -319 -40 -479c0 -100 4 -200 17 -295c13 -97 43 -270 146 -270
c32 0 63 13 73 45zM606 230c28 58 68 157 110 255c-66 41 -146 63 -226 63c-172 0 -331 -90 -408 -265c-20 -46 -31 -93 -31 -136c0 -114 71 -205 203 -208c161 0 276 138 352 291zM759 488c49 -38 88 -82 114 -139c0 160 8 289 33 437c-36 -43 -87 -144 -147 -298zM996 985
c0 -58 -44 -95 -88 -96c-51 -2 -91 42 -84 92c8 1 16 3 24 4c2 -40 28 -60 59 -60c31 1 58 25 65 56c8 2 16 3 24 4z" />
    <glyph glyph-name="uni1E02" unicode="&#x1e02;" horiz-adv-x="828" 
d="M747 343c39 -65 50 -142 35 -214c-16 -75 -59 -140 -124 -179c-53 -32 -116 -43 -177 -39c-67 4 -119 26 -170 38c-17 -21 -39 -36 -66 -38c-27 -1 -69 8 -64 34c3 22 41 31 62 33c16 1 33 0 49 -3c13 20 22 46 30 69c24 78 36 186 42 268c7 113 10 242 32 347
c9 43 22 88 45 127c17 0 33 -3 49 -7c-16 -25 -33 -57 -48 -129c-20 -100 -24 -225 -33 -341c-7 -87 -23 -195 -54 -276c-8 -23 -17 -45 -30 -64c46 -11 99 -28 157 -30c55 -1 110 11 156 42c53 36 88 93 100 157c12 63 4 131 -24 188c-36 73 -100 118 -173 132
c-35 -8 -73 -11 -107 -1c1 9 2 19 4 29c31 3 72 -2 103 -7c33 10 65 32 89 67c49 72 53 168 -20 228c-56 44 -137 55 -208 52c-96 -4 -182 -38 -249 -105c-71 -70 -105 -173 -103 -272c2 -126 54 -169 111 -169c49 0 83 33 73 67c-4 19 -24 34 -52 20c-3 6 -6 12 -8 19
c35 22 74 4 86 -31c18 -57 -33 -104 -100 -104c-70 0 -148 51 -150 195c-2 100 44 213 124 293c68 67 157 109 267 115c76 4 169 -7 231 -50c98 -66 103 -197 24 -280c-22 -22 -48 -41 -77 -53c73 -21 131 -66 168 -128zM243 -61c13 2 23 7 33 17c-38 4 -67 -6 -73 -13
c10 -5 35 -5 40 -4zM565 888l4 58c14 4 28 6 43 6l-5 -58c-13 -4 -28 -6 -42 -6z" />
    <glyph glyph-name="Cacute" unicode="&#x106;" horiz-adv-x="846" 
d="M691 305c9 4 17 6 27 6c55 0 112 -76 112 -166c0 -114 -105 -231 -256 -235c-155 0 -260 98 -276 303c-143 1 -288 83 -288 252c0 103 73 209 175 209c31 0 64 -9 97 -31c-9 -10 -17 -21 -24 -33c-26 18 -52 26 -77 26c-80 0 -140 -88 -140 -174
c0 -150 130 -220 256 -221c0 8 -1 16 -1 24c0 66 10 137 28 205c43 163 168 384 357 384c93 0 141 -74 141 -161c0 -133 -109 -287 -180 -350c-80 -72 -188 -118 -296 -128c12 -165 90 -271 228 -276c136 0 228 105 228 205c0 77 -48 139 -87 139c-19 0 -33 -16 -33 -33
c0 -10 4 -20 15 -30c-5 -6 -9 -11 -14 -17c-17 14 -25 31 -25 49c0 22 12 42 33 53zM370 458c-17 -66 -26 -136 -26 -200v-15c101 11 201 57 274 127c64 62 164 210 164 334c0 62 -27 122 -100 122c-102 0 -250 -134 -312 -368zM704 992c11 -4 22 -10 31 -17
c-37 -46 -84 -84 -149 -90c-3 7 -4 14 -6 21c58 8 94 43 124 86z" />
    <glyph glyph-name="Ccaron" unicode="&#x10c;" horiz-adv-x="846" 
d="M691 305c9 4 17 6 27 6c55 0 112 -76 112 -166c0 -114 -105 -231 -256 -235c-155 0 -260 98 -276 303c-143 1 -288 83 -288 252c0 103 73 209 175 209c31 0 64 -9 97 -31c-9 -10 -17 -21 -24 -33c-26 18 -52 26 -77 26c-80 0 -140 -88 -140 -174
c0 -150 130 -220 256 -221c0 8 -1 16 -1 24c0 66 10 137 28 205c43 163 168 384 357 384c93 0 141 -74 141 -161c0 -133 -109 -287 -180 -350c-80 -72 -188 -118 -296 -128c12 -165 90 -271 228 -276c136 0 228 105 228 205c0 77 -48 139 -87 139c-19 0 -33 -16 -33 -33
c0 -10 4 -20 15 -30c-5 -6 -9 -11 -14 -17c-17 14 -25 31 -25 49c0 22 12 42 33 53zM370 458c-17 -66 -26 -136 -26 -200v-15c101 11 201 57 274 127c64 62 164 210 164 334c0 62 -27 122 -100 122c-102 0 -250 -134 -312 -368zM724 991c6 -6 10 -12 14 -19
c-36 -40 -53 -60 -69 -78c-10 -2 -19 -4 -30 -5c-23 30 -33 45 -63 83c5 7 10 12 15 18c21 -15 45 -41 62 -60c20 20 49 46 71 61z" />
    <glyph glyph-name="Ccircumflex" unicode="&#x108;" horiz-adv-x="846" 
d="M691 305c9 4 17 6 27 6c55 0 112 -76 112 -166c0 -114 -105 -231 -256 -235c-155 0 -260 98 -276 303c-143 1 -288 83 -288 252c0 103 73 209 175 209c31 0 64 -9 97 -31c-9 -10 -17 -21 -24 -33c-26 18 -52 26 -77 26c-80 0 -140 -88 -140 -174
c0 -150 130 -220 256 -221c0 8 -1 16 -1 24c0 66 10 137 28 205c43 163 168 384 357 384c93 0 141 -74 141 -161c0 -133 -109 -287 -180 -350c-80 -72 -188 -118 -296 -128c12 -165 90 -271 228 -276c136 0 228 105 228 205c0 77 -48 139 -87 139c-19 0 -33 -16 -33 -33
c0 -10 4 -20 15 -30c-5 -6 -9 -11 -14 -17c-17 14 -25 31 -25 49c0 22 12 42 33 53zM370 458c-17 -66 -26 -136 -26 -200v-15c101 11 201 57 274 127c64 62 164 210 164 334c0 62 -27 122 -100 122c-102 0 -250 -134 -312 -368zM591 886c-5 6 -10 12 -14 19
c37 40 54 60 70 78c9 2 19 4 29 5c23 -30 34 -45 63 -83c-4 -7 -9 -12 -15 -18c-21 15 -45 41 -61 60c-20 -20 -49 -46 -72 -61z" />
    <glyph glyph-name="Cdotaccent" unicode="&#x10a;" horiz-adv-x="846" 
d="M691 305c9 4 17 6 27 6c55 0 112 -76 112 -166c0 -114 -105 -231 -256 -235c-155 0 -260 98 -276 303c-143 1 -288 83 -288 252c0 103 73 209 175 209c31 0 64 -9 97 -31c-9 -10 -17 -21 -24 -33c-26 18 -52 26 -77 26c-80 0 -140 -88 -140 -174
c0 -150 130 -220 256 -221c0 8 -1 16 -1 24c0 66 10 137 28 205c43 163 168 384 357 384c93 0 141 -74 141 -161c0 -133 -109 -287 -180 -350c-80 -72 -188 -118 -296 -128c12 -165 90 -271 228 -276c136 0 228 105 228 205c0 77 -48 139 -87 139c-19 0 -33 -16 -33 -33
c0 -10 4 -20 15 -30c-5 -6 -9 -11 -14 -17c-17 14 -25 31 -25 49c0 22 12 42 33 53zM370 458c-17 -66 -26 -136 -26 -200v-15c101 11 201 57 274 127c64 62 164 210 164 334c0 62 -27 122 -100 122c-102 0 -250 -134 -312 -368zM637 890l4 58c14 4 28 6 43 6l-5 -58
c-13 -4 -28 -6 -42 -6z" />
    <glyph glyph-name="cacute" unicode="&#x107;" 
d="M228 83c7 -6 14 -12 22 -17c-24 -41 -58 -80 -115 -80c-89 0 -125 70 -125 138c0 94 74 251 160 251c47 0 60 -54 60 -93c0 -30 -7 -75 -20 -104c-12 4 -30 8 -43 10c12 16 31 46 31 104c0 25 -4 55 -30 55c-66 0 -116 -153 -116 -228c0 -54 24 -105 86 -105
c46 0 72 34 90 69zM202 518c11 -4 22 -10 31 -17c-37 -46 -84 -84 -149 -90c-3 7 -4 14 -6 21c58 8 94 43 124 86z" />
    <glyph glyph-name="ccaron" unicode="&#x10d;" 
d="M228 83c7 -6 14 -12 22 -17c-24 -41 -58 -80 -115 -80c-89 0 -125 70 -125 138c0 94 74 251 160 251c47 0 60 -54 60 -93c0 -30 -7 -75 -20 -104c-12 4 -30 8 -43 10c12 16 31 46 31 104c0 25 -4 55 -30 55c-66 0 -116 -153 -116 -228c0 -54 24 -105 86 -105
c46 0 72 34 90 69zM225 513c6 -6 10 -12 14 -19c-36 -40 -53 -60 -69 -78c-10 -2 -19 -4 -30 -5c-23 30 -33 45 -63 83c5 7 10 12 15 18c21 -15 45 -41 62 -60c20 20 49 46 71 61z" />
    <glyph glyph-name="ccircumflex" unicode="&#x109;" 
d="M228 83c7 -6 14 -12 22 -17c-24 -41 -58 -80 -115 -80c-89 0 -125 70 -125 138c0 94 74 251 160 251c47 0 60 -54 60 -93c0 -30 -7 -75 -20 -104c-12 4 -30 8 -43 10c12 16 31 46 31 104c0 25 -4 55 -30 55c-66 0 -116 -153 -116 -228c0 -54 24 -105 86 -105
c46 0 72 34 90 69zM88 411c-5 6 -10 12 -14 19c37 40 54 60 70 78c9 2 19 4 29 5c23 -30 34 -45 63 -83c-4 -7 -9 -12 -15 -18c-21 15 -45 41 -61 60c-20 -20 -49 -46 -72 -61z" />
    <glyph glyph-name="cdotaccent" unicode="&#x10b;" 
d="M228 83c7 -6 14 -12 22 -17c-24 -41 -58 -80 -115 -80c-89 0 -125 70 -125 138c0 94 74 251 160 251c47 0 60 -54 60 -93c0 -30 -7 -75 -20 -104c-12 4 -30 8 -43 10c12 16 31 46 31 104c0 25 -4 55 -30 55c-66 0 -116 -153 -116 -228c0 -54 24 -105 86 -105
c46 0 72 34 90 69zM135 420l4 58c14 4 28 6 43 6l-5 -58c-13 -4 -28 -6 -42 -6z" />
    <glyph glyph-name="amacron" unicode="&#x101;" horiz-adv-x="278" 
d="M193 26c-23 -25 -53 -40 -87 -40c-55 0 -93 36 -96 91c0 85 76 165 209 165c-8 76 -49 105 -87 105c-24 0 -47 -10 -54 -25c11 -5 18 -16 18 -27c0 -16 -13 -29 -29 -29c-20 0 -29 15 -29 34c0 39 32 75 91 75c71 0 133 -68 133 -173c0 -12 -7 -80 -13 -198
c-15 -4 -28 -6 -43 -6c0 16 1 36 2 48c-5 -7 -10 -13 -15 -20zM110 14c101 0 110 154 110 200h-12c-105 0 -156 -76 -156 -136c0 -41 23 -63 58 -64zM69 436h195c0 -10 -1 -18 -3 -28h-195c0 10 2 19 3 28z" />
    <glyph glyph-name="abreve" unicode="&#x103;" horiz-adv-x="276" 
d="M193 26c-23 -25 -53 -40 -87 -40c-55 0 -93 36 -96 91c0 85 76 165 209 165c-8 76 -49 105 -87 105c-24 0 -47 -10 -54 -25c11 -5 18 -16 18 -27c0 -16 -13 -29 -29 -29c-20 0 -29 15 -29 34c0 39 32 75 91 75c71 0 133 -68 133 -173c0 -12 -7 -80 -13 -198
c-15 -4 -28 -6 -43 -6c0 16 1 36 2 48c-5 -7 -10 -13 -15 -20zM110 14c101 0 110 154 110 200h-12c-105 0 -156 -76 -156 -136c0 -41 23 -63 58 -64zM253 502c0 -58 -44 -95 -88 -96c-51 -2 -91 42 -84 92c8 1 16 3 24 4c2 -40 28 -60 59 -60c31 1 58 25 65 56
c8 2 16 3 24 4z" />
    <glyph glyph-name="uni1E03" unicode="&#x1e03;" horiz-adv-x="319" 
d="M295 271c7 -21 10 -44 10 -67c0 -102 -58 -218 -151 -218c-36 0 -72 14 -96 44l-1 -26c-15 -4 -28 -6 -43 -6l46 665c14 4 28 7 42 7l-26 -384c15 47 51 89 104 89c54 0 97 -46 115 -104zM237 83c15 35 25 82 25 127c0 63 -25 137 -84 137c-52 0 -87 -57 -87 -117
c0 -64 37 -120 96 -146c-4 -6 -7 -12 -12 -18c-23 13 -91 52 -105 137l-8 -120c11 -46 46 -69 87 -69s70 31 88 69zM157 720l4 58c14 4 28 6 43 6l-5 -58c-13 -4 -28 -6 -42 -6z" />
    <glyph glyph-name="uni1E0A" unicode="&#x1e0a;" horiz-adv-x="822" 
d="M398 854h21c248 0 388 -256 388 -498c0 -218 -113 -424 -362 -424c-41 0 -86 6 -134 18c-17 -20 -39 -38 -66 -38c-23 0 -65 4 -65 30c0 31 57 37 78 37c11 0 21 -1 33 -3c17 24 27 56 35 84c72 256 13 554 115 726c17 0 32 -2 48 -7c-12 -21 -28 -46 -43 -106
c-23 -95 -27 -215 -36 -338c-8 -121 -29 -275 -85 -366c38 -10 74 -14 107 -14c224 0 326 197 326 404c0 227 -124 467 -346 467c-213 0 -361 -165 -361 -372c0 -131 63 -174 115 -174c42 0 72 30 72 60c0 22 -17 36 -34 36c-6 0 -13 -2 -19 -6c-3 6 -7 12 -9 19
c11 6 22 9 33 9c30 0 56 -25 56 -60c0 -48 -47 -86 -105 -86c-70 0 -147 50 -150 194c0 213 167 396 388 408zM243 -60c12 2 23 8 32 17c-6 1 -12 1 -18 1c-7 0 -43 0 -54 -14c7 -4 20 -4 30 -4h10zM567 889l4 58c14 4 28 6 43 6l-5 -58c-13 -4 -28 -6 -42 -6z" />
    <glyph glyph-name="uni1E0B" unicode="&#x1e0b;" horiz-adv-x="338" 
d="M238 46c-23 -35 -56 -60 -99 -60c-44 0 -129 28 -129 140c0 92 68 249 158 249c38 0 70 -27 89 -59l24 347c14 4 28 7 42 7l-45 -666c-15 -4 -28 -6 -43 -6zM146 14c51 5 83 59 98 109l9 127c-12 61 -47 95 -82 97c-69 0 -120 -145 -120 -231c0 -70 40 -102 87 -102h8z
M226 720l4 58c14 4 28 6 43 6l-5 -58c-13 -4 -28 -6 -42 -6z" />
    <glyph glyph-name="uni1E1E" unicode="&#x1e1e;" horiz-adv-x="882" 
d="M966 849c16 -8 25 -22 25 -37c0 -65 -134 -86 -205 -96c-15 -26 -24 -94 -27 -123c-8 -67 -12 -135 -19 -245v-4c6 0 14 1 20 2c-1 4 -1 8 -1 12c0 45 29 113 75 113c20 0 40 -19 40 -42c0 -38 -40 -73 -76 -91c8 -22 21 -35 40 -44c-10 -11 -19 -22 -26 -34
c-39 28 -49 66 -49 66c-8 -2 -17 -3 -25 -3c-23 -268 -107 -412 -292 -412c-100 0 -156 66 -156 135c0 61 46 109 88 109c32 0 58 -31 58 -61c0 -18 -7 -34 -23 -44l-12 18c8 6 11 14 11 23c0 18 -14 36 -32 36c-28 0 -62 -36 -62 -81c0 -55 44 -108 127 -108
c189 0 235 195 249 393c-17 7 -32 16 -44 31c6 7 12 15 17 24c7 -13 17 -23 28 -30c3 87 7 255 44 356c-9 -1 -17 -1 -25 -1c-33 0 -71 4 -136 16c-88 16 -187 41 -268 41c-165 0 -258 -116 -258 -242c0 -131 85 -212 195 -212c128 0 215 106 224 226c14 -3 27 -6 42 -6
c-11 -118 -118 -248 -266 -248c-138 0 -237 99 -237 241c0 141 106 277 290 277c127 0 313 -64 415 -64c13 0 25 1 39 2c40 59 107 114 177 114c13 0 25 -2 35 -7zM901 770c14 6 60 26 60 40c0 8 -11 14 -27 14c-36 0 -90 -31 -127 -76c31 5 64 12 94 22zM805 415
c-8 -15 -12 -33 -12 -48c0 -3 1 -5 1 -8c24 14 55 44 55 68c0 7 -4 18 -14 18c-9 0 -22 -14 -30 -30zM750 852l4 58c14 4 28 6 43 6l-5 -58c-13 -4 -28 -6 -42 -6z" />
    <glyph glyph-name="uni1E1F" unicode="&#x1e1f;" horiz-adv-x="211" 
d="M22 375c-3 -9 -4 -19 -4 -28h20c-1 -19 -3 -39 -4 -60c-4 -105 -9 -206 -13 -289c15 0 27 3 42 6c6 85 8 195 14 293c1 17 2 34 3 50h51c1 5 2 9 3 14l1 14h-52l2 15c3 44 18 158 44 192c7 11 15 15 22 3c18 -25 15 -81 -1 -104c11 -7 20 -14 29 -22c19 59 12 112 -1 140
c-19 35 -54 35 -79 8c-41 -44 -49 -151 -57 -213c0 -6 -1 -12 -2 -19h-18zM105 680l4 58c14 4 28 6 43 6l-5 -58c-13 -4 -28 -6 -42 -6z" />
    <glyph glyph-name="uni1E40" unicode="&#x1e40;" horiz-adv-x="1183" 
d="M1206 738c2 -16 4 -32 4 -48c0 -72 -29 -162 -108 -249c-58 -63 -133 -118 -209 -155c-1 -22 -2 -48 -2 -76c0 -98 6 -224 23 -296c21 -91 69 -123 112 -123c33 0 63 21 70 47c14 -4 28 -6 42 -6c-23 -42 -65 -69 -110 -69c-58 0 -118 42 -149 143
c-26 87 -33 211 -33 311v47c-41 -17 -81 -27 -128 -27c-56 0 -109 12 -156 42c-25 -160 -72 -369 -282 -369c-114 0 -270 82 -270 272c0 117 89 236 206 236c91 0 168 -76 168 -166c0 -36 -11 -73 -30 -110c-10 10 -21 19 -33 26c21 31 29 62 29 91c0 75 -61 130 -131 130
c-91 0 -161 -96 -161 -203c0 -181 136 -248 228 -248c188 0 226 209 252 360c-89 74 -125 199 -125 314c0 78 21 186 82 186c96 0 91 -186 91 -256c0 -77 -7 -156 -18 -230c42 -35 95 -49 152 -49c48 0 86 11 127 29c2 82 11 166 26 246c25 136 81 320 204 320
c59 0 113 -40 129 -120zM543 336c10 68 17 149 17 222c0 8 4 204 -56 204c-25 0 -43 -71 -43 -159c0 -84 19 -196 82 -267zM1083 458c73 80 100 161 100 228c0 68 -27 137 -93 137c-105 0 -151 -174 -172 -293c-12 -70 -20 -144 -24 -216c68 36 137 85 189 144zM731 761
l4 58c14 4 28 6 43 6l-5 -58c-13 -4 -28 -6 -42 -6z" />
    <glyph glyph-name="uni1E41" unicode="&#x1e41;" horiz-adv-x="463" 
d="M382 334c-6 8 -14 11 -22 11c-25 0 -88 -38 -116 -131c-8 -76 -13 -117 -19 -168c-6 -36 -2 -48 -49 -48c6 66 14 136 22 201c2 18 8 58 8 91c0 32 -5 55 -23 55c-55 0 -92 -121 -104 -178l-11 -163c-15 -3 -28 -6 -44 -6l25 359c15 4 28 5 43 5l-6 -84
c21 45 54 100 102 100c53 0 60 -64 60 -88c29 43 75 88 120 88c49 0 68 -50 68 -98c0 -93 -36 -176 -43 -276c-13 -3 -27 -6 -41 -6c0 127 40 200 40 288c0 19 -1 38 -10 48zM250 420l4 58c14 4 28 6 43 6l-5 -58c-13 -4 -28 -6 -42 -6z" />
    <glyph glyph-name="uni1E56" unicode="&#x1e56;" horiz-adv-x="774" 
d="M718 742c30 -44 44 -95 44 -148c0 -80 -34 -160 -97 -219c-68 -63 -135 -78 -216 -90c-15 -168 -66 -374 -281 -374c-102 0 -158 67 -158 135c0 48 33 109 88 109c32 0 57 -30 57 -61c0 -20 -9 -35 -22 -44c-5 6 -9 12 -12 18c6 5 11 13 11 22c0 20 -14 37 -33 37
c-38 0 -61 -49 -61 -81c0 -54 47 -108 128 -108c30 0 60 8 85 18c247 106 85 580 231 830c17 0 32 -2 48 -7c-20 -34 -40 -77 -54 -172c-14 -92 -18 -203 -26 -299c133 3 271 123 271 276c0 131 -99 242 -266 242c-185 0 -365 -139 -365 -364c0 -136 63 -181 118 -181
c42 0 71 28 71 59c0 18 -13 34 -33 34c-6 0 -12 -1 -20 -4c-3 6 -7 12 -10 18c11 7 22 10 34 10c30 0 56 -26 56 -61c0 -47 -46 -85 -104 -85c-69 0 -151 52 -151 198c0 221 181 405 425 405c98 0 187 -29 242 -113zM564 896l4 58c14 4 28 6 43 6l-5 -58
c-13 -4 -28 -6 -42 -6z" />
    <glyph glyph-name="uni1E57" unicode="&#x1e57;" horiz-adv-x="315" 
d="M271 321c23 -35 34 -77 34 -119c0 -96 -54 -216 -152 -216c-32 0 -70 14 -93 43l-24 -359c-14 -4 -28 -6 -43 -7l52 755c14 4 28 5 42 5l-9 -137c22 39 61 89 106 89c36 0 67 -24 87 -54zM256 144c6 26 8 49 8 69c0 77 -34 134 -82 134c-49 0 -96 -97 -110 -146l-8 -119
c14 -59 61 -68 86 -68c63 0 93 71 106 130zM155 420l4 58c14 4 28 6 43 6l-5 -58c-13 -4 -28 -6 -42 -6z" />
    <glyph glyph-name="uni1E60" unicode="&#x1e60;" horiz-adv-x="660" 
d="M642 331c2 -17 3 -33 3 -49c0 -216 -154 -371 -339 -371c-180 0 -296 137 -296 299c0 164 132 332 303 332c140 0 226 -120 226 -249c0 -51 -14 -88 -36 -123c-10 9 -21 17 -33 24c22 31 35 70 35 112c0 115 -82 208 -191 208c-129 0 -260 -129 -260 -299
c0 -161 112 -276 251 -276c165 0 292 163 292 339c0 73 -19 144 -52 204c-51 92 -182 217 -182 295c0 45 34 77 75 77c54 0 92 -50 92 -106c0 -28 -8 -56 -19 -82c-7 0 -15 2 -22 4c11 19 19 46 19 72c0 41 -26 84 -65 84c-21 0 -37 -15 -37 -40c0 -27 23 -63 52 -103
c99 -133 170 -216 184 -352zM443 896l4 58c14 4 28 6 43 6l-5 -58c-13 -4 -28 -6 -42 -6z" />
    <glyph glyph-name="uni1E61" unicode="&#x1e61;" horiz-adv-x="268" 
d="M220 168c18 -26 33 -57 33 -88c0 -84 -105 -94 -134 -94c-49 0 -109 20 -109 73c0 30 23 60 57 60c21 0 41 -13 54 -29c-8 -6 -16 -12 -22 -17c-9 10 -21 21 -34 21c-17 0 -30 -19 -30 -35c0 -35 46 -46 82 -46s93 13 93 65c0 96 -154 137 -154 224c0 46 41 72 81 72
c47 0 63 -33 74 -52c-8 -6 -16 -12 -23 -18c-9 26 -20 44 -47 44s-44 -17 -44 -38c0 -48 76 -76 123 -142zM123 420l4 58c14 4 28 6 43 6l-5 -58c-13 -4 -28 -6 -42 -6z" />
    <glyph glyph-name="uni1E6A" unicode="&#x1e6a;" horiz-adv-x="842" 
d="M966 849c16 -8 25 -22 25 -37c0 -65 -134 -86 -205 -96c-15 -26 -24 -94 -27 -123c-8 -67 -12 -135 -19 -245c-9 -120 -29 -198 -47 -247c-43 -115 -121 -190 -247 -190c-100 0 -156 66 -156 135c0 61 46 109 88 109c32 0 58 -31 58 -61c0 -18 -7 -34 -23 -44l-12 18
c8 6 11 14 11 23c0 18 -14 36 -32 36c-28 0 -62 -36 -62 -81c0 -55 44 -108 127 -108c197 0 238 213 249 412c5 85 7 258 45 362c-9 -1 -17 -1 -25 -1c-33 0 -71 4 -136 16c-88 16 -187 41 -268 41c-165 0 -258 -116 -258 -242c0 -131 85 -212 195 -212
c128 0 215 106 224 226c14 -3 27 -6 42 -6c-11 -118 -118 -248 -266 -248c-138 0 -237 99 -237 241c0 141 106 277 290 277c127 0 313 -64 415 -64c13 0 25 1 39 2c40 59 107 114 177 114c13 0 25 -2 35 -7zM901 770c14 6 60 26 60 40c0 8 -11 14 -27 14
c-36 0 -90 -31 -127 -76c31 5 64 12 94 22zM730 835l4 58c14 4 28 6 43 6l-5 -58c-13 -4 -28 -6 -42 -6z" />
    <glyph glyph-name="uni1E6B" unicode="&#x1e6b;" horiz-adv-x="237" 
d="M97 347c-18 -277 -14 -157 -14 -222c0 -43 4 -109 30 -109c17 0 81 44 81 133c0 13 -2 23 -12 23c-17 0 -47 -36 -52 -48c-7 3 -14 6 -19 12c14 32 47 64 75 64c26 0 37 -26 37 -50c0 -52 -46 -167 -116 -167c-57 0 -68 84 -68 151c0 28 1 42 13 213h-50c1 10 3 19 4 28
h48c5 75 11 159 17 230c14 3 28 5 43 5c-4 -72 -10 -158 -15 -235h95c0 -9 -2 -19 -4 -28h-93zM78 668l4 58c14 4 28 6 43 6l-5 -58c-13 -4 -28 -6 -42 -6z" />
    <glyph glyph-name="Dcaron" unicode="&#x10e;" horiz-adv-x="822" 
d="M398 854h21c248 0 388 -256 388 -498c0 -218 -113 -424 -362 -424c-41 0 -86 6 -134 18c-17 -20 -39 -38 -66 -38c-23 0 -65 4 -65 30c0 31 57 37 78 37c11 0 21 -1 33 -3c17 24 27 56 35 84c72 256 13 554 115 726c17 0 32 -2 48 -7c-12 -21 -28 -46 -43 -106
c-23 -95 -27 -215 -36 -338c-8 -121 -29 -275 -85 -366c38 -10 74 -14 107 -14c224 0 326 197 326 404c0 227 -124 467 -346 467c-213 0 -361 -165 -361 -372c0 -131 63 -174 115 -174c42 0 72 30 72 60c0 22 -17 36 -34 36c-6 0 -13 -2 -19 -6c-3 6 -7 12 -9 19
c11 6 22 9 33 9c30 0 56 -25 56 -60c0 -48 -47 -86 -105 -86c-70 0 -147 50 -150 194c0 213 167 396 388 408zM243 -60c12 2 23 8 32 17c-6 1 -12 1 -18 1c-7 0 -43 0 -54 -14c7 -4 20 -4 30 -4h10zM613 999c6 -6 10 -12 14 -19c-36 -40 -53 -60 -69 -78
c-10 -2 -19 -4 -30 -5c-23 30 -33 45 -63 83c5 7 10 12 15 18c21 -15 45 -41 62 -60c20 20 49 46 71 61z" />
    <glyph glyph-name="dcaron" unicode="&#x10f;" horiz-adv-x="338" 
d="M238 46c-23 -35 -56 -60 -99 -60c-44 0 -129 28 -129 140c0 92 68 249 158 249c38 0 70 -27 89 -59l24 347c14 4 28 7 42 7l-45 -666c-15 -4 -28 -6 -43 -6zM146 14c51 5 83 59 98 109l9 127c-12 61 -47 95 -82 97c-69 0 -120 -145 -120 -231c0 -70 40 -102 87 -102h8z
M350 749c30 -50 35 -116 28 -174c-9 0 -19 0 -29 2c10 81 -10 99 -32 145c9 10 21 19 33 27v0z" />
    <glyph glyph-name="Dcroat" unicode="&#x110;" horiz-adv-x="822" 
d="M398 854h21c248 0 388 -256 388 -498c0 -218 -113 -424 -362 -424c-41 0 -86 6 -134 18c-17 -20 -39 -38 -66 -38c-23 0 -65 4 -65 30c0 31 57 37 78 37c11 0 21 -1 33 -3c17 24 27 56 35 84c72 256 13 554 115 726c17 0 32 -2 48 -7c-12 -21 -28 -46 -43 -106
c-23 -95 -27 -215 -36 -338c-8 -121 -29 -275 -85 -366c38 -10 74 -14 107 -14c224 0 326 197 326 404c0 227 -124 467 -346 467c-213 0 -361 -165 -361 -372c0 -131 63 -174 115 -174c42 0 72 30 72 60c0 22 -17 36 -34 36c-6 0 -13 -2 -19 -6c-3 6 -7 12 -9 19
c11 6 22 9 33 9c30 0 56 -25 56 -60c0 -48 -47 -86 -105 -86c-70 0 -147 50 -150 194c0 213 167 396 388 408zM243 -60c12 2 23 8 32 17c-6 1 -12 1 -18 1c-7 0 -43 0 -54 -14c7 -4 20 -4 30 -4h10zM294 374h195c0 -10 -1 -18 -3 -28h-195c0 10 2 19 3 28z" />
    <glyph glyph-name="dcroat" unicode="&#x111;" horiz-adv-x="338" 
d="M238 46c-23 -35 -56 -60 -99 -60c-44 0 -129 28 -129 140c0 92 68 249 158 249c38 0 70 -27 89 -59l24 347c14 4 28 7 42 7l-45 -666c-15 -4 -28 -6 -43 -6zM146 14c51 5 83 59 98 109l9 127c-12 61 -47 95 -82 97c-69 0 -120 -145 -120 -231c0 -70 40 -102 87 -102h8z
M196 525h195c0 -10 -1 -18 -3 -28h-195c0 10 2 19 3 28z" />
    <glyph glyph-name="Ecaron" unicode="&#x11a;" horiz-adv-x="617" 
d="M599 754c2 -8 3 -16 3 -24c0 -117 -169 -189 -292 -210c30 -26 74 -38 113 -38c14 0 25 2 37 4c2 -9 3 -19 4 -28c-158 -37 -334 -166 -334 -346c0 -99 64 -174 179 -174c112 0 233 85 233 230c0 79 -43 144 -124 144c-50 0 -112 -35 -112 -110c0 -29 11 -58 34 -76
c-10 -10 -18 -21 -26 -34c-29 31 -41 66 -41 101c0 100 82 148 150 148c104 0 160 -83 160 -175c0 -182 -165 -256 -276 -256c-150 0 -221 105 -221 208c0 154 124 294 288 348c-40 6 -78 21 -107 49c-15 -1 -29 -2 -45 -2c-116 0 -251 57 -251 185c0 65 47 115 91 115
c33 0 56 -32 56 -62c0 -17 -7 -33 -23 -43c-4 6 -8 11 -12 18c8 5 11 14 11 23c0 17 -12 37 -32 37c-27 0 -62 -38 -62 -89c0 -114 125 -156 224 -156c7 0 14 1 22 1c-19 27 -28 60 -28 92c0 116 100 220 230 220c74 0 139 -32 151 -100zM491 618c37 28 68 72 68 116
c0 59 -49 92 -109 92c-118 0 -188 -110 -188 -200c0 -29 8 -57 25 -81c73 8 151 33 204 73zM511 999c6 -6 10 -12 14 -19c-36 -40 -53 -60 -69 -78c-10 -2 -19 -4 -30 -5c-23 30 -33 45 -63 83c5 7 10 12 15 18c21 -15 45 -41 62 -60c20 20 49 46 71 61z" />
    <glyph glyph-name="Emacron" unicode="&#x112;" horiz-adv-x="617" 
d="M599 754c2 -8 3 -16 3 -24c0 -117 -169 -189 -292 -210c30 -26 74 -38 113 -38c14 0 25 2 37 4c2 -9 3 -19 4 -28c-158 -37 -334 -166 -334 -346c0 -99 64 -174 179 -174c112 0 233 85 233 230c0 79 -43 144 -124 144c-50 0 -112 -35 -112 -110c0 -29 11 -58 34 -76
c-10 -10 -18 -21 -26 -34c-29 31 -41 66 -41 101c0 100 82 148 150 148c104 0 160 -83 160 -175c0 -182 -165 -256 -276 -256c-150 0 -221 105 -221 208c0 154 124 294 288 348c-40 6 -78 21 -107 49c-15 -1 -29 -2 -45 -2c-116 0 -251 57 -251 185c0 65 47 115 91 115
c33 0 56 -32 56 -62c0 -17 -7 -33 -23 -43c-4 6 -8 11 -12 18c8 5 11 14 11 23c0 17 -12 37 -32 37c-27 0 -62 -38 -62 -89c0 -114 125 -156 224 -156c7 0 14 1 22 1c-19 27 -28 60 -28 92c0 116 100 220 230 220c74 0 139 -32 151 -100zM491 618c37 28 68 72 68 116
c0 59 -49 92 -109 92c-118 0 -188 -110 -188 -200c0 -29 8 -57 25 -81c73 8 151 33 204 73zM351 922h195c0 -10 -1 -18 -3 -28h-195c0 10 2 19 3 28z" />
    <glyph glyph-name="Eogonek" unicode="&#x118;" horiz-adv-x="617" 
d="M599 754c2 -8 3 -16 3 -24c0 -117 -169 -189 -292 -210c30 -26 74 -38 113 -38c14 0 25 2 37 4c2 -9 3 -19 4 -28c-158 -37 -334 -166 -334 -346c0 -99 64 -174 179 -174c112 0 233 85 233 230c0 79 -43 144 -124 144c-50 0 -112 -35 -112 -110c0 -29 11 -58 34 -76
c-10 -10 -18 -21 -26 -34c-29 31 -41 66 -41 101c0 100 82 148 150 148c104 0 160 -83 160 -175c0 -182 -165 -256 -276 -256c-150 0 -221 105 -221 208c0 154 124 294 288 348c-40 6 -78 21 -107 49c-15 -1 -29 -2 -45 -2c-116 0 -251 57 -251 185c0 65 47 115 91 115
c33 0 56 -32 56 -62c0 -17 -7 -33 -23 -43c-4 6 -8 11 -12 18c8 5 11 14 11 23c0 17 -12 37 -32 37c-27 0 -62 -38 -62 -89c0 -114 125 -156 224 -156c7 0 14 1 22 1c-19 27 -28 60 -28 92c0 116 100 220 230 220c74 0 139 -32 151 -100zM491 618c37 28 68 72 68 116
c0 59 -49 92 -109 92c-118 0 -188 -110 -188 -200c0 -29 8 -57 25 -81c73 8 151 33 204 73zM483 -240c1 -8 3 -18 4 -27c-51 -11 -155 -37 -143 59c7 54 54 111 96 168c12 3 25 5 39 5c-103 -125 -154 -247 4 -205z" />
    <glyph glyph-name="Edotaccent" unicode="&#x116;" horiz-adv-x="617" 
d="M599 754c2 -8 3 -16 3 -24c0 -117 -169 -189 -292 -210c30 -26 74 -38 113 -38c14 0 25 2 37 4c2 -9 3 -19 4 -28c-158 -37 -334 -166 -334 -346c0 -99 64 -174 179 -174c112 0 233 85 233 230c0 79 -43 144 -124 144c-50 0 -112 -35 -112 -110c0 -29 11 -58 34 -76
c-10 -10 -18 -21 -26 -34c-29 31 -41 66 -41 101c0 100 82 148 150 148c104 0 160 -83 160 -175c0 -182 -165 -256 -276 -256c-150 0 -221 105 -221 208c0 154 124 294 288 348c-40 6 -78 21 -107 49c-15 -1 -29 -2 -45 -2c-116 0 -251 57 -251 185c0 65 47 115 91 115
c33 0 56 -32 56 -62c0 -17 -7 -33 -23 -43c-4 6 -8 11 -12 18c8 5 11 14 11 23c0 17 -12 37 -32 37c-27 0 -62 -38 -62 -89c0 -114 125 -156 224 -156c7 0 14 1 22 1c-19 27 -28 60 -28 92c0 116 100 220 230 220c74 0 139 -32 151 -100zM491 618c37 28 68 72 68 116
c0 59 -49 92 -109 92c-118 0 -188 -110 -188 -200c0 -29 8 -57 25 -81c73 8 151 33 204 73zM427 905l4 58c14 4 28 6 43 6l-5 -58c-13 -4 -28 -6 -42 -6z" />
    <glyph glyph-name="ebreve" unicode="&#x115;" 
d="M228 83c7 -6 14 -12 22 -17c-24 -44 -60 -80 -115 -80s-125 40 -125 139c0 53 55 250 160 250c38 0 72 -29 72 -67c0 -80 -110 -122 -184 -135c-4 -17 -6 -36 -6 -55c0 -80 48 -104 88 -104c43 0 70 32 88 69zM128 326c-31 -31 -53 -83 -64 -125c74 15 137 64 137 112
c0 23 -15 34 -31 34c-12 0 -26 -6 -42 -21zM243 502c0 -58 -44 -95 -88 -96c-51 -2 -91 42 -84 92c8 1 16 3 24 4c2 -40 28 -60 59 -60c31 1 58 25 65 56c8 2 16 3 24 4z" />
    <glyph glyph-name="ecaron" unicode="&#x11b;" 
d="M228 83c7 -6 14 -12 22 -17c-24 -44 -60 -80 -115 -80s-125 40 -125 139c0 53 55 250 160 250c38 0 72 -29 72 -67c0 -80 -110 -122 -184 -135c-4 -17 -6 -36 -6 -55c0 -80 48 -104 88 -104c43 0 70 32 88 69zM128 326c-31 -31 -53 -83 -64 -125c74 15 137 64 137 112
c0 23 -15 34 -31 34c-12 0 -26 -6 -42 -21zM222 513c6 -6 10 -12 14 -19c-36 -40 -53 -60 -69 -78c-10 -2 -19 -4 -30 -5c-23 30 -33 45 -63 83c5 7 10 12 15 18c21 -15 45 -41 62 -60c20 20 49 46 71 61z" />
    <glyph glyph-name="edotaccent" unicode="&#x117;" 
d="M228 83c7 -6 14 -12 22 -17c-24 -44 -60 -80 -115 -80s-125 40 -125 139c0 53 55 250 160 250c38 0 72 -29 72 -67c0 -80 -110 -122 -184 -135c-4 -17 -6 -36 -6 -55c0 -80 48 -104 88 -104c43 0 70 32 88 69zM128 326c-31 -31 -53 -83 -64 -125c74 15 137 64 137 112
c0 23 -15 34 -31 34c-12 0 -26 -6 -42 -21zM137 420l4 58c14 4 28 6 43 6l-5 -58c-13 -4 -28 -6 -42 -6z" />
    <glyph glyph-name="emacron" unicode="&#x113;" horiz-adv-x="277" 
d="M228 83c7 -6 14 -12 22 -17c-24 -44 -60 -80 -115 -80s-125 40 -125 139c0 53 55 250 160 250c38 0 72 -29 72 -67c0 -80 -110 -122 -184 -135c-4 -17 -6 -36 -6 -55c0 -80 48 -104 88 -104c43 0 70 32 88 69zM128 326c-31 -31 -53 -83 -64 -125c74 15 137 64 137 112
c0 23 -15 34 -31 34c-12 0 -26 -6 -42 -21zM60 436h195c0 -10 -1 -18 -3 -28h-195c0 10 2 19 3 28z" />
    <glyph glyph-name="Gbreve" unicode="&#x11e;" horiz-adv-x="806" 
d="M746 363c16 -1 30 -2 44 -5c-2 -40 -12 -83 -24 -120c-7 -131 -8 -253 -37 -361c-33 -119 -111 -226 -256 -226c-83 0 -159 52 -159 134c0 60 45 110 88 110c31 0 57 -30 57 -61c0 -18 -8 -35 -24 -44c-4 5 -8 12 -11 17c7 6 11 15 11 23c0 17 -14 36 -33 36
c-28 0 -60 -37 -60 -82c0 -66 64 -106 129 -106c231 0 236 271 249 458c-50 -86 -124 -151 -225 -151c-174 0 -241 166 -243 321c-133 7 -282 72 -282 229c0 94 72 207 190 207c34 0 70 -10 106 -32c-10 -11 -19 -22 -26 -34c-30 18 -59 28 -89 28c-91 0 -151 -94 -151 -171
c0 -139 137 -192 253 -199c7 202 141 521 376 521c99 0 150 -70 150 -153c1 -103 -81 -223 -170 -291c-91 -69 -201 -104 -310 -106c0 -135 51 -293 206 -293c106 0 179 102 221 199c4 50 10 103 20 152zM333 506c-19 -56 -30 -116 -33 -172c103 4 206 41 286 107
c79 65 154 176 154 277c0 56 -33 108 -102 108c-140 0 -260 -176 -305 -320zM699 985c0 -58 -44 -95 -88 -96c-51 -2 -91 42 -84 92c8 1 16 3 24 4c2 -40 28 -60 59 -60c31 1 58 25 65 56c8 2 16 3 24 4z" />
    <glyph glyph-name="gbreve" unicode="&#x11f;" horiz-adv-x="327" 
d="M329 440c11 -10 22 -18 34 -26c-35 -35 -80 -82 -87 -131c2 -9 4 -17 7 -25c-14 -4 -27 -6 -42 -6c-2 42 -23 95 -67 95c-77 0 -122 -162 -122 -233c0 -33 8 -67 34 -85c36 33 90 84 134 84c20 0 33 -16 33 -36c0 -39 -44 -93 -109 -93c-20 0 -39 4 -56 11
c-8 -11 -25 -31 -25 -45c0 -19 245 15 245 -137c0 -112 -100 -170 -200 -170c-78 0 -154 24 -154 94c0 47 34 109 103 143c1 -10 2 -19 4 -29c-42 -17 -72 -63 -72 -101c0 -56 71 -63 127 -63c81 0 160 30 160 111c0 72 -69 88 -124 92c-73 7 -124 12 -124 50
c0 25 24 54 37 68c-38 27 -54 72 -54 118c0 132 96 249 163 249c29 0 65 -20 81 -48c15 39 46 80 74 113zM174 67c-22 -13 -44 -32 -63 -50c8 -3 16 -3 23 -3c47 0 81 55 82 69h-3c-10 0 -30 -11 -39 -16zM264 502c0 -58 -44 -95 -88 -96c-51 -2 -91 42 -84 92
c8 1 16 3 24 4c2 -40 28 -60 59 -60c31 1 58 25 65 56c8 2 16 3 24 4z" />
    <glyph glyph-name="Gcircumflex" unicode="&#x11c;" horiz-adv-x="806" 
d="M746 363c16 -1 30 -2 44 -5c-2 -40 -12 -83 -24 -120c-7 -131 -8 -253 -37 -361c-33 -119 -111 -226 -256 -226c-83 0 -159 52 -159 134c0 60 45 110 88 110c31 0 57 -30 57 -61c0 -18 -8 -35 -24 -44c-4 5 -8 12 -11 17c7 6 11 15 11 23c0 17 -14 36 -33 36
c-28 0 -60 -37 -60 -82c0 -66 64 -106 129 -106c231 0 236 271 249 458c-50 -86 -124 -151 -225 -151c-174 0 -241 166 -243 321c-133 7 -282 72 -282 229c0 94 72 207 190 207c34 0 70 -10 106 -32c-10 -11 -19 -22 -26 -34c-30 18 -59 28 -89 28c-91 0 -151 -94 -151 -171
c0 -139 137 -192 253 -199c7 202 141 521 376 521c99 0 150 -70 150 -153c1 -103 -81 -223 -170 -291c-91 -69 -201 -104 -310 -106c0 -135 51 -293 206 -293c106 0 179 102 221 199c4 50 10 103 20 152zM333 506c-19 -56 -30 -116 -33 -172c103 4 206 41 286 107
c79 65 154 176 154 277c0 56 -33 108 -102 108c-140 0 -260 -176 -305 -320zM538 898c-5 6 -10 12 -14 19c37 40 54 60 70 78c9 2 19 4 29 5c23 -30 34 -45 63 -83c-4 -7 -9 -12 -15 -18c-21 15 -45 41 -61 60c-20 -20 -49 -46 -72 -61z" />
    <glyph glyph-name="gcircumflex" unicode="&#x11d;" horiz-adv-x="327" 
d="M329 440c11 -10 22 -18 34 -26c-35 -35 -80 -82 -87 -131c2 -9 4 -17 7 -25c-14 -4 -27 -6 -42 -6c-2 42 -23 95 -67 95c-77 0 -122 -162 -122 -233c0 -33 8 -67 34 -85c36 33 90 84 134 84c20 0 33 -16 33 -36c0 -39 -44 -93 -109 -93c-20 0 -39 4 -56 11
c-8 -11 -25 -31 -25 -45c0 -19 245 15 245 -137c0 -112 -100 -170 -200 -170c-78 0 -154 24 -154 94c0 47 34 109 103 143c1 -10 2 -19 4 -29c-42 -17 -72 -63 -72 -101c0 -56 71 -63 127 -63c81 0 160 30 160 111c0 72 -69 88 -124 92c-73 7 -124 12 -124 50
c0 25 24 54 37 68c-38 27 -54 72 -54 118c0 132 96 249 163 249c29 0 65 -20 81 -48c15 39 46 80 74 113zM174 67c-22 -13 -44 -32 -63 -50c8 -3 16 -3 23 -3c47 0 81 55 82 69h-3c-10 0 -30 -11 -39 -16zM104 411c-5 6 -10 12 -14 19c37 40 54 60 70 78c9 2 19 4 29 5
c23 -30 34 -45 63 -83c-4 -7 -9 -12 -15 -18c-21 15 -45 41 -61 60c-20 -20 -49 -46 -72 -61z" />
    <glyph glyph-name="Gcommaaccent" unicode="&#x122;" horiz-adv-x="806" 
d="M746 363c16 -1 30 -2 44 -5c-2 -40 -12 -83 -24 -120c-7 -131 -8 -253 -37 -361c-33 -119 -111 -226 -256 -226c-83 0 -159 52 -159 134c0 60 45 110 88 110c31 0 57 -30 57 -61c0 -18 -8 -35 -24 -44c-4 5 -8 12 -11 17c7 6 11 15 11 23c0 17 -14 36 -33 36
c-28 0 -60 -37 -60 -82c0 -66 64 -106 129 -106c231 0 236 271 249 458c-50 -86 -124 -151 -225 -151c-174 0 -241 166 -243 321c-133 7 -282 72 -282 229c0 94 72 207 190 207c34 0 70 -10 106 -32c-10 -11 -19 -22 -26 -34c-30 18 -59 28 -89 28c-91 0 -151 -94 -151 -171
c0 -139 137 -192 253 -199c7 202 141 521 376 521c99 0 150 -70 150 -153c1 -103 -81 -223 -170 -291c-91 -69 -201 -104 -310 -106c0 -135 51 -293 206 -293c106 0 179 102 221 199c4 50 10 103 20 152zM333 506c-19 -56 -30 -116 -33 -172c103 4 206 41 286 107
c79 65 154 176 154 277c0 56 -33 108 -102 108c-140 0 -260 -176 -305 -320zM575 -56c0 -58 -29 -117 -65 -164c-8 5 -16 11 -23 17c49 65 41 90 45 141c14 4 28 6 43 6v0v0z" />
    <glyph glyph-name="gcommaaccent" unicode="&#x123;" horiz-adv-x="327" 
d="M144 419c-1 59 29 118 65 164c8 -5 16 -10 23 -17c-50 -64 -42 -89 -46 -140c-13 -4 -28 -6 -42 -7v0v0zM329 440c11 -10 22 -18 34 -26c-35 -35 -80 -82 -87 -131c2 -9 4 -17 7 -25c-14 -4 -27 -6 -42 -6c-2 42 -23 95 -67 95c-77 0 -122 -162 -122 -233
c0 -33 8 -67 34 -85c36 33 90 84 134 84c20 0 33 -16 33 -36c0 -39 -44 -93 -109 -93c-20 0 -39 4 -56 11c-8 -11 -25 -31 -25 -45c0 -19 245 15 245 -137c0 -112 -100 -170 -200 -170c-78 0 -154 24 -154 94c0 47 34 109 103 143c1 -10 2 -19 4 -29
c-42 -17 -72 -63 -72 -101c0 -56 71 -63 127 -63c81 0 160 30 160 111c0 72 -69 88 -124 92c-73 7 -124 12 -124 50c0 25 24 54 37 68c-38 27 -54 72 -54 118c0 132 96 249 163 249c29 0 65 -20 81 -48c15 39 46 80 74 113zM174 67c-22 -13 -44 -32 -63 -50
c8 -3 16 -3 23 -3c47 0 81 55 82 69h-3c-10 0 -30 -11 -39 -16zM52 902c-31 49 -36 116 -28 173c8 0 19 0 28 -1c-10 -82 10 -100 32 -145c-8 -11 -20 -19 -32 -27v0z" />
    <glyph glyph-name="Gdotaccent" unicode="&#x120;" horiz-adv-x="806" 
d="M746 363c16 -1 30 -2 44 -5c-2 -40 -12 -83 -24 -120c-7 -131 -8 -253 -37 -361c-33 -119 -111 -226 -256 -226c-83 0 -159 52 -159 134c0 60 45 110 88 110c31 0 57 -30 57 -61c0 -18 -8 -35 -24 -44c-4 5 -8 12 -11 17c7 6 11 15 11 23c0 17 -14 36 -33 36
c-28 0 -60 -37 -60 -82c0 -66 64 -106 129 -106c231 0 236 271 249 458c-50 -86 -124 -151 -225 -151c-174 0 -241 166 -243 321c-133 7 -282 72 -282 229c0 94 72 207 190 207c34 0 70 -10 106 -32c-10 -11 -19 -22 -26 -34c-30 18 -59 28 -89 28c-91 0 -151 -94 -151 -171
c0 -139 137 -192 253 -199c7 202 141 521 376 521c99 0 150 -70 150 -153c1 -103 -81 -223 -170 -291c-91 -69 -201 -104 -310 -106c0 -135 51 -293 206 -293c106 0 179 102 221 199c4 50 10 103 20 152zM333 506c-19 -56 -30 -116 -33 -172c103 4 206 41 286 107
c79 65 154 176 154 277c0 56 -33 108 -102 108c-140 0 -260 -176 -305 -320zM595 904l4 58c14 4 28 6 43 6l-5 -58c-13 -4 -28 -6 -42 -6z" />
    <glyph glyph-name="gdotaccent" unicode="&#x121;" horiz-adv-x="327" 
d="M329 440c11 -10 22 -18 34 -26c-35 -35 -80 -82 -87 -131c2 -9 4 -17 7 -25c-14 -4 -27 -6 -42 -6c-2 42 -23 95 -67 95c-77 0 -122 -162 -122 -233c0 -33 8 -67 34 -85c36 33 90 84 134 84c20 0 33 -16 33 -36c0 -39 -44 -93 -109 -93c-20 0 -39 4 -56 11
c-8 -11 -25 -31 -25 -45c0 -19 245 15 245 -137c0 -112 -100 -170 -200 -170c-78 0 -154 24 -154 94c0 47 34 109 103 143c1 -10 2 -19 4 -29c-42 -17 -72 -63 -72 -101c0 -56 71 -63 127 -63c81 0 160 30 160 111c0 72 -69 88 -124 92c-73 7 -124 12 -124 50
c0 25 24 54 37 68c-38 27 -54 72 -54 118c0 132 96 249 163 249c29 0 65 -20 81 -48c15 39 46 80 74 113zM174 67c-22 -13 -44 -32 -63 -50c8 -3 16 -3 23 -3c47 0 81 55 82 69h-3c-10 0 -30 -11 -39 -16zM156 420l4 58c14 4 28 6 43 6l-5 -58c-13 -4 -28 -6 -42 -6z" />
    <glyph glyph-name="Hbar" unicode="&#x126;" horiz-adv-x="841" 
d="M236 375h313c0 -9 -2 -18 -3 -28h-313c0 10 1 19 3 28zM802 839c49 -33 68 -95 68 -157c0 -181 -162 -328 -318 -404c-2 -43 -4 -87 -4 -130c0 -106 -7 -356 124 -356c32 0 62 14 71 46c15 -4 28 -5 43 -6c-23 -39 -57 -68 -111 -68c-178 0 -173 318 -173 415
c0 27 1 53 2 79c-68 -22 -154 -33 -229 -33c-9 0 -19 0 -29 1l-20 -297c-14 -3 -28 -5 -42 -6l20 306c-94 11 -194 69 -194 181c0 65 46 112 88 112c35 0 57 -32 57 -60c0 -18 -7 -34 -23 -44l-12 18c8 6 11 14 11 23c0 17 -13 37 -31 37c-26 0 -62 -35 -62 -87
c0 -94 88 -143 168 -152l36 519c13 4 28 6 42 6l-36 -528c9 -1 18 -1 28 -1c74 0 164 11 230 35c4 76 11 151 24 226c24 130 82 344 211 344c20 0 41 -6 61 -19zM842 654c1 8 1 16 1 25c0 62 -25 143 -92 143c-105 0 -153 -204 -173 -316c-11 -64 -19 -132 -24 -196
c134 66 272 191 288 344z" />
    <glyph glyph-name="hbar" unicode="&#x127;" horiz-adv-x="315" 
d="M229 346h-6c-70 0 -133 -116 -155 -208l-9 -134c-15 -3 -28 -6 -43 -6l46 665c14 4 28 6 42 7l-29 -434c27 63 79 139 151 139c46 0 75 -33 75 -96c0 -84 -41 -173 -45 -275c-15 -3 -28 -6 -43 -6c0 129 45 196 45 292c0 32 -6 53 -29 56zM-24 526h195
c0 -10 -1 -18 -3 -28h-195c0 10 2 19 3 28z" />
    <glyph glyph-name="Idotaccent" unicode="&#x130;" horiz-adv-x="742" 
d="M801 -162c14 -4 29 -5 44 -6c-28 -46 -81 -68 -132 -68c-132 0 -187 133 -209 245c-62 -67 -139 -99 -217 -99c-152 0 -277 117 -277 272c0 131 96 234 204 234c96 0 165 -82 165 -162c0 -36 -11 -74 -29 -112c-11 10 -21 19 -34 26c20 30 30 62 30 90
c0 72 -60 130 -132 130c-86 0 -163 -84 -163 -206c0 -142 113 -243 241 -243c73 0 148 33 206 102c-13 86 -19 198 -19 285c0 181 19 532 160 532c78 0 88 -101 88 -175c0 -260 -123 -538 -186 -629c13 -106 45 -262 171 -262c42 0 80 19 89 46zM527 326
c0 -71 2 -161 9 -232c70 115 165 355 165 580c0 61 -8 149 -53 149c-102 0 -121 -338 -121 -497zM624 905l4 58c14 4 28 6 43 6l-5 -58c-13 -4 -28 -6 -42 -6z" />
    <glyph glyph-name="Imacron" horiz-adv-x="742" 
d="M801 -162c14 -4 29 -5 44 -6c-28 -46 -81 -68 -132 -68c-132 0 -187 133 -209 245c-62 -67 -139 -99 -217 -99c-152 0 -277 117 -277 272c0 131 96 234 204 234c96 0 165 -82 165 -162c0 -36 -11 -74 -29 -112c-11 10 -21 19 -34 26c20 30 30 62 30 90
c0 72 -60 130 -132 130c-86 0 -163 -84 -163 -206c0 -142 113 -243 241 -243c73 0 148 33 206 102c-13 86 -19 198 -19 285c0 181 19 532 160 532c78 0 88 -101 88 -175c0 -260 -123 -538 -186 -629c13 -106 45 -262 171 -262c42 0 80 19 89 46zM527 326
c0 -71 2 -161 9 -232c70 115 165 355 165 580c0 61 -8 149 -53 149c-102 0 -121 -338 -121 -497zM550 921h195c0 -10 -1 -18 -3 -28h-195c0 10 2 19 3 28z" />
    <glyph glyph-name="Iogonek" unicode="&#x12e;" horiz-adv-x="747" 
d="M801 -162c14 -4 29 -5 44 -6c-28 -46 -81 -68 -132 -68c-132 0 -187 133 -209 245c-62 -67 -139 -99 -217 -99c-152 0 -277 117 -277 272c0 131 96 234 204 234c96 0 165 -82 165 -162c0 -36 -11 -74 -29 -112c-11 10 -21 19 -34 26c20 30 30 62 30 90
c0 72 -60 130 -132 130c-86 0 -163 -84 -163 -206c0 -142 113 -243 241 -243c73 0 148 33 206 102c-13 86 -19 198 -19 285c0 181 19 532 160 532c78 0 88 -101 88 -175c0 -260 -123 -538 -186 -629c13 -106 45 -262 171 -262c42 0 80 19 89 46zM527 326
c0 -71 2 -161 9 -232c70 115 165 355 165 580c0 61 -8 149 -53 149c-102 0 -121 -338 -121 -497zM847 -373c1 -8 3 -18 4 -27c-51 -11 -155 -37 -143 59c7 54 54 111 96 168c12 3 25 5 39 5c-103 -125 -154 -247 4 -205z" />
    <glyph glyph-name="Itilde" unicode="&#x128;" horiz-adv-x="742" 
d="M801 -162c14 -4 29 -5 44 -6c-28 -46 -81 -68 -132 -68c-132 0 -187 133 -209 245c-62 -67 -139 -99 -217 -99c-152 0 -277 117 -277 272c0 131 96 234 204 234c96 0 165 -82 165 -162c0 -36 -11 -74 -29 -112c-11 10 -21 19 -34 26c20 30 30 62 30 90
c0 72 -60 130 -132 130c-86 0 -163 -84 -163 -206c0 -142 113 -243 241 -243c73 0 148 33 206 102c-13 86 -19 198 -19 285c0 181 19 532 160 532c78 0 88 -101 88 -175c0 -260 -123 -538 -186 -629c13 -106 45 -262 171 -262c42 0 80 19 89 46zM527 326
c0 -71 2 -161 9 -232c70 115 165 355 165 580c0 61 -8 149 -53 149c-102 0 -121 -338 -121 -497zM738 962c6 -6 12 -11 17 -17c-20 -25 -51 -51 -82 -55c-60 -6 -81 67 -92 91c-5 -8 -12 -21 -17 -31c-8 2 -15 5 -22 8c6 22 16 59 39 61c18 1 27 -17 35 -33
c15 -31 28 -64 54 -62c22 0 51 24 68 38z" />
    <glyph glyph-name="imacron" unicode="&#x12b;" horiz-adv-x="227" 
d="M17 436h195c0 -10 -1 -18 -3 -28h-195c0 10 2 19 3 28zM87 357c14 4 28 5 42 6l-24 -359c-15 -3 -28 -6 -43 -6z" />
    <glyph glyph-name="iogonek" unicode="&#x12f;" horiz-adv-x="226" 
d="M155 -198c1 -8 3 -18 4 -27c-51 -11 -155 -37 -143 59c7 54 54 111 96 168c12 3 25 5 39 5c-103 -125 -154 -247 4 -205zM133 357c15 4 28 5 43 6l-25 -359c-15 -3 -28 -6 -43 -6zM136 419l4 59c15 4 28 5 44 6l-5 -58c-14 -4 -28 -6 -43 -7z" />
    <glyph glyph-name="itilde" unicode="&#x129;" horiz-adv-x="242" 
d="M210 480c6 -6 12 -11 17 -17c-20 -25 -51 -51 -82 -55c-60 -6 -81 67 -92 91c-5 -8 -12 -21 -17 -31c-8 2 -15 5 -22 8c6 22 16 59 39 61c18 1 27 -17 35 -33c15 -31 28 -64 54 -62c22 0 51 24 68 38zM93 357c14 4 28 5 42 6l-24 -359c-15 -3 -28 -6 -43 -6z" />
    <glyph glyph-name="Kcommaaccent" unicode="&#x136;" horiz-adv-x="870" 
d="M927 -206c30 3 52 15 59 44c14 -4 28 -5 43 -6c-23 -44 -53 -67 -115 -67c-49 0 -98 24 -148 125c-60 121 -88 304 -162 377c-14 -67 -32 -144 -65 -204c-56 -103 -149 -153 -263 -153c-161 0 -266 125 -266 270c0 129 96 235 203 235c83 0 166 -64 166 -165
c0 -43 -12 -75 -29 -108c-10 10 -21 18 -33 25c17 27 29 58 29 91c0 76 -64 129 -132 129c-84 0 -163 -87 -163 -204c0 -130 90 -244 231 -244c181 0 240 150 277 345c-8 0 -17 1 -25 1c0 13 2 26 5 39l27 -6c18 105 35 200 35 319c0 150 -43 189 -90 189
c-95 0 -177 -96 -177 -196c0 -62 34 -120 108 -120c36 0 60 18 60 42c0 20 -14 34 -36 34h-4c-1 8 -2 14 -2 21c4 1 8 1 12 1c31 0 56 -24 56 -58c0 -38 -35 -68 -87 -68c-92 0 -135 72 -135 146c0 112 93 224 204 227c107 0 134 -123 134 -243c0 -104 -13 -204 -31 -300
c126 43 159 261 232 420c30 67 61 122 135 122c34 0 69 -23 82 -68c-15 0 -28 -2 -42 -6v5c0 29 -24 41 -43 41c-55 0 -77 -54 -96 -108c-42 -116 -108 -380 -260 -427c141 -113 149 -498 294 -498c4 0 8 0 12 1zM639 -69c0 -58 -29 -117 -65 -164c-8 5 -16 11 -23 17
c49 65 41 90 45 141c14 4 28 6 43 6v0v0z" />
    <glyph glyph-name="kcommaaccent" unicode="&#x137;" horiz-adv-x="255" 
d="M259 82c7 -6 15 -12 23 -17c-27 -35 -59 -81 -104 -81c-72 0 -52 151 -96 196c-12 -4 -12 -27 -16 -40l-8 -136c-15 -3 -28 -6 -44 -6l47 665c13 4 28 6 42 7l-28 -411c27 67 83 162 148 162c23 0 43 -16 43 -45c0 -81 -98 -161 -154 -186c46 -45 46 -178 74 -178
c18 0 53 36 73 70zM88 209c66 33 139 127 139 175c0 3 -3 6 -11 6c-54 0 -110 -112 -131 -180c1 0 2 0 3 -1zM159 -40c0 -58 -29 -117 -65 -164c-8 5 -16 11 -23 17c49 65 41 90 45 141c14 4 28 6 43 6v0v0z" />
    <glyph glyph-name="Lacute" unicode="&#x139;" horiz-adv-x="824" 
d="M833 -71c14 -3 28 -6 42 -6c-20 -67 -77 -99 -138 -99c-103 0 -199 86 -280 143c-34 -34 -76 -56 -127 -56c-45 0 -93 19 -93 69c0 38 38 73 92 73c43 0 85 -23 120 -46c54 74 73 175 84 265c-71 -37 -153 -58 -233 -58c-186 0 -290 113 -290 252c0 112 78 209 175 209
c31 0 65 -10 99 -32c-10 -10 -18 -21 -26 -33c-26 18 -52 26 -76 26c-75 0 -140 -80 -140 -175c0 -116 89 -219 262 -219c77 0 159 21 232 62c6 67 7 160 22 270c13 106 47 280 156 280c65 0 100 -76 100 -147c0 -143 -101 -317 -235 -407c-13 -107 -38 -226 -103 -310
c68 -47 161 -129 257 -129c53 0 91 33 100 68zM604 569c-11 -102 -18 -205 -21 -235c122 89 205 245 205 371c0 55 -24 119 -72 121c-84 0 -102 -166 -112 -257zM344 -60c34 4 63 20 87 46c-30 20 -67 40 -103 40c-39 0 -64 -22 -64 -46c0 -30 33 -41 63 -41c6 0 11 0 17 1z
M756 992c11 -4 22 -10 31 -17c-37 -46 -84 -84 -149 -90c-3 7 -4 14 -6 21c58 8 94 43 124 86z" />
    <glyph glyph-name="lacute" unicode="&#x13a;" horiz-adv-x="118" 
d="M107 671l-45 -665c-15 -4 -28 -6 -44 -6l47 665c13 4 28 5 42 6zM138 819c11 -4 22 -10 31 -17c-37 -46 -84 -84 -149 -90c-3 7 -4 14 -6 21c58 8 94 43 124 86z" />
    <glyph glyph-name="Lcaron" unicode="&#x13d;" horiz-adv-x="846" 
d="M833 -71c14 -3 28 -6 42 -6c-20 -67 -77 -99 -138 -99c-103 0 -199 86 -280 143c-34 -34 -76 -56 -127 -56c-45 0 -93 19 -93 69c0 38 38 73 92 73c43 0 85 -23 120 -46c54 74 73 175 84 265c-71 -37 -153 -58 -233 -58c-186 0 -290 113 -290 252c0 112 78 209 175 209
c31 0 65 -10 99 -32c-10 -10 -18 -21 -26 -33c-26 18 -52 26 -76 26c-75 0 -140 -80 -140 -175c0 -116 89 -219 262 -219c77 0 159 21 232 62c6 67 7 160 22 270c13 106 47 280 156 280c65 0 100 -76 100 -147c0 -143 -101 -317 -235 -407c-13 -107 -38 -226 -103 -310
c68 -47 161 -129 257 -129c53 0 91 33 100 68zM604 569c-11 -102 -18 -205 -21 -235c122 89 205 245 205 371c0 55 -24 119 -72 121c-84 0 -102 -166 -112 -257zM344 -60c34 4 63 20 87 46c-30 20 -67 40 -103 40c-39 0 -64 -22 -64 -46c0 -30 33 -41 63 -41c6 0 11 0 17 1z
M830 892c30 -50 35 -116 28 -174c-9 0 -19 0 -29 2c10 81 -10 99 -32 145c9 10 21 19 33 27v0z" />
    <glyph glyph-name="lcaron" unicode="&#x13e;" horiz-adv-x="118" 
d="M103 671l-45 -665c-15 -4 -28 -6 -44 -6l47 665c13 4 28 5 42 6zM134 749c30 -50 35 -116 28 -174c-9 0 -19 0 -29 2c10 81 -10 99 -32 145c9 10 21 19 33 27v0z" />
    <glyph glyph-name="Lcommaaccent" unicode="&#x13b;" horiz-adv-x="824" 
d="M833 -71c14 -3 28 -6 42 -6c-20 -67 -77 -99 -138 -99c-103 0 -199 86 -280 143c-34 -34 -76 -56 -127 -56c-45 0 -93 19 -93 69c0 38 38 73 92 73c43 0 85 -23 120 -46c54 74 73 175 84 265c-71 -37 -153 -58 -233 -58c-186 0 -290 113 -290 252c0 112 78 209 175 209
c31 0 65 -10 99 -32c-10 -10 -18 -21 -26 -33c-26 18 -52 26 -76 26c-75 0 -140 -80 -140 -175c0 -116 89 -219 262 -219c77 0 159 21 232 62c6 67 7 160 22 270c13 106 47 280 156 280c65 0 100 -76 100 -147c0 -143 -101 -317 -235 -407c-13 -107 -38 -226 -103 -310
c68 -47 161 -129 257 -129c53 0 91 33 100 68zM604 569c-11 -102 -18 -205 -21 -235c122 89 205 245 205 371c0 55 -24 119 -72 121c-84 0 -102 -166 -112 -257zM344 -60c34 4 63 20 87 46c-30 20 -67 40 -103 40c-39 0 -64 -22 -64 -46c0 -30 33 -41 63 -41c6 0 11 0 17 1z
M550 -127c0 -58 -29 -117 -65 -164c-8 5 -16 11 -23 17c49 65 41 90 45 141c14 4 28 6 43 6v0v0z" />
    <glyph glyph-name="lcommaaccent" unicode="&#x13c;" horiz-adv-x="118" 
d="M103 671l-45 -665c-15 -4 -28 -6 -44 -6l47 665c13 4 28 5 42 6zM52 -40c0 -58 -29 -117 -65 -164c-8 5 -16 11 -23 17c49 65 41 90 45 141c14 4 28 6 43 6v0v0z" />
    <glyph glyph-name="Ncaron" unicode="&#x147;" horiz-adv-x="1009" 
d="M986 780c0 28 -19 45 -45 45c-111 0 -130 -253 -139 -367c-6 -74 -20 -276 -25 -351c8 -38 11 -75 11 -113c0 -23 -2 -47 -4 -71c-14 0 -28 3 -42 6c6 28 7 60 9 98c-20 158 -97 281 -181 428c-8 -101 -28 -301 -68 -393c-49 -111 -128 -152 -225 -152
c-155 0 -267 121 -267 272c0 130 102 232 204 232c96 0 168 -74 168 -167c0 -33 -9 -69 -29 -106c-11 9 -22 18 -34 25c19 30 29 60 29 89c0 67 -53 131 -133 131c-77 0 -163 -84 -163 -206c0 -134 93 -241 229 -241c84 0 152 33 196 134c41 94 61 323 68 427
c-45 80 -103 197 -103 278c0 40 11 76 48 77c71 0 88 -83 88 -200c0 -36 -1 -75 -3 -112c65 -120 142 -234 184 -365c9 157 11 220 15 282c11 136 36 395 172 395c40 0 73 -26 82 -69c-14 0 -28 -3 -42 -6zM550 592c0 33 1 60 1 82c0 124 -29 152 -56 152
c-13 0 -19 -12 -19 -30c0 -43 28 -117 74 -204zM770 909c6 -6 10 -12 14 -19c-36 -40 -53 -60 -69 -78c-10 -2 -19 -4 -30 -5c-23 30 -33 45 -63 83c5 7 10 12 15 18c21 -15 45 -41 62 -60c20 20 49 46 71 61z" />
    <glyph glyph-name="ncaron" unicode="&#x148;" horiz-adv-x="310" 
d="M282 341c10 -16 13 -39 13 -62c0 -84 -41 -173 -45 -275c-15 -3 -28 -6 -43 -6c0 129 45 196 45 292c0 36 -8 56 -35 56c-70 0 -133 -116 -155 -208l-9 -134c-15 -3 -28 -6 -43 -6l24 359c15 4 28 5 44 6l-9 -127c27 63 79 139 151 139c26 0 48 -10 62 -34zM250 513
c6 -6 10 -12 14 -19c-36 -40 -53 -60 -69 -78c-10 -2 -19 -4 -30 -5c-23 30 -33 45 -63 83c5 7 10 12 15 18c21 -15 45 -41 62 -60c20 20 49 46 71 61z" />
    <glyph glyph-name="Ncommaaccent" unicode="&#x145;" horiz-adv-x="959" 
d="M986 780c0 28 -19 45 -45 45c-111 0 -130 -253 -139 -367c-6 -74 -20 -276 -25 -351c8 -38 11 -75 11 -113c0 -23 -2 -47 -4 -71c-14 0 -28 3 -42 6c6 28 7 60 9 98c-20 158 -97 281 -181 428c-8 -101 -28 -301 -68 -393c-49 -111 -128 -152 -225 -152
c-155 0 -267 121 -267 272c0 130 102 232 204 232c96 0 168 -74 168 -167c0 -33 -9 -69 -29 -106c-11 9 -22 18 -34 25c19 30 29 60 29 89c0 67 -53 131 -133 131c-77 0 -163 -84 -163 -206c0 -134 93 -241 229 -241c84 0 152 33 196 134c41 94 61 323 68 427
c-45 80 -103 197 -103 278c0 40 11 76 48 77c71 0 88 -83 88 -200c0 -36 -1 -75 -3 -112c65 -120 142 -234 184 -365c9 157 11 220 15 282c11 136 36 395 172 395c40 0 73 -26 82 -69c-14 0 -28 -3 -42 -6zM550 592c0 33 1 60 1 82c0 124 -29 152 -56 152
c-13 0 -19 -12 -19 -30c0 -43 28 -117 74 -204zM624 -71c0 -58 -29 -117 -65 -164c-8 5 -16 11 -23 17c49 65 41 90 45 141c14 4 28 6 43 6v0v0z" />
    <glyph glyph-name="ncommaaccent" unicode="&#x146;" horiz-adv-x="310" 
d="M282 341c10 -16 13 -39 13 -62c0 -84 -41 -173 -45 -275c-15 -3 -28 -6 -43 -6c0 129 45 196 45 292c0 36 -8 56 -35 56c-70 0 -133 -116 -155 -208l-9 -134c-15 -3 -28 -6 -43 -6l24 359c15 4 28 5 44 6l-9 -127c27 63 79 139 151 139c26 0 48 -10 62 -34zM162 -40
c0 -58 -29 -117 -65 -164c-8 5 -16 11 -23 17c49 65 41 90 45 141c14 4 28 6 43 6v0v0z" />
    <glyph glyph-name="Omacron" unicode="&#x14c;" horiz-adv-x="891" 
d="M827 590c31 -73 49 -162 49 -254c0 -214 -108 -425 -313 -425c-160 0 -264 121 -276 314c-6 0 -13 -1 -21 -1c-167 0 -256 85 -256 186c0 68 45 115 88 115c32 0 57 -31 57 -62c0 -17 -7 -33 -23 -43c-4 6 -8 11 -11 18c7 5 10 14 10 22c0 18 -13 37 -32 37
c-28 0 -61 -36 -61 -88c0 -83 76 -156 220 -156c9 0 19 0 28 1v17c0 90 17 186 52 276c54 143 173 307 327 307c89 0 160 -84 160 -176c0 -30 -6 -60 -15 -91c5 2 11 3 17 3zM382 530c-34 -90 -50 -186 -50 -272c202 29 451 214 451 424c0 72 -46 144 -117 144
c-128 0 -239 -173 -284 -296zM829 258c5 36 8 74 8 111c0 73 -11 146 -30 213c-65 -188 -277 -330 -475 -353c10 -171 82 -290 231 -290c159 0 240 165 266 319zM566 921h195c0 -10 -1 -18 -3 -28h-195c0 10 2 19 3 28z" />
    <glyph glyph-name="omacron" unicode="&#x14d;" horiz-adv-x="301" 
d="M272 284c10 -26 14 -54 14 -82c0 -106 -60 -216 -152 -216c-83 0 -124 61 -124 148c0 16 1 32 4 48c13 -4 27 -6 41 -7c-5 -20 -9 -41 -9 -63c0 -61 33 -98 87 -98c75 0 112 99 112 195c0 106 -48 137 -82 137c-56 0 -82 -80 -82 -128c0 -54 30 -106 89 -134
c-4 -6 -8 -13 -12 -18c-75 36 -114 104 -114 176c0 79 54 133 114 133c56 0 95 -43 114 -91zM70 436h195c0 -10 -1 -18 -3 -28h-195c0 10 2 19 3 28z" />
    <glyph glyph-name="Racute" unicode="&#x154;" horiz-adv-x="773" 
d="M842 -162c14 -4 28 -6 43 -6c-27 -50 -73 -68 -114 -68c-98 0 -150 118 -182 204c-51 138 -71 266 -143 308c-18 -178 -76 -365 -280 -365c-102 0 -156 69 -156 137c0 48 32 110 87 110c34 0 57 -33 57 -63c0 -17 -6 -33 -23 -42c-4 5 -8 11 -12 17c8 6 11 14 11 24
c0 17 -13 36 -32 36c-36 0 -60 -48 -60 -84c0 -52 44 -108 126 -108c192 0 225 193 237 346c-18 0 -28 1 -30 1c0 13 3 26 6 39c10 -2 16 -3 26 -6c6 86 8 168 18 251c8 71 23 155 59 217c17 0 33 -2 49 -6c-71 -120 -67 -303 -80 -471c205 29 269 160 269 276
c0 135 -101 241 -266 241c-81 0 -166 -28 -234 -82c-103 -83 -128 -229 -128 -280c0 -54 12 -182 111 -182c44 0 75 30 75 61c0 17 -13 35 -33 35c-6 0 -13 -1 -20 -5c-3 5 -7 12 -10 18c11 7 22 10 33 10c31 0 56 -26 56 -60c0 -47 -42 -87 -100 -87
c-108 0 -152 100 -152 198c0 106 55 231 152 312c78 66 172 91 273 91c144 0 284 -82 284 -261c0 -136 -85 -268 -284 -303c85 -59 136 -248 156 -308c32 -97 62 -190 142 -190c29 0 61 11 69 45zM664 1004c11 -4 22 -10 31 -17c-37 -46 -84 -84 -149 -90c-3 7 -4 14 -6 21
c58 8 94 43 124 86z" />
    <glyph glyph-name="Rcaron" unicode="&#x158;" horiz-adv-x="773" 
d="M842 -162c14 -4 28 -6 43 -6c-27 -50 -73 -68 -114 -68c-98 0 -150 118 -182 204c-51 138 -71 266 -143 308c-18 -178 -76 -365 -280 -365c-102 0 -156 69 -156 137c0 48 32 110 87 110c34 0 57 -33 57 -63c0 -17 -6 -33 -23 -42c-4 5 -8 11 -12 17c8 6 11 14 11 24
c0 17 -13 36 -32 36c-36 0 -60 -48 -60 -84c0 -52 44 -108 126 -108c192 0 225 193 237 346c-18 0 -28 1 -30 1c0 13 3 26 6 39c10 -2 16 -3 26 -6c6 86 8 168 18 251c8 71 23 155 59 217c17 0 33 -2 49 -6c-71 -120 -67 -303 -80 -471c205 29 269 160 269 276
c0 135 -101 241 -266 241c-81 0 -166 -28 -234 -82c-103 -83 -128 -229 -128 -280c0 -54 12 -182 111 -182c44 0 75 30 75 61c0 17 -13 35 -33 35c-6 0 -13 -1 -20 -5c-3 5 -7 12 -10 18c11 7 22 10 33 10c31 0 56 -26 56 -60c0 -47 -42 -87 -100 -87
c-108 0 -152 100 -152 198c0 106 55 231 152 312c78 66 172 91 273 91c144 0 284 -82 284 -261c0 -136 -85 -268 -284 -303c85 -59 136 -248 156 -308c32 -97 62 -190 142 -190c29 0 61 11 69 45zM700 998c6 -6 10 -12 14 -19c-36 -40 -53 -60 -69 -78c-10 -2 -19 -4 -30 -5
c-23 30 -33 45 -63 83c5 7 10 12 15 18c21 -15 45 -41 62 -60c20 20 49 46 71 61z" />
    <glyph glyph-name="Rcommaaccent" unicode="&#x156;" horiz-adv-x="773" 
d="M842 -162c14 -4 28 -6 43 -6c-27 -50 -73 -68 -114 -68c-98 0 -150 118 -182 204c-51 138 -71 266 -143 308c-18 -178 -76 -365 -280 -365c-102 0 -156 69 -156 137c0 48 32 110 87 110c34 0 57 -33 57 -63c0 -17 -6 -33 -23 -42c-4 5 -8 11 -12 17c8 6 11 14 11 24
c0 17 -13 36 -32 36c-36 0 -60 -48 -60 -84c0 -52 44 -108 126 -108c192 0 225 193 237 346c-18 0 -28 1 -30 1c0 13 3 26 6 39c10 -2 16 -3 26 -6c6 86 8 168 18 251c8 71 23 155 59 217c17 0 33 -2 49 -6c-71 -120 -67 -303 -80 -471c205 29 269 160 269 276
c0 135 -101 241 -266 241c-81 0 -166 -28 -234 -82c-103 -83 -128 -229 -128 -280c0 -54 12 -182 111 -182c44 0 75 30 75 61c0 17 -13 35 -33 35c-6 0 -13 -1 -20 -5c-3 5 -7 12 -10 18c11 7 22 10 33 10c31 0 56 -26 56 -60c0 -47 -42 -87 -100 -87
c-108 0 -152 100 -152 198c0 106 55 231 152 312c78 66 172 91 273 91c144 0 284 -82 284 -261c0 -136 -85 -268 -284 -303c85 -59 136 -248 156 -308c32 -97 62 -190 142 -190c29 0 61 11 69 45zM611 894l4 58c14 4 28 6 43 6l-5 -58c-13 -4 -28 -6 -42 -6z" />
    <glyph glyph-name="racute" unicode="&#x155;" horiz-adv-x="202" 
d="M157 165c-41 40 -43 141 -53 186c-15 -42 -34 -156 -41 -200l-10 -146c-14 -4 -28 -7 -43 -7l29 420c15 4 28 5 43 6l-8 -103c6 24 12 63 31 63c37 0 21 -152 77 -186c-9 -10 -17 -21 -25 -33zM157 582c11 -4 22 -10 31 -17c-37 -46 -84 -84 -149 -90c-3 7 -4 14 -6 21
c58 8 94 43 124 86z" />
    <glyph glyph-name="rcaron" unicode="&#x159;" horiz-adv-x="198" 
d="M157 165c-41 40 -43 141 -53 186c-15 -42 -34 -156 -41 -200l-10 -146c-14 -4 -28 -7 -43 -7l29 420c15 4 28 5 43 6l-8 -103c6 24 12 63 31 63c37 0 21 -152 77 -186c-9 -10 -17 -21 -25 -33zM169 575c6 -6 10 -12 14 -19c-36 -40 -53 -60 -69 -78c-10 -2 -19 -4 -30 -5
c-23 30 -33 45 -63 83c5 7 10 12 15 18c21 -15 45 -41 62 -60c20 20 49 46 71 61z" />
    <glyph glyph-name="rcommaaccent" unicode="&#x157;" horiz-adv-x="199" 
d="M159 165c-41 40 -43 141 -53 186c-15 -42 -34 -156 -41 -200l-10 -146c-14 -4 -28 -7 -43 -7l29 420c15 4 28 5 43 6l-8 -103c6 24 12 63 31 63c37 0 21 -152 77 -186c-9 -10 -17 -21 -25 -33zM53 -40c0 -58 -29 -117 -65 -164c-8 5 -16 11 -23 17c49 65 41 90 45 141
c14 4 28 6 43 6v0v0z" />
    <glyph glyph-name="Scedilla" unicode="&#x15e;" horiz-adv-x="660" 
d="M642 331c2 -17 3 -33 3 -49c0 -216 -154 -371 -339 -371c-180 0 -296 137 -296 299c0 164 132 332 303 332c140 0 226 -120 226 -249c0 -51 -14 -88 -36 -123c-10 9 -21 17 -33 24c22 31 35 70 35 112c0 115 -82 208 -191 208c-129 0 -260 -129 -260 -299
c0 -161 112 -276 251 -276c165 0 292 163 292 339c0 73 -19 144 -52 204c-51 92 -182 217 -182 295c0 45 34 77 75 77c54 0 92 -50 92 -106c0 -28 -8 -56 -19 -82c-7 0 -15 2 -22 4c11 19 19 46 19 72c0 41 -26 84 -65 84c-21 0 -37 -15 -37 -40c0 -27 23 -63 52 -103
c99 -133 170 -216 184 -352zM330 -123c35 0 57 -24 61 -51c13 -82 -119 -137 -165 -28c12 0 24 2 35 5c22 -70 112 -42 97 17c-6 21 -25 25 -46 23c-7 8 -13 16 -19 26c11 15 21 36 23 58c9 -1 18 -2 28 -4c-3 -16 -7 -31 -14 -46z" />
    <glyph glyph-name="Scommaaccent" unicode="&#x218;" horiz-adv-x="714" 
d="M642 331c2 -17 3 -33 3 -49c0 -216 -154 -371 -339 -371c-180 0 -296 137 -296 299c0 164 132 332 303 332c140 0 226 -120 226 -249c0 -51 -14 -88 -36 -123c-10 9 -21 17 -33 24c22 31 35 70 35 112c0 115 -82 208 -191 208c-129 0 -260 -129 -260 -299
c0 -161 112 -276 251 -276c165 0 292 163 292 339c0 73 -19 144 -52 204c-51 92 -182 217 -182 295c0 45 34 77 75 77c54 0 92 -50 92 -106c0 -28 -8 -56 -19 -82c-7 0 -15 2 -22 4c11 19 19 46 19 72c0 41 -26 84 -65 84c-21 0 -37 -15 -37 -40c0 -27 23 -63 52 -103
c99 -133 170 -216 184 -352zM351 -129c0 -58 -29 -117 -65 -164c-8 5 -16 11 -23 17c49 65 41 90 45 141c14 4 28 6 43 6v0v0z" />
    <glyph glyph-name="scedilla" unicode="&#x15f;" horiz-adv-x="268" 
d="M220 168c18 -26 33 -57 33 -88c0 -84 -105 -94 -134 -94c-49 0 -109 20 -109 73c0 30 23 60 57 60c21 0 41 -13 54 -29c-8 -6 -16 -12 -22 -17c-9 10 -21 21 -34 21c-17 0 -30 -19 -30 -35c0 -35 46 -46 82 -46s93 13 93 65c0 96 -154 137 -154 224c0 46 41 72 81 72
c47 0 63 -33 74 -52c-8 -6 -16 -12 -23 -18c-9 26 -20 44 -47 44s-44 -17 -44 -38c0 -48 76 -76 123 -142zM142 -46c35 0 57 -24 61 -51c13 -82 -119 -137 -165 -28c12 0 24 2 35 5c22 -70 112 -42 97 17c-6 21 -25 25 -46 23c-7 8 -13 16 -19 26c11 15 21 36 23 58
c9 -1 18 -2 28 -4c-3 -16 -7 -31 -14 -46z" />
    <glyph glyph-name="scommaaccent" unicode="&#x219;" horiz-adv-x="202" 
d="M223 168c18 -26 33 -57 33 -88c0 -84 -105 -94 -134 -94c-49 0 -109 20 -109 73c0 30 23 60 57 60c21 0 41 -13 54 -29c-8 -6 -16 -12 -22 -17c-9 10 -21 21 -34 21c-17 0 -30 -19 -30 -35c0 -35 46 -46 82 -46s93 13 93 65c0 96 -154 137 -154 224c0 46 41 72 81 72
c47 0 63 -33 74 -52c-8 -6 -16 -12 -23 -18c-9 26 -20 44 -47 44s-44 -17 -44 -38c0 -48 76 -76 123 -142zM146 -40c0 -58 -29 -117 -65 -164c-8 5 -16 11 -23 17c49 65 41 90 45 141c14 4 28 6 43 6v0v0z" />
    <glyph glyph-name="Tbar" unicode="&#x166;" horiz-adv-x="842" 
d="M966 849c16 -8 25 -22 25 -37c0 -65 -134 -86 -205 -96c-15 -26 -24 -94 -27 -123c-8 -67 -12 -135 -19 -245c-9 -120 -29 -198 -47 -247c-43 -115 -121 -190 -247 -190c-100 0 -156 66 -156 135c0 61 46 109 88 109c32 0 58 -31 58 -61c0 -18 -7 -34 -23 -44l-12 18
c8 6 11 14 11 23c0 18 -14 36 -32 36c-28 0 -62 -36 -62 -81c0 -55 44 -108 127 -108c197 0 238 213 249 412c5 85 7 258 45 362c-9 -1 -17 -1 -25 -1c-33 0 -71 4 -136 16c-88 16 -187 41 -268 41c-165 0 -258 -116 -258 -242c0 -131 85 -212 195 -212
c128 0 215 106 224 226c14 -3 27 -6 42 -6c-11 -118 -118 -248 -266 -248c-138 0 -237 99 -237 241c0 141 106 277 290 277c127 0 313 -64 415 -64c13 0 25 1 39 2c40 59 107 114 177 114c13 0 25 -2 35 -7zM901 770c14 6 60 26 60 40c0 8 -11 14 -27 14
c-36 0 -90 -31 -127 -76c31 5 64 12 94 22zM645 643h195c0 -10 -1 -18 -3 -28h-195c0 10 2 19 3 28z" />
    <glyph glyph-name="Tcaron" unicode="&#x164;" horiz-adv-x="842" 
d="M966 849c16 -8 25 -22 25 -37c0 -65 -134 -86 -205 -96c-15 -26 -24 -94 -27 -123c-8 -67 -12 -135 -19 -245c-9 -120 -29 -198 -47 -247c-43 -115 -121 -190 -247 -190c-100 0 -156 66 -156 135c0 61 46 109 88 109c32 0 58 -31 58 -61c0 -18 -7 -34 -23 -44l-12 18
c8 6 11 14 11 23c0 18 -14 36 -32 36c-28 0 -62 -36 -62 -81c0 -55 44 -108 127 -108c197 0 238 213 249 412c5 85 7 258 45 362c-9 -1 -17 -1 -25 -1c-33 0 -71 4 -136 16c-88 16 -187 41 -268 41c-165 0 -258 -116 -258 -242c0 -131 85 -212 195 -212
c128 0 215 106 224 226c14 -3 27 -6 42 -6c-11 -118 -118 -248 -266 -248c-138 0 -237 99 -237 241c0 141 106 277 290 277c127 0 313 -64 415 -64c13 0 25 1 39 2c40 59 107 114 177 114c13 0 25 -2 35 -7zM901 770c14 6 60 26 60 40c0 8 -11 14 -27 14
c-36 0 -90 -31 -127 -76c31 5 64 12 94 22zM838 935c6 -6 10 -12 14 -19c-36 -40 -53 -60 -69 -78c-10 -2 -19 -4 -30 -5c-23 30 -33 45 -63 83c5 7 10 12 15 18c21 -15 45 -41 62 -60c20 20 49 46 71 61z" />
    <glyph glyph-name="Tcommaaccent" unicode="&#x162;" horiz-adv-x="842" 
d="M966 849c16 -8 25 -22 25 -37c0 -65 -134 -86 -205 -96c-15 -26 -24 -94 -27 -123c-8 -67 -12 -135 -19 -245c-9 -120 -29 -198 -47 -247c-43 -115 -121 -190 -247 -190c-100 0 -156 66 -156 135c0 61 46 109 88 109c32 0 58 -31 58 -61c0 -18 -7 -34 -23 -44l-12 18
c8 6 11 14 11 23c0 18 -14 36 -32 36c-28 0 -62 -36 -62 -81c0 -55 44 -108 127 -108c197 0 238 213 249 412c5 85 7 258 45 362c-9 -1 -17 -1 -25 -1c-33 0 -71 4 -136 16c-88 16 -187 41 -268 41c-165 0 -258 -116 -258 -242c0 -131 85 -212 195 -212
c128 0 215 106 224 226c14 -3 27 -6 42 -6c-11 -118 -118 -248 -266 -248c-138 0 -237 99 -237 241c0 141 106 277 290 277c127 0 313 -64 415 -64c13 0 25 1 39 2c40 59 107 114 177 114c13 0 25 -2 35 -7zM901 770c14 6 60 26 60 40c0 8 -11 14 -27 14
c-36 0 -90 -31 -127 -76c31 5 64 12 94 22zM655 -73c0 -58 -29 -117 -65 -164c-8 5 -16 11 -23 17c49 65 41 90 45 141c14 4 28 6 43 6v0v0z" />
    <glyph glyph-name="tbar" unicode="&#x167;" horiz-adv-x="237" 
d="M97 347c-18 -277 -14 -157 -14 -222c0 -43 4 -109 30 -109c17 0 81 44 81 133c0 13 -2 23 -12 23c-17 0 -47 -36 -52 -48c-7 3 -14 6 -19 12c14 32 47 64 75 64c26 0 37 -26 37 -50c0 -52 -46 -167 -116 -167c-57 0 -68 84 -68 151c0 28 1 42 13 213h-50c1 10 3 19 4 28
h48c5 75 11 159 17 230c14 3 28 5 43 5c-4 -72 -10 -158 -15 -235h95c0 -9 -2 -19 -4 -28h-93zM8 435h195c0 -10 -1 -18 -3 -28h-195c0 10 2 19 3 28z" />
    <glyph glyph-name="tcaron" unicode="&#x165;" horiz-adv-x="237" 
d="M97 347c-18 -277 -14 -157 -14 -222c0 -43 4 -109 30 -109c17 0 81 44 81 133c0 13 -2 23 -12 23c-17 0 -47 -36 -52 -48c-7 3 -14 6 -19 12c14 32 47 64 75 64c26 0 37 -26 37 -50c0 -52 -46 -167 -116 -167c-57 0 -68 84 -68 151c0 28 1 42 13 213h-50c1 10 3 19 4 28
h48c5 75 11 159 17 230c14 3 28 5 43 5c-4 -72 -10 -158 -15 -235h95c0 -9 -2 -19 -4 -28h-93zM143 679c30 -50 35 -116 28 -174c-9 0 -19 0 -29 2c10 81 -10 99 -32 145c9 10 21 19 33 27v0z" />
    <glyph glyph-name="tcommaaccent" unicode="&#x163;" horiz-adv-x="237" 
d="M97 347c-18 -277 -14 -157 -14 -222c0 -43 4 -109 30 -109c17 0 81 44 81 133c0 13 -2 23 -12 23c-17 0 -47 -36 -52 -48c-7 3 -14 6 -19 12c14 32 47 64 75 64c26 0 37 -26 37 -50c0 -52 -46 -167 -116 -167c-57 0 -68 84 -68 151c0 28 1 42 13 213h-50c1 10 3 19 4 28
h48c5 75 11 159 17 230c14 3 28 5 43 5c-4 -72 -10 -158 -15 -235h95c0 -9 -2 -19 -4 -28h-93zM129 -39c0 -58 -29 -117 -65 -164c-8 5 -16 11 -23 17c49 65 41 90 45 141c14 4 28 6 43 6v0v0z" />
    <glyph glyph-name="Umacron" unicode="&#x16a;" horiz-adv-x="889" 
d="M911 -158c15 -3 28 -5 43 -5c-25 -47 -65 -71 -108 -71c-125 0 -120 232 -120 374c0 47 4 101 8 159c-42 -158 -121 -388 -260 -388c-88 0 -110 68 -110 140c0 144 90 382 90 542c0 101 -34 177 -163 177c-120 0 -239 -88 -239 -237c0 -103 74 -166 171 -166
c76 0 131 47 131 84c0 18 -15 36 -34 36c-9 0 -18 -3 -26 -10c-4 5 -9 11 -13 17c13 10 26 15 39 15c32 0 57 -31 57 -59c0 -52 -67 -112 -163 -112c-116 0 -204 74 -204 194c0 164 144 267 290 267c150 0 199 -90 199 -217c0 -176 -90 -408 -90 -541c0 -51 16 -97 75 -97
c137 0 226 332 263 518c24 291 20 251 31 373c16 4 31 7 47 7c-36 -372 -56 -483 -56 -716c0 -115 -16 -332 77 -332c35 0 59 24 65 48zM540 860h195c0 -10 -1 -18 -3 -28h-195c0 10 2 19 3 28z" />
    <glyph glyph-name="Uogonek" unicode="&#x172;" horiz-adv-x="896" 
d="M911 -158c15 -3 28 -5 43 -5c-25 -47 -65 -71 -108 -71c-125 0 -120 232 -120 374c0 47 4 101 8 159c-42 -158 -121 -388 -260 -388c-88 0 -110 68 -110 140c0 144 90 382 90 542c0 101 -34 177 -163 177c-120 0 -239 -88 -239 -237c0 -103 74 -166 171 -166
c76 0 131 47 131 84c0 18 -15 36 -34 36c-9 0 -18 -3 -26 -10c-4 5 -9 11 -13 17c13 10 26 15 39 15c32 0 57 -31 57 -59c0 -52 -67 -112 -163 -112c-116 0 -204 74 -204 194c0 164 144 267 290 267c150 0 199 -90 199 -217c0 -176 -90 -408 -90 -541c0 -51 16 -97 75 -97
c137 0 226 332 263 518c24 291 20 251 31 373c16 4 31 7 47 7c-36 -372 -56 -483 -56 -716c0 -115 -16 -332 77 -332c35 0 59 24 65 48zM958 -369c1 -8 3 -18 4 -27c-51 -11 -155 -37 -143 59c7 54 54 111 96 168c12 3 25 5 39 5c-103 -125 -154 -247 4 -205z" />
    <glyph glyph-name="Uring" unicode="&#x16e;" horiz-adv-x="889" 
d="M911 -158c15 -3 28 -5 43 -5c-25 -47 -65 -71 -108 -71c-125 0 -120 232 -120 374c0 47 4 101 8 159c-42 -158 -121 -388 -260 -388c-88 0 -110 68 -110 140c0 144 90 382 90 542c0 101 -34 177 -163 177c-120 0 -239 -88 -239 -237c0 -103 74 -166 171 -166
c76 0 131 47 131 84c0 18 -15 36 -34 36c-9 0 -18 -3 -26 -10c-4 5 -9 11 -13 17c13 10 26 15 39 15c32 0 57 -31 57 -59c0 -52 -67 -112 -163 -112c-116 0 -204 74 -204 194c0 164 144 267 290 267c150 0 199 -90 199 -217c0 -176 -90 -408 -90 -541c0 -51 16 -97 75 -97
c137 0 226 332 263 518c24 291 20 251 31 373c16 4 31 7 47 7c-36 -372 -56 -483 -56 -716c0 -115 -16 -332 77 -332c35 0 59 24 65 48zM698 859c-2 -35 -30 -65 -66 -70c-41 -6 -79 27 -77 69c1 37 30 70 67 74c42 4 79 -31 76 -73v0zM664 861c1 27 -21 47 -47 42
c-22 -3 -41 -23 -41 -45c-1 -26 22 -46 48 -42c21 4 38 24 40 45v0z" />
    <glyph glyph-name="Utilde" unicode="&#x168;" horiz-adv-x="889" 
d="M911 -158c15 -3 28 -5 43 -5c-25 -47 -65 -71 -108 -71c-125 0 -120 232 -120 374c0 47 4 101 8 159c-42 -158 -121 -388 -260 -388c-88 0 -110 68 -110 140c0 144 90 382 90 542c0 101 -34 177 -163 177c-120 0 -239 -88 -239 -237c0 -103 74 -166 171 -166
c76 0 131 47 131 84c0 18 -15 36 -34 36c-9 0 -18 -3 -26 -10c-4 5 -9 11 -13 17c13 10 26 15 39 15c32 0 57 -31 57 -59c0 -52 -67 -112 -163 -112c-116 0 -204 74 -204 194c0 164 144 267 290 267c150 0 199 -90 199 -217c0 -176 -90 -408 -90 -541c0 -51 16 -97 75 -97
c137 0 226 332 263 518c24 291 20 251 31 373c16 4 31 7 47 7c-36 -372 -56 -483 -56 -716c0 -115 -16 -332 77 -332c35 0 59 24 65 48zM717 869c6 -6 12 -11 17 -17c-20 -25 -51 -51 -82 -55c-60 -6 -81 67 -92 91c-5 -8 -12 -21 -17 -31c-8 2 -15 5 -22 8
c6 22 16 59 39 61c18 1 27 -17 35 -33c15 -31 28 -64 54 -62c22 0 51 24 68 38z" />
    <glyph glyph-name="umacron" unicode="&#x16b;" horiz-adv-x="279" 
d="M206 110c-25 -64 -69 -125 -124 -125c-66 0 -72 85 -72 156c0 77 8 148 15 216c14 3 28 5 42 5c-4 -78 -14 -156 -14 -245c0 -79 11 -103 35 -103c74 0 112 152 126 233l8 110c15 4 28 5 43 6l-25 -359c-14 -3 -28 -6 -42 -6zM55 436h195c0 -10 -1 -18 -3 -28h-195
c0 10 2 19 3 28z" />
    <glyph glyph-name="uogonek" unicode="&#x173;" horiz-adv-x="279" 
d="M206 110c-25 -64 -69 -125 -124 -125c-66 0 -72 85 -72 156c0 77 8 148 15 216c14 3 28 5 42 5c-4 -78 -14 -156 -14 -245c0 -79 11 -103 35 -103c74 0 112 152 126 233l8 110c15 4 28 5 43 6l-25 -359c-14 -3 -28 -6 -42 -6zM241 -201c1 -8 3 -18 4 -27
c-51 -11 -155 -37 -143 59c7 54 54 111 96 168c12 3 25 5 39 5c-103 -125 -154 -247 4 -205z" />
    <glyph glyph-name="uring" unicode="&#x16f;" horiz-adv-x="279" 
d="M206 110c-25 -64 -69 -125 -124 -125c-66 0 -72 85 -72 156c0 77 8 148 15 216c14 3 28 5 42 5c-4 -78 -14 -156 -14 -245c0 -79 11 -103 35 -103c74 0 112 152 126 233l8 110c15 4 28 5 43 6l-25 -359c-14 -3 -28 -6 -42 -6zM228 481c-2 -35 -30 -65 -66 -70
c-41 -6 -79 27 -77 69c1 37 30 70 67 74c42 4 79 -31 76 -73v0zM194 483c1 27 -21 47 -47 42c-22 -3 -41 -23 -41 -45c-1 -26 22 -46 48 -42c21 4 38 24 40 45v0z" />
    <glyph glyph-name="utilde" unicode="&#x169;" horiz-adv-x="279" 
d="M206 110c-25 -64 -69 -125 -124 -125c-66 0 -72 85 -72 156c0 77 8 148 15 216c14 3 28 5 42 5c-4 -78 -14 -156 -14 -245c0 -79 11 -103 35 -103c74 0 112 152 126 233l8 110c15 4 28 5 43 6l-25 -359c-14 -3 -28 -6 -42 -6zM238 480c6 -6 12 -11 17 -17
c-20 -25 -51 -51 -82 -55c-60 -6 -81 67 -92 91c-5 -8 -12 -21 -17 -31c-8 2 -15 5 -22 8c6 22 16 59 39 61c18 1 27 -17 35 -33c15 -31 28 -64 54 -62c22 0 51 24 68 38z" />
    </font>
</defs>
</svg>
